%TF.GenerationSoftware,KiCad,Pcbnew,6.0.2+dfsg-1*%
%TF.CreationDate,2024-01-09T17:30:35+09:00*%
%TF.ProjectId,pico-toy-elevator,7069636f-2d74-46f7-992d-656c65766174,rev?*%
%TF.SameCoordinates,Original*%
%TF.FileFunction,Soldermask,Top*%
%TF.FilePolarity,Negative*%
%FSLAX46Y46*%
G04 Gerber Fmt 4.6, Leading zero omitted, Abs format (unit mm)*
G04 Created by KiCad (PCBNEW 6.0.2+dfsg-1) date 2024-01-09 17:30:35*
%MOMM*%
%LPD*%
G01*
G04 APERTURE LIST*
%ADD10C,2.000000*%
%ADD11C,1.962000*%
%ADD12C,1.562000*%
%ADD13C,1.600000*%
%ADD14C,1.400000*%
%ADD15O,1.400000X1.400000*%
%ADD16C,6.400000*%
%ADD17C,1.524000*%
%ADD18C,1.612000*%
%ADD19C,1.500000*%
%ADD20R,1.500000X1.050000*%
%ADD21O,1.500000X1.050000*%
%ADD22R,1.600000X1.600000*%
%ADD23O,1.600000X1.600000*%
%ADD24C,1.762000*%
%ADD25O,1.500000X1.500000*%
%ADD26O,1.800000X1.800000*%
%ADD27O,1.700000X1.700000*%
%ADD28R,1.700000X1.700000*%
G04 APERTURE END LIST*
D10*
%TO.C,SW10*%
X124460000Y-118800000D03*
D11*
X118210000Y-116800000D03*
X130710000Y-116800000D03*
X118210000Y-111800000D03*
X130710000Y-111800000D03*
D12*
X120640000Y-119380000D03*
X128260000Y-109210000D03*
%TD*%
D10*
%TO.C,SW9*%
X109220000Y-118800000D03*
D11*
X102970000Y-116800000D03*
X115470000Y-116800000D03*
X102970000Y-111800000D03*
X115470000Y-111800000D03*
D12*
X105400000Y-119380000D03*
X113020000Y-109210000D03*
%TD*%
D10*
%TO.C,SW8*%
X124460000Y-97210000D03*
D11*
X118210000Y-95210000D03*
X130710000Y-95210000D03*
X118210000Y-90210000D03*
X130710000Y-90210000D03*
D12*
X120640000Y-97790000D03*
X128260000Y-87620000D03*
%TD*%
D10*
%TO.C,SW7*%
X109220000Y-97210000D03*
D11*
X102970000Y-95210000D03*
X115470000Y-95210000D03*
X102970000Y-90210000D03*
X115470000Y-90210000D03*
D12*
X105400000Y-97790000D03*
X113020000Y-87620000D03*
%TD*%
D10*
%TO.C,SW6*%
X124460000Y-80700000D03*
D11*
X118210000Y-78700000D03*
X130710000Y-78700000D03*
X118210000Y-73700000D03*
X130710000Y-73700000D03*
D12*
X120640000Y-81280000D03*
X128260000Y-71110000D03*
%TD*%
D10*
%TO.C,SW5*%
X109220000Y-80700000D03*
D11*
X102970000Y-78700000D03*
X115470000Y-78700000D03*
X102970000Y-73700000D03*
X115470000Y-73700000D03*
D12*
X105400000Y-81280000D03*
X113020000Y-71110000D03*
%TD*%
D10*
%TO.C,SW4*%
X124460000Y-64190000D03*
D11*
X118210000Y-62190000D03*
X130710000Y-62190000D03*
X118210000Y-57190000D03*
X130710000Y-57190000D03*
D12*
X120640000Y-64770000D03*
X128260000Y-54600000D03*
%TD*%
D10*
%TO.C,SW3*%
X109220000Y-64190000D03*
D11*
X102970000Y-62190000D03*
X115470000Y-62190000D03*
X102970000Y-57190000D03*
X115470000Y-57190000D03*
D12*
X105400000Y-64770000D03*
X113020000Y-54600000D03*
%TD*%
D10*
%TO.C,SW2*%
X124460000Y-47680000D03*
D11*
X118210000Y-45680000D03*
X130710000Y-45680000D03*
X118210000Y-40680000D03*
X130710000Y-40680000D03*
D12*
X120640000Y-48260000D03*
X128260000Y-38090000D03*
%TD*%
D10*
%TO.C,SW1*%
X109220000Y-47680000D03*
D11*
X102970000Y-45680000D03*
X115470000Y-45680000D03*
X102970000Y-40680000D03*
X115470000Y-40680000D03*
D12*
X105400000Y-48260000D03*
X113020000Y-38090000D03*
%TD*%
D13*
%TO.C,C8*%
X129540000Y-100330000D03*
X127040000Y-100330000D03*
%TD*%
%TO.C,C3*%
X114300000Y-67310000D03*
X111800000Y-67310000D03*
%TD*%
D12*
%TO.C,SW11*%
X59650000Y-121285000D03*
X57150000Y-121285000D03*
X54650000Y-121285000D03*
%TD*%
D14*
%TO.C,R4*%
X119380000Y-67310000D03*
D15*
X124460000Y-67310000D03*
%TD*%
D14*
%TO.C,R7*%
X104140000Y-100330000D03*
D15*
X109220000Y-100330000D03*
%TD*%
D14*
%TO.C,R5*%
X104140000Y-83820000D03*
D15*
X109220000Y-83820000D03*
%TD*%
D16*
%TO.C,H2*%
X135000000Y-35000000D03*
%TD*%
D14*
%TO.C,R2*%
X119380000Y-50800000D03*
D15*
X124460000Y-50800000D03*
%TD*%
D13*
%TO.C,C6*%
X129540000Y-83820000D03*
X127040000Y-83820000D03*
%TD*%
D14*
%TO.C,R8*%
X119380000Y-100330000D03*
D15*
X124460000Y-100330000D03*
%TD*%
D17*
%TO.C,U2*%
X80010000Y-66470000D03*
X82550000Y-66470000D03*
X85090000Y-66470000D03*
X87630000Y-66470000D03*
%TD*%
D14*
%TO.C,R3*%
X104140000Y-67310000D03*
D15*
X109220000Y-67310000D03*
%TD*%
D13*
%TO.C,C7*%
X114300000Y-100330000D03*
X111800000Y-100330000D03*
%TD*%
%TO.C,C9*%
X114300000Y-121920000D03*
X111800000Y-121920000D03*
%TD*%
D16*
%TO.C,H3*%
X45000000Y-125000000D03*
%TD*%
D14*
%TO.C,R10*%
X119380000Y-121920000D03*
D15*
X124460000Y-121920000D03*
%TD*%
D14*
%TO.C,R1*%
X104140000Y-50800000D03*
D15*
X109220000Y-50800000D03*
%TD*%
D13*
%TO.C,C5*%
X114300000Y-83820000D03*
X111800000Y-83820000D03*
%TD*%
%TO.C,C4*%
X129540000Y-67310000D03*
X127040000Y-67310000D03*
%TD*%
D16*
%TO.C,H4*%
X135000000Y-125000000D03*
%TD*%
D14*
%TO.C,R6*%
X119380000Y-83820000D03*
D15*
X124460000Y-83820000D03*
%TD*%
D13*
%TO.C,C10*%
X129540000Y-121920000D03*
X127040000Y-121920000D03*
%TD*%
D18*
%TO.C,LS1*%
X88820000Y-107950000D03*
X78820000Y-107950000D03*
%TD*%
D14*
%TO.C,R9*%
X104140000Y-121920000D03*
D15*
X109220000Y-121920000D03*
%TD*%
D13*
%TO.C,C1*%
X114280000Y-50800000D03*
X111780000Y-50800000D03*
%TD*%
D16*
%TO.C,H1*%
X45000000Y-35000000D03*
%TD*%
D13*
%TO.C,C2*%
X129540000Y-50800000D03*
X127040000Y-50800000D03*
%TD*%
D19*
%TO.C,Y1*%
X62230000Y-100240000D03*
X62230000Y-97800000D03*
X62230000Y-95360000D03*
%TD*%
D14*
%TO.C,R12*%
X49530000Y-114300000D03*
D15*
X54610000Y-114300000D03*
%TD*%
D14*
%TO.C,R13*%
X59690000Y-105410000D03*
D15*
X64770000Y-105410000D03*
%TD*%
D20*
%TO.C,Q1*%
X62230000Y-109220000D03*
D21*
X62230000Y-110490000D03*
X62230000Y-111760000D03*
%TD*%
D13*
%TO.C,C13*%
X60960000Y-87650000D03*
X60960000Y-90150000D03*
%TD*%
D22*
%TO.C,C11*%
X62294888Y-117475000D03*
D13*
X64794888Y-117475000D03*
%TD*%
D22*
%TO.C,U3*%
X57140000Y-77470000D03*
D23*
X57140000Y-80010000D03*
X57140000Y-82550000D03*
X57140000Y-85090000D03*
X57140000Y-87630000D03*
X57140000Y-90170000D03*
X57140000Y-92710000D03*
X57140000Y-95250000D03*
X57140000Y-97790000D03*
X57140000Y-100330000D03*
X57140000Y-102870000D03*
X57140000Y-105410000D03*
X57140000Y-107950000D03*
X57140000Y-110490000D03*
X49520000Y-110490000D03*
X49520000Y-107950000D03*
X49520000Y-105410000D03*
X49520000Y-102870000D03*
X49520000Y-100330000D03*
X49520000Y-97790000D03*
X49520000Y-95250000D03*
X49520000Y-92710000D03*
X49520000Y-90170000D03*
X49520000Y-87630000D03*
X49520000Y-85090000D03*
X49520000Y-82550000D03*
X49520000Y-80010000D03*
X49520000Y-77470000D03*
%TD*%
D24*
%TO.C,BT1*%
X91120000Y-121685000D03*
X76520000Y-121685000D03*
%TD*%
D25*
%TO.C,U1*%
X52690000Y-53225000D03*
X52690000Y-48375000D03*
D26*
X49660000Y-48075000D03*
X49660000Y-53525000D03*
D27*
X49530000Y-41910000D03*
X52070000Y-41910000D03*
D28*
X54610000Y-41910000D03*
D27*
X57150000Y-41910000D03*
X59690000Y-41910000D03*
X62230000Y-41910000D03*
X64770000Y-41910000D03*
D28*
X67310000Y-41910000D03*
D27*
X69850000Y-41910000D03*
X72390000Y-41910000D03*
X74930000Y-41910000D03*
X77470000Y-41910000D03*
D28*
X80010000Y-41910000D03*
D27*
X82550000Y-41910000D03*
X85090000Y-41910000D03*
X87630000Y-41910000D03*
X90170000Y-41910000D03*
D28*
X92710000Y-41910000D03*
D27*
X95250000Y-41910000D03*
X97790000Y-41910000D03*
X97790000Y-59690000D03*
X95250000Y-59690000D03*
D28*
X92710000Y-59690000D03*
D27*
X90170000Y-59690000D03*
X87630000Y-59690000D03*
X85090000Y-59690000D03*
X82550000Y-59690000D03*
D28*
X80010000Y-59690000D03*
D27*
X77470000Y-59690000D03*
X74930000Y-59690000D03*
X72390000Y-59690000D03*
X69850000Y-59690000D03*
D28*
X67310000Y-59690000D03*
D27*
X64770000Y-59690000D03*
X62230000Y-59690000D03*
X59690000Y-59690000D03*
X57150000Y-59690000D03*
D28*
X54610000Y-59690000D03*
D27*
X52070000Y-59690000D03*
X49530000Y-59690000D03*
X97560000Y-48260000D03*
D28*
X97560000Y-50800000D03*
D27*
X97560000Y-53340000D03*
%TD*%
D14*
%TO.C,R11*%
X60960000Y-77470000D03*
D15*
X60960000Y-82550000D03*
%TD*%
D13*
%TO.C,C12*%
X57130000Y-64135000D03*
X54630000Y-64135000D03*
%TD*%
M02*
