%TF.GenerationSoftware,KiCad,Pcbnew,6.0.2+dfsg-1*%
%TF.CreationDate,2024-01-09T17:30:34+09:00*%
%TF.ProjectId,pico-toy-elevator,7069636f-2d74-46f7-992d-656c65766174,rev?*%
%TF.SameCoordinates,Original*%
%TF.FileFunction,Legend,Bot*%
%TF.FilePolarity,Positive*%
%FSLAX46Y46*%
G04 Gerber Fmt 4.6, Leading zero omitted, Abs format (unit mm)*
G04 Created by KiCad (PCBNEW 6.0.2+dfsg-1) date 2024-01-09 17:30:34*
%MOMM*%
%LPD*%
G01*
G04 APERTURE LIST*
%ADD10C,0.150000*%
%ADD11C,0.120000*%
G04 APERTURE END LIST*
D10*
%TO.C,Y1*%
X66016190Y-94773809D02*
X66492380Y-94773809D01*
X65492380Y-94440476D02*
X66016190Y-94773809D01*
X65492380Y-95107142D01*
X66492380Y-95964285D02*
X66492380Y-95392857D01*
X66492380Y-95678571D02*
X65492380Y-95678571D01*
X65635238Y-95583333D01*
X65730476Y-95488095D01*
X65778095Y-95392857D01*
%TO.C,R12*%
X52712857Y-114752380D02*
X53046190Y-114276190D01*
X53284285Y-114752380D02*
X53284285Y-113752380D01*
X52903333Y-113752380D01*
X52808095Y-113800000D01*
X52760476Y-113847619D01*
X52712857Y-113942857D01*
X52712857Y-114085714D01*
X52760476Y-114180952D01*
X52808095Y-114228571D01*
X52903333Y-114276190D01*
X53284285Y-114276190D01*
X51760476Y-114752380D02*
X52331904Y-114752380D01*
X52046190Y-114752380D02*
X52046190Y-113752380D01*
X52141428Y-113895238D01*
X52236666Y-113990476D01*
X52331904Y-114038095D01*
X51379523Y-113847619D02*
X51331904Y-113800000D01*
X51236666Y-113752380D01*
X50998571Y-113752380D01*
X50903333Y-113800000D01*
X50855714Y-113847619D01*
X50808095Y-113942857D01*
X50808095Y-114038095D01*
X50855714Y-114180952D01*
X51427142Y-114752380D01*
X50808095Y-114752380D01*
%TO.C,R13*%
X62872857Y-105862380D02*
X63206190Y-105386190D01*
X63444285Y-105862380D02*
X63444285Y-104862380D01*
X63063333Y-104862380D01*
X62968095Y-104910000D01*
X62920476Y-104957619D01*
X62872857Y-105052857D01*
X62872857Y-105195714D01*
X62920476Y-105290952D01*
X62968095Y-105338571D01*
X63063333Y-105386190D01*
X63444285Y-105386190D01*
X61920476Y-105862380D02*
X62491904Y-105862380D01*
X62206190Y-105862380D02*
X62206190Y-104862380D01*
X62301428Y-105005238D01*
X62396666Y-105100476D01*
X62491904Y-105148095D01*
X61587142Y-104862380D02*
X60968095Y-104862380D01*
X61301428Y-105243333D01*
X61158571Y-105243333D01*
X61063333Y-105290952D01*
X61015714Y-105338571D01*
X60968095Y-105433809D01*
X60968095Y-105671904D01*
X61015714Y-105767142D01*
X61063333Y-105814761D01*
X61158571Y-105862380D01*
X61444285Y-105862380D01*
X61539523Y-105814761D01*
X61587142Y-105767142D01*
%TO.C,Q1*%
X65317619Y-110394761D02*
X65270000Y-110299523D01*
X65174761Y-110204285D01*
X65031904Y-110061428D01*
X64984285Y-109966190D01*
X64984285Y-109870952D01*
X65222380Y-109918571D02*
X65174761Y-109823333D01*
X65079523Y-109728095D01*
X64889047Y-109680476D01*
X64555714Y-109680476D01*
X64365238Y-109728095D01*
X64270000Y-109823333D01*
X64222380Y-109918571D01*
X64222380Y-110109047D01*
X64270000Y-110204285D01*
X64365238Y-110299523D01*
X64555714Y-110347142D01*
X64889047Y-110347142D01*
X65079523Y-110299523D01*
X65174761Y-110204285D01*
X65222380Y-110109047D01*
X65222380Y-109918571D01*
X65222380Y-111299523D02*
X65222380Y-110728095D01*
X65222380Y-111013809D02*
X64222380Y-111013809D01*
X64365238Y-110918571D01*
X64460476Y-110823333D01*
X64508095Y-110728095D01*
%TO.C,C13*%
X63857142Y-89527142D02*
X63904761Y-89479523D01*
X63952380Y-89336666D01*
X63952380Y-89241428D01*
X63904761Y-89098571D01*
X63809523Y-89003333D01*
X63714285Y-88955714D01*
X63523809Y-88908095D01*
X63380952Y-88908095D01*
X63190476Y-88955714D01*
X63095238Y-89003333D01*
X63000000Y-89098571D01*
X62952380Y-89241428D01*
X62952380Y-89336666D01*
X63000000Y-89479523D01*
X63047619Y-89527142D01*
X63952380Y-90479523D02*
X63952380Y-89908095D01*
X63952380Y-90193809D02*
X62952380Y-90193809D01*
X63095238Y-90098571D01*
X63190476Y-90003333D01*
X63238095Y-89908095D01*
X62952380Y-90812857D02*
X62952380Y-91431904D01*
X63333333Y-91098571D01*
X63333333Y-91241428D01*
X63380952Y-91336666D01*
X63428571Y-91384285D01*
X63523809Y-91431904D01*
X63761904Y-91431904D01*
X63857142Y-91384285D01*
X63904761Y-91336666D01*
X63952380Y-91241428D01*
X63952380Y-90955714D01*
X63904761Y-90860476D01*
X63857142Y-90812857D01*
%TO.C,C11*%
X60332857Y-115927142D02*
X60380476Y-115974761D01*
X60523333Y-116022380D01*
X60618571Y-116022380D01*
X60761428Y-115974761D01*
X60856666Y-115879523D01*
X60904285Y-115784285D01*
X60951904Y-115593809D01*
X60951904Y-115450952D01*
X60904285Y-115260476D01*
X60856666Y-115165238D01*
X60761428Y-115070000D01*
X60618571Y-115022380D01*
X60523333Y-115022380D01*
X60380476Y-115070000D01*
X60332857Y-115117619D01*
X59380476Y-116022380D02*
X59951904Y-116022380D01*
X59666190Y-116022380D02*
X59666190Y-115022380D01*
X59761428Y-115165238D01*
X59856666Y-115260476D01*
X59951904Y-115308095D01*
X58428095Y-116022380D02*
X58999523Y-116022380D01*
X58713809Y-116022380D02*
X58713809Y-115022380D01*
X58809047Y-115165238D01*
X58904285Y-115260476D01*
X58999523Y-115308095D01*
%TO.C,U3*%
X54091904Y-93432380D02*
X54091904Y-94241904D01*
X54044285Y-94337142D01*
X53996666Y-94384761D01*
X53901428Y-94432380D01*
X53710952Y-94432380D01*
X53615714Y-94384761D01*
X53568095Y-94337142D01*
X53520476Y-94241904D01*
X53520476Y-93432380D01*
X53139523Y-93432380D02*
X52520476Y-93432380D01*
X52853809Y-93813333D01*
X52710952Y-93813333D01*
X52615714Y-93860952D01*
X52568095Y-93908571D01*
X52520476Y-94003809D01*
X52520476Y-94241904D01*
X52568095Y-94337142D01*
X52615714Y-94384761D01*
X52710952Y-94432380D01*
X52996666Y-94432380D01*
X53091904Y-94384761D01*
X53139523Y-94337142D01*
%TO.C,BT1*%
X83748571Y-120099285D02*
X83796190Y-120242142D01*
X83843809Y-120289761D01*
X83939047Y-120337380D01*
X84081904Y-120337380D01*
X84177142Y-120289761D01*
X84224761Y-120242142D01*
X84272380Y-120146904D01*
X84272380Y-119765952D01*
X83272380Y-119765952D01*
X83272380Y-120099285D01*
X83320000Y-120194523D01*
X83367619Y-120242142D01*
X83462857Y-120289761D01*
X83558095Y-120289761D01*
X83653333Y-120242142D01*
X83700952Y-120194523D01*
X83748571Y-120099285D01*
X83748571Y-119765952D01*
X83272380Y-120623095D02*
X83272380Y-121194523D01*
X84272380Y-120908809D02*
X83272380Y-120908809D01*
X84272380Y-122051666D02*
X84272380Y-121480238D01*
X84272380Y-121765952D02*
X83272380Y-121765952D01*
X83415238Y-121670714D01*
X83510476Y-121575476D01*
X83558095Y-121480238D01*
X77672380Y-120632619D02*
X78672380Y-120965952D01*
X77672380Y-121299285D01*
X78291428Y-121632619D02*
X78291428Y-122394523D01*
X92272380Y-120732619D02*
X93272380Y-121065952D01*
X92272380Y-121399285D01*
X92891428Y-121732619D02*
X92891428Y-122494523D01*
X93272380Y-122113571D02*
X92510476Y-122113571D01*
%TO.C,U1*%
X73112380Y-50038095D02*
X73921904Y-50038095D01*
X74017142Y-50085714D01*
X74064761Y-50133333D01*
X74112380Y-50228571D01*
X74112380Y-50419047D01*
X74064761Y-50514285D01*
X74017142Y-50561904D01*
X73921904Y-50609523D01*
X73112380Y-50609523D01*
X74112380Y-51609523D02*
X74112380Y-51038095D01*
X74112380Y-51323809D02*
X73112380Y-51323809D01*
X73255238Y-51228571D01*
X73350476Y-51133333D01*
X73398095Y-51038095D01*
X75051218Y-37313096D02*
X75078155Y-37232284D01*
X75158967Y-37151471D01*
X75266717Y-37097597D01*
X75374467Y-37097597D01*
X75455279Y-37124534D01*
X75589966Y-37205346D01*
X75670778Y-37286158D01*
X75751590Y-37420845D01*
X75778528Y-37501658D01*
X75778528Y-37609407D01*
X75724653Y-37717157D01*
X75670778Y-37771032D01*
X75563028Y-37824906D01*
X75509154Y-37824906D01*
X75320592Y-37636345D01*
X75428341Y-37528595D01*
X75320592Y-38121218D02*
X74754906Y-37555532D01*
X74539407Y-37771032D01*
X74512470Y-37851844D01*
X74512470Y-37905719D01*
X74539407Y-37986531D01*
X74620219Y-38067343D01*
X74701032Y-38094280D01*
X74754906Y-38094280D01*
X74835719Y-38067343D01*
X75051218Y-37851844D01*
X74350845Y-38444467D02*
X74377783Y-38363654D01*
X74377783Y-38309780D01*
X74350845Y-38228967D01*
X74323908Y-38202030D01*
X74243096Y-38175093D01*
X74189221Y-38175093D01*
X74108409Y-38202030D01*
X74000659Y-38309780D01*
X73973722Y-38390592D01*
X73973722Y-38444467D01*
X74000659Y-38525279D01*
X74027597Y-38552216D01*
X74108409Y-38579154D01*
X74162284Y-38579154D01*
X74243096Y-38552216D01*
X74350845Y-38444467D01*
X74431658Y-38417529D01*
X74485532Y-38417529D01*
X74566345Y-38444467D01*
X74674094Y-38552216D01*
X74701032Y-38633028D01*
X74701032Y-38686903D01*
X74674094Y-38767715D01*
X74566345Y-38875465D01*
X74485532Y-38902402D01*
X74431658Y-38902402D01*
X74350845Y-38875465D01*
X74243096Y-38767715D01*
X74216158Y-38686903D01*
X74216158Y-38633028D01*
X74243096Y-38552216D01*
X77860592Y-56193722D02*
X77887529Y-56112910D01*
X77968341Y-56032097D01*
X78076091Y-55978223D01*
X78183841Y-55978223D01*
X78264653Y-56005160D01*
X78399340Y-56085972D01*
X78480152Y-56166784D01*
X78560964Y-56301471D01*
X78587902Y-56382284D01*
X78587902Y-56490033D01*
X78534027Y-56597783D01*
X78480152Y-56651658D01*
X78372402Y-56705532D01*
X78318528Y-56705532D01*
X78129966Y-56516971D01*
X78237715Y-56409221D01*
X78129966Y-57001844D02*
X77564280Y-56436158D01*
X77348781Y-56651658D01*
X77321844Y-56732470D01*
X77321844Y-56786345D01*
X77348781Y-56867157D01*
X77429593Y-56947969D01*
X77510406Y-56974906D01*
X77564280Y-56974906D01*
X77645093Y-56947969D01*
X77860592Y-56732470D01*
X77079407Y-57028781D02*
X77025532Y-57028781D01*
X76944720Y-57055719D01*
X76810033Y-57190406D01*
X76783096Y-57271218D01*
X76783096Y-57325093D01*
X76810033Y-57405905D01*
X76863908Y-57459780D01*
X76971658Y-57513654D01*
X77618155Y-57513654D01*
X77267969Y-57863841D01*
X76540659Y-57567529D02*
X76486784Y-57567529D01*
X76405972Y-57594467D01*
X76271285Y-57729154D01*
X76244348Y-57809966D01*
X76244348Y-57863841D01*
X76271285Y-57944653D01*
X76325160Y-57998528D01*
X76432910Y-58052402D01*
X77079407Y-58052402D01*
X76729221Y-58402589D01*
X85480592Y-36643722D02*
X85507529Y-36562910D01*
X85588341Y-36482097D01*
X85696091Y-36428223D01*
X85803841Y-36428223D01*
X85884653Y-36455160D01*
X86019340Y-36535972D01*
X86100152Y-36616784D01*
X86180964Y-36751471D01*
X86207902Y-36832284D01*
X86207902Y-36940033D01*
X86154027Y-37047783D01*
X86100152Y-37101658D01*
X85992402Y-37155532D01*
X85938528Y-37155532D01*
X85749966Y-36966971D01*
X85857715Y-36859221D01*
X85749966Y-37451844D02*
X85184280Y-36886158D01*
X84968781Y-37101658D01*
X84941844Y-37182470D01*
X84941844Y-37236345D01*
X84968781Y-37317157D01*
X85049593Y-37397969D01*
X85130406Y-37424906D01*
X85184280Y-37424906D01*
X85265093Y-37397969D01*
X85480592Y-37182470D01*
X84887969Y-38313841D02*
X85211218Y-37990592D01*
X85049593Y-38152216D02*
X84483908Y-37586531D01*
X84618595Y-37613468D01*
X84726345Y-37613468D01*
X84807157Y-37586531D01*
X84349221Y-38852589D02*
X84672470Y-38529340D01*
X84510845Y-38690964D02*
X83945160Y-38125279D01*
X84079847Y-38152216D01*
X84187597Y-38152216D01*
X84268409Y-38125279D01*
X90560592Y-56193722D02*
X90587529Y-56112910D01*
X90668341Y-56032097D01*
X90776091Y-55978223D01*
X90883841Y-55978223D01*
X90964653Y-56005160D01*
X91099340Y-56085972D01*
X91180152Y-56166784D01*
X91260964Y-56301471D01*
X91287902Y-56382284D01*
X91287902Y-56490033D01*
X91234027Y-56597783D01*
X91180152Y-56651658D01*
X91072402Y-56705532D01*
X91018528Y-56705532D01*
X90829966Y-56516971D01*
X90937715Y-56409221D01*
X90829966Y-57001844D02*
X90264280Y-56436158D01*
X90048781Y-56651658D01*
X90021844Y-56732470D01*
X90021844Y-56786345D01*
X90048781Y-56867157D01*
X90129593Y-56947969D01*
X90210406Y-56974906D01*
X90264280Y-56974906D01*
X90345093Y-56947969D01*
X90560592Y-56732470D01*
X89967969Y-57863841D02*
X90291218Y-57540592D01*
X90129593Y-57702216D02*
X89563908Y-57136531D01*
X89698595Y-57163468D01*
X89806345Y-57163468D01*
X89887157Y-57136531D01*
X89321471Y-57863841D02*
X89348409Y-57783028D01*
X89348409Y-57729154D01*
X89321471Y-57648341D01*
X89294534Y-57621404D01*
X89213722Y-57594467D01*
X89159847Y-57594467D01*
X89079035Y-57621404D01*
X88971285Y-57729154D01*
X88944348Y-57809966D01*
X88944348Y-57863841D01*
X88971285Y-57944653D01*
X88998223Y-57971590D01*
X89079035Y-57998528D01*
X89132910Y-57998528D01*
X89213722Y-57971590D01*
X89321471Y-57863841D01*
X89402284Y-57836903D01*
X89456158Y-57836903D01*
X89536971Y-57863841D01*
X89644720Y-57971590D01*
X89671658Y-58052402D01*
X89671658Y-58106277D01*
X89644720Y-58187089D01*
X89536971Y-58294839D01*
X89456158Y-58321776D01*
X89402284Y-58321776D01*
X89321471Y-58294839D01*
X89213722Y-58187089D01*
X89186784Y-58106277D01*
X89186784Y-58052402D01*
X89213722Y-57971590D01*
X77591218Y-37313096D02*
X77618155Y-37232284D01*
X77698967Y-37151471D01*
X77806717Y-37097597D01*
X77914467Y-37097597D01*
X77995279Y-37124534D01*
X78129966Y-37205346D01*
X78210778Y-37286158D01*
X78291590Y-37420845D01*
X78318528Y-37501658D01*
X78318528Y-37609407D01*
X78264653Y-37717157D01*
X78210778Y-37771032D01*
X78103028Y-37824906D01*
X78049154Y-37824906D01*
X77860592Y-37636345D01*
X77968341Y-37528595D01*
X77860592Y-38121218D02*
X77294906Y-37555532D01*
X77079407Y-37771032D01*
X77052470Y-37851844D01*
X77052470Y-37905719D01*
X77079407Y-37986531D01*
X77160219Y-38067343D01*
X77241032Y-38094280D01*
X77294906Y-38094280D01*
X77375719Y-38067343D01*
X77591218Y-37851844D01*
X77267969Y-38713841D02*
X77160219Y-38821590D01*
X77079407Y-38848528D01*
X77025532Y-38848528D01*
X76890845Y-38821590D01*
X76756158Y-38740778D01*
X76540659Y-38525279D01*
X76513722Y-38444467D01*
X76513722Y-38390592D01*
X76540659Y-38309780D01*
X76648409Y-38202030D01*
X76729221Y-38175093D01*
X76783096Y-38175093D01*
X76863908Y-38202030D01*
X76998595Y-38336717D01*
X77025532Y-38417529D01*
X77025532Y-38471404D01*
X76998595Y-38552216D01*
X76890845Y-38659966D01*
X76810033Y-38686903D01*
X76756158Y-38686903D01*
X76675346Y-38659966D01*
X72780592Y-56193722D02*
X72807529Y-56112910D01*
X72888341Y-56032097D01*
X72996091Y-55978223D01*
X73103841Y-55978223D01*
X73184653Y-56005160D01*
X73319340Y-56085972D01*
X73400152Y-56166784D01*
X73480964Y-56301471D01*
X73507902Y-56382284D01*
X73507902Y-56490033D01*
X73454027Y-56597783D01*
X73400152Y-56651658D01*
X73292402Y-56705532D01*
X73238528Y-56705532D01*
X73049966Y-56516971D01*
X73157715Y-56409221D01*
X73049966Y-57001844D02*
X72484280Y-56436158D01*
X72268781Y-56651658D01*
X72241844Y-56732470D01*
X72241844Y-56786345D01*
X72268781Y-56867157D01*
X72349593Y-56947969D01*
X72430406Y-56974906D01*
X72484280Y-56974906D01*
X72565093Y-56947969D01*
X72780592Y-56732470D01*
X71999407Y-57028781D02*
X71945532Y-57028781D01*
X71864720Y-57055719D01*
X71730033Y-57190406D01*
X71703096Y-57271218D01*
X71703096Y-57325093D01*
X71730033Y-57405905D01*
X71783908Y-57459780D01*
X71891658Y-57513654D01*
X72538155Y-57513654D01*
X72187969Y-57863841D01*
X71137410Y-57783028D02*
X71245160Y-57675279D01*
X71325972Y-57648341D01*
X71379847Y-57648341D01*
X71514534Y-57675279D01*
X71649221Y-57756091D01*
X71864720Y-57971590D01*
X71891658Y-58052402D01*
X71891658Y-58106277D01*
X71864720Y-58187089D01*
X71756971Y-58294839D01*
X71676158Y-58321776D01*
X71622284Y-58321776D01*
X71541471Y-58294839D01*
X71406784Y-58160152D01*
X71379847Y-58079340D01*
X71379847Y-58025465D01*
X71406784Y-57944653D01*
X71514534Y-57836903D01*
X71595346Y-57809966D01*
X71649221Y-57809966D01*
X71730033Y-57836903D01*
X57271218Y-37213096D02*
X57298155Y-37132284D01*
X57378967Y-37051471D01*
X57486717Y-36997597D01*
X57594467Y-36997597D01*
X57675279Y-37024534D01*
X57809966Y-37105346D01*
X57890778Y-37186158D01*
X57971590Y-37320845D01*
X57998528Y-37401658D01*
X57998528Y-37509407D01*
X57944653Y-37617157D01*
X57890778Y-37671032D01*
X57783028Y-37724906D01*
X57729154Y-37724906D01*
X57540592Y-37536345D01*
X57648341Y-37428595D01*
X57540592Y-38021218D02*
X56974906Y-37455532D01*
X56759407Y-37671032D01*
X56732470Y-37751844D01*
X56732470Y-37805719D01*
X56759407Y-37886531D01*
X56840219Y-37967343D01*
X56921032Y-37994280D01*
X56974906Y-37994280D01*
X57055719Y-37967343D01*
X57271218Y-37751844D01*
X56490033Y-38048155D02*
X56436158Y-38048155D01*
X56355346Y-38075093D01*
X56220659Y-38209780D01*
X56193722Y-38290592D01*
X56193722Y-38344467D01*
X56220659Y-38425279D01*
X56274534Y-38479154D01*
X56382284Y-38533028D01*
X57028781Y-38533028D01*
X56678595Y-38883215D01*
X82940592Y-36789722D02*
X82967529Y-36708910D01*
X83048341Y-36628097D01*
X83156091Y-36574223D01*
X83263841Y-36574223D01*
X83344653Y-36601160D01*
X83479340Y-36681972D01*
X83560152Y-36762784D01*
X83640964Y-36897471D01*
X83667902Y-36978284D01*
X83667902Y-37086033D01*
X83614027Y-37193783D01*
X83560152Y-37247658D01*
X83452402Y-37301532D01*
X83398528Y-37301532D01*
X83209966Y-37112971D01*
X83317715Y-37005221D01*
X83209966Y-37597844D02*
X82644280Y-37032158D01*
X82428781Y-37247658D01*
X82401844Y-37328470D01*
X82401844Y-37382345D01*
X82428781Y-37463157D01*
X82509593Y-37543969D01*
X82590406Y-37570906D01*
X82644280Y-37570906D01*
X82725093Y-37543969D01*
X82940592Y-37328470D01*
X82347969Y-38459841D02*
X82671218Y-38136592D01*
X82509593Y-38298216D02*
X81943908Y-37732531D01*
X82078595Y-37759468D01*
X82186345Y-37759468D01*
X82267157Y-37732531D01*
X81432097Y-38244341D02*
X81378223Y-38298216D01*
X81351285Y-38379028D01*
X81351285Y-38432903D01*
X81378223Y-38513715D01*
X81459035Y-38648402D01*
X81593722Y-38783089D01*
X81728409Y-38863902D01*
X81809221Y-38890839D01*
X81863096Y-38890839D01*
X81943908Y-38863902D01*
X81997783Y-38810027D01*
X82024720Y-38729215D01*
X82024720Y-38675340D01*
X81997783Y-38594528D01*
X81916971Y-38459841D01*
X81782284Y-38325154D01*
X81647597Y-38244341D01*
X81566784Y-38217404D01*
X81512910Y-38217404D01*
X81432097Y-38244341D01*
X92858155Y-57071158D02*
X92885093Y-56990346D01*
X92965905Y-56909534D01*
X93073654Y-56855659D01*
X93181404Y-56855659D01*
X93262216Y-56882597D01*
X93396903Y-56963409D01*
X93477715Y-57044221D01*
X93558528Y-57178908D01*
X93585465Y-57259720D01*
X93585465Y-57367470D01*
X93531590Y-57475219D01*
X93477715Y-57529094D01*
X93369966Y-57582969D01*
X93316091Y-57582969D01*
X93127529Y-57394407D01*
X93235279Y-57286658D01*
X93127529Y-57879280D02*
X92561844Y-57313595D01*
X92804280Y-58202529D01*
X92238595Y-57636844D01*
X92534906Y-58471903D02*
X91969221Y-57906218D01*
X91834534Y-58040905D01*
X91780659Y-58148654D01*
X91780659Y-58256404D01*
X91807597Y-58337216D01*
X91888409Y-58471903D01*
X91969221Y-58552715D01*
X92103908Y-58633528D01*
X92184720Y-58660465D01*
X92292470Y-58660465D01*
X92400219Y-58606590D01*
X92534906Y-58471903D01*
X72481218Y-37413096D02*
X72508155Y-37332284D01*
X72588967Y-37251471D01*
X72696717Y-37197597D01*
X72804467Y-37197597D01*
X72885279Y-37224534D01*
X73019966Y-37305346D01*
X73100778Y-37386158D01*
X73181590Y-37520845D01*
X73208528Y-37601658D01*
X73208528Y-37709407D01*
X73154653Y-37817157D01*
X73100778Y-37871032D01*
X72993028Y-37924906D01*
X72939154Y-37924906D01*
X72750592Y-37736345D01*
X72858341Y-37628595D01*
X72750592Y-38221218D02*
X72184906Y-37655532D01*
X71969407Y-37871032D01*
X71942470Y-37951844D01*
X71942470Y-38005719D01*
X71969407Y-38086531D01*
X72050219Y-38167343D01*
X72131032Y-38194280D01*
X72184906Y-38194280D01*
X72265719Y-38167343D01*
X72481218Y-37951844D01*
X71673096Y-38167343D02*
X71295972Y-38544467D01*
X72104094Y-38867715D01*
X59811218Y-37313096D02*
X59838155Y-37232284D01*
X59918967Y-37151471D01*
X60026717Y-37097597D01*
X60134467Y-37097597D01*
X60215279Y-37124534D01*
X60349966Y-37205346D01*
X60430778Y-37286158D01*
X60511590Y-37420845D01*
X60538528Y-37501658D01*
X60538528Y-37609407D01*
X60484653Y-37717157D01*
X60430778Y-37771032D01*
X60323028Y-37824906D01*
X60269154Y-37824906D01*
X60080592Y-37636345D01*
X60188341Y-37528595D01*
X60080592Y-38121218D02*
X59514906Y-37555532D01*
X59299407Y-37771032D01*
X59272470Y-37851844D01*
X59272470Y-37905719D01*
X59299407Y-37986531D01*
X59380219Y-38067343D01*
X59461032Y-38094280D01*
X59514906Y-38094280D01*
X59595719Y-38067343D01*
X59811218Y-37851844D01*
X59003096Y-38067343D02*
X58652910Y-38417529D01*
X59056971Y-38444467D01*
X58976158Y-38525279D01*
X58949221Y-38606091D01*
X58949221Y-38659966D01*
X58976158Y-38740778D01*
X59110845Y-38875465D01*
X59191658Y-38902402D01*
X59245532Y-38902402D01*
X59326345Y-38875465D01*
X59487969Y-38713841D01*
X59514906Y-38633028D01*
X59514906Y-38579154D01*
X49651218Y-37313096D02*
X49678155Y-37232284D01*
X49758967Y-37151471D01*
X49866717Y-37097597D01*
X49974467Y-37097597D01*
X50055279Y-37124534D01*
X50189966Y-37205346D01*
X50270778Y-37286158D01*
X50351590Y-37420845D01*
X50378528Y-37501658D01*
X50378528Y-37609407D01*
X50324653Y-37717157D01*
X50270778Y-37771032D01*
X50163028Y-37824906D01*
X50109154Y-37824906D01*
X49920592Y-37636345D01*
X50028341Y-37528595D01*
X49920592Y-38121218D02*
X49354906Y-37555532D01*
X49139407Y-37771032D01*
X49112470Y-37851844D01*
X49112470Y-37905719D01*
X49139407Y-37986531D01*
X49220219Y-38067343D01*
X49301032Y-38094280D01*
X49354906Y-38094280D01*
X49435719Y-38067343D01*
X49651218Y-37851844D01*
X48681471Y-38228967D02*
X48627597Y-38282842D01*
X48600659Y-38363654D01*
X48600659Y-38417529D01*
X48627597Y-38498341D01*
X48708409Y-38633028D01*
X48843096Y-38767715D01*
X48977783Y-38848528D01*
X49058595Y-38875465D01*
X49112470Y-38875465D01*
X49193282Y-38848528D01*
X49247157Y-38794653D01*
X49274094Y-38713841D01*
X49274094Y-38659966D01*
X49247157Y-38579154D01*
X49166345Y-38444467D01*
X49031658Y-38309780D01*
X48896971Y-38228967D01*
X48816158Y-38202030D01*
X48762284Y-38202030D01*
X48681471Y-38228967D01*
X54758155Y-57071158D02*
X54785093Y-56990346D01*
X54865905Y-56909534D01*
X54973654Y-56855659D01*
X55081404Y-56855659D01*
X55162216Y-56882597D01*
X55296903Y-56963409D01*
X55377715Y-57044221D01*
X55458528Y-57178908D01*
X55485465Y-57259720D01*
X55485465Y-57367470D01*
X55431590Y-57475219D01*
X55377715Y-57529094D01*
X55269966Y-57582969D01*
X55216091Y-57582969D01*
X55027529Y-57394407D01*
X55135279Y-57286658D01*
X55027529Y-57879280D02*
X54461844Y-57313595D01*
X54704280Y-58202529D01*
X54138595Y-57636844D01*
X54434906Y-58471903D02*
X53869221Y-57906218D01*
X53734534Y-58040905D01*
X53680659Y-58148654D01*
X53680659Y-58256404D01*
X53707597Y-58337216D01*
X53788409Y-58471903D01*
X53869221Y-58552715D01*
X54003908Y-58633528D01*
X54084720Y-58660465D01*
X54192470Y-58660465D01*
X54300219Y-58606590D01*
X54434906Y-58471903D01*
X58943308Y-55372131D02*
X58593122Y-55722317D01*
X58997183Y-55749255D01*
X58916370Y-55830067D01*
X58889433Y-55910879D01*
X58889433Y-55964754D01*
X58916370Y-56045566D01*
X59051057Y-56180253D01*
X59131870Y-56207190D01*
X59185744Y-56207190D01*
X59266557Y-56180253D01*
X59428181Y-56018629D01*
X59455118Y-55937816D01*
X59455118Y-55883942D01*
X58431497Y-55883942D02*
X58808621Y-56638189D01*
X58054374Y-56261065D01*
X57919687Y-56395752D02*
X57569500Y-56745938D01*
X57973561Y-56772876D01*
X57892749Y-56853688D01*
X57865812Y-56934500D01*
X57865812Y-56988375D01*
X57892749Y-57069187D01*
X58027436Y-57203874D01*
X58108248Y-57230812D01*
X58162123Y-57230812D01*
X58242935Y-57203874D01*
X58404560Y-57042250D01*
X58431497Y-56961438D01*
X58431497Y-56907563D01*
X58081311Y-57473248D02*
X57650312Y-57904247D01*
X57165439Y-57688748D02*
X56976877Y-57877309D01*
X57192377Y-58254433D02*
X57461751Y-57985059D01*
X56896065Y-57419374D01*
X56626691Y-57688748D01*
X56949940Y-58496870D02*
X56384255Y-57931184D01*
X56626691Y-58820118D01*
X56061006Y-58254433D01*
X95640592Y-56193722D02*
X95667529Y-56112910D01*
X95748341Y-56032097D01*
X95856091Y-55978223D01*
X95963841Y-55978223D01*
X96044653Y-56005160D01*
X96179340Y-56085972D01*
X96260152Y-56166784D01*
X96340964Y-56301471D01*
X96367902Y-56382284D01*
X96367902Y-56490033D01*
X96314027Y-56597783D01*
X96260152Y-56651658D01*
X96152402Y-56705532D01*
X96098528Y-56705532D01*
X95909966Y-56516971D01*
X96017715Y-56409221D01*
X95909966Y-57001844D02*
X95344280Y-56436158D01*
X95128781Y-56651658D01*
X95101844Y-56732470D01*
X95101844Y-56786345D01*
X95128781Y-56867157D01*
X95209593Y-56947969D01*
X95290406Y-56974906D01*
X95344280Y-56974906D01*
X95425093Y-56947969D01*
X95640592Y-56732470D01*
X95047969Y-57863841D02*
X95371218Y-57540592D01*
X95209593Y-57702216D02*
X94643908Y-57136531D01*
X94778595Y-57163468D01*
X94886345Y-57163468D01*
X94967157Y-57136531D01*
X94293722Y-57486717D02*
X93916598Y-57863841D01*
X94724720Y-58187089D01*
X88020592Y-36643722D02*
X88047529Y-36562910D01*
X88128341Y-36482097D01*
X88236091Y-36428223D01*
X88343841Y-36428223D01*
X88424653Y-36455160D01*
X88559340Y-36535972D01*
X88640152Y-36616784D01*
X88720964Y-36751471D01*
X88747902Y-36832284D01*
X88747902Y-36940033D01*
X88694027Y-37047783D01*
X88640152Y-37101658D01*
X88532402Y-37155532D01*
X88478528Y-37155532D01*
X88289966Y-36966971D01*
X88397715Y-36859221D01*
X88289966Y-37451844D02*
X87724280Y-36886158D01*
X87508781Y-37101658D01*
X87481844Y-37182470D01*
X87481844Y-37236345D01*
X87508781Y-37317157D01*
X87589593Y-37397969D01*
X87670406Y-37424906D01*
X87724280Y-37424906D01*
X87805093Y-37397969D01*
X88020592Y-37182470D01*
X87427969Y-38313841D02*
X87751218Y-37990592D01*
X87589593Y-38152216D02*
X87023908Y-37586531D01*
X87158595Y-37613468D01*
X87266345Y-37613468D01*
X87347157Y-37586531D01*
X86700659Y-38017529D02*
X86646784Y-38017529D01*
X86565972Y-38044467D01*
X86431285Y-38179154D01*
X86404348Y-38259966D01*
X86404348Y-38313841D01*
X86431285Y-38394653D01*
X86485160Y-38448528D01*
X86592910Y-38502402D01*
X87239407Y-38502402D01*
X86889221Y-38852589D01*
X95640592Y-36743722D02*
X95667529Y-36662910D01*
X95748341Y-36582097D01*
X95856091Y-36528223D01*
X95963841Y-36528223D01*
X96044653Y-36555160D01*
X96179340Y-36635972D01*
X96260152Y-36716784D01*
X96340964Y-36851471D01*
X96367902Y-36932284D01*
X96367902Y-37040033D01*
X96314027Y-37147783D01*
X96260152Y-37201658D01*
X96152402Y-37255532D01*
X96098528Y-37255532D01*
X95909966Y-37066971D01*
X96017715Y-36959221D01*
X95909966Y-37551844D02*
X95344280Y-36986158D01*
X95128781Y-37201658D01*
X95101844Y-37282470D01*
X95101844Y-37336345D01*
X95128781Y-37417157D01*
X95209593Y-37497969D01*
X95290406Y-37524906D01*
X95344280Y-37524906D01*
X95425093Y-37497969D01*
X95640592Y-37282470D01*
X95047969Y-38413841D02*
X95371218Y-38090592D01*
X95209593Y-38252216D02*
X94643908Y-37686531D01*
X94778595Y-37713468D01*
X94886345Y-37713468D01*
X94967157Y-37686531D01*
X94185972Y-38521590D02*
X94563096Y-38898714D01*
X94105160Y-38171404D02*
X94643908Y-38440778D01*
X94293722Y-38790964D01*
X85480592Y-56193722D02*
X85507529Y-56112910D01*
X85588341Y-56032097D01*
X85696091Y-55978223D01*
X85803841Y-55978223D01*
X85884653Y-56005160D01*
X86019340Y-56085972D01*
X86100152Y-56166784D01*
X86180964Y-56301471D01*
X86207902Y-56382284D01*
X86207902Y-56490033D01*
X86154027Y-56597783D01*
X86100152Y-56651658D01*
X85992402Y-56705532D01*
X85938528Y-56705532D01*
X85749966Y-56516971D01*
X85857715Y-56409221D01*
X85749966Y-57001844D02*
X85184280Y-56436158D01*
X84968781Y-56651658D01*
X84941844Y-56732470D01*
X84941844Y-56786345D01*
X84968781Y-56867157D01*
X85049593Y-56947969D01*
X85130406Y-56974906D01*
X85184280Y-56974906D01*
X85265093Y-56947969D01*
X85480592Y-56732470D01*
X84699407Y-57028781D02*
X84645532Y-57028781D01*
X84564720Y-57055719D01*
X84430033Y-57190406D01*
X84403096Y-57271218D01*
X84403096Y-57325093D01*
X84430033Y-57405905D01*
X84483908Y-57459780D01*
X84591658Y-57513654D01*
X85238155Y-57513654D01*
X84887969Y-57863841D01*
X83972097Y-57648341D02*
X83918223Y-57702216D01*
X83891285Y-57783028D01*
X83891285Y-57836903D01*
X83918223Y-57917715D01*
X83999035Y-58052402D01*
X84133722Y-58187089D01*
X84268409Y-58267902D01*
X84349221Y-58294839D01*
X84403096Y-58294839D01*
X84483908Y-58267902D01*
X84537783Y-58214027D01*
X84564720Y-58133215D01*
X84564720Y-58079340D01*
X84537783Y-57998528D01*
X84456971Y-57863841D01*
X84322284Y-57729154D01*
X84187597Y-57648341D01*
X84106784Y-57621404D01*
X84052910Y-57621404D01*
X83972097Y-57648341D01*
X62351218Y-37313096D02*
X62378155Y-37232284D01*
X62458967Y-37151471D01*
X62566717Y-37097597D01*
X62674467Y-37097597D01*
X62755279Y-37124534D01*
X62889966Y-37205346D01*
X62970778Y-37286158D01*
X63051590Y-37420845D01*
X63078528Y-37501658D01*
X63078528Y-37609407D01*
X63024653Y-37717157D01*
X62970778Y-37771032D01*
X62863028Y-37824906D01*
X62809154Y-37824906D01*
X62620592Y-37636345D01*
X62728341Y-37528595D01*
X62620592Y-38121218D02*
X62054906Y-37555532D01*
X61839407Y-37771032D01*
X61812470Y-37851844D01*
X61812470Y-37905719D01*
X61839407Y-37986531D01*
X61920219Y-38067343D01*
X62001032Y-38094280D01*
X62054906Y-38094280D01*
X62135719Y-38067343D01*
X62351218Y-37851844D01*
X61435346Y-38552216D02*
X61812470Y-38929340D01*
X61354534Y-38202030D02*
X61893282Y-38471404D01*
X61543096Y-38821590D01*
X67458155Y-37286158D02*
X67485093Y-37205346D01*
X67565905Y-37124534D01*
X67673654Y-37070659D01*
X67781404Y-37070659D01*
X67862216Y-37097597D01*
X67996903Y-37178409D01*
X68077715Y-37259221D01*
X68158528Y-37393908D01*
X68185465Y-37474720D01*
X68185465Y-37582470D01*
X68131590Y-37690219D01*
X68077715Y-37744094D01*
X67969966Y-37797969D01*
X67916091Y-37797969D01*
X67727529Y-37609407D01*
X67835279Y-37501658D01*
X67727529Y-38094280D02*
X67161844Y-37528595D01*
X67404280Y-38417529D01*
X66838595Y-37851844D01*
X67134906Y-38686903D02*
X66569221Y-38121218D01*
X66434534Y-38255905D01*
X66380659Y-38363654D01*
X66380659Y-38471404D01*
X66407597Y-38552216D01*
X66488409Y-38686903D01*
X66569221Y-38767715D01*
X66703908Y-38848528D01*
X66784720Y-38875465D01*
X66892470Y-38875465D01*
X67000219Y-38821590D01*
X67134906Y-38686903D01*
X80158155Y-37286158D02*
X80185093Y-37205346D01*
X80265905Y-37124534D01*
X80373654Y-37070659D01*
X80481404Y-37070659D01*
X80562216Y-37097597D01*
X80696903Y-37178409D01*
X80777715Y-37259221D01*
X80858528Y-37393908D01*
X80885465Y-37474720D01*
X80885465Y-37582470D01*
X80831590Y-37690219D01*
X80777715Y-37744094D01*
X80669966Y-37797969D01*
X80616091Y-37797969D01*
X80427529Y-37609407D01*
X80535279Y-37501658D01*
X80427529Y-38094280D02*
X79861844Y-37528595D01*
X80104280Y-38417529D01*
X79538595Y-37851844D01*
X79834906Y-38686903D02*
X79269221Y-38121218D01*
X79134534Y-38255905D01*
X79080659Y-38363654D01*
X79080659Y-38471404D01*
X79107597Y-38552216D01*
X79188409Y-38686903D01*
X79269221Y-38767715D01*
X79403908Y-38848528D01*
X79484720Y-38875465D01*
X79592470Y-38875465D01*
X79700219Y-38821590D01*
X79834906Y-38686903D01*
X70240592Y-56193722D02*
X70267529Y-56112910D01*
X70348341Y-56032097D01*
X70456091Y-55978223D01*
X70563841Y-55978223D01*
X70644653Y-56005160D01*
X70779340Y-56085972D01*
X70860152Y-56166784D01*
X70940964Y-56301471D01*
X70967902Y-56382284D01*
X70967902Y-56490033D01*
X70914027Y-56597783D01*
X70860152Y-56651658D01*
X70752402Y-56705532D01*
X70698528Y-56705532D01*
X70509966Y-56516971D01*
X70617715Y-56409221D01*
X70509966Y-57001844D02*
X69944280Y-56436158D01*
X69728781Y-56651658D01*
X69701844Y-56732470D01*
X69701844Y-56786345D01*
X69728781Y-56867157D01*
X69809593Y-56947969D01*
X69890406Y-56974906D01*
X69944280Y-56974906D01*
X70025093Y-56947969D01*
X70240592Y-56732470D01*
X69459407Y-57028781D02*
X69405532Y-57028781D01*
X69324720Y-57055719D01*
X69190033Y-57190406D01*
X69163096Y-57271218D01*
X69163096Y-57325093D01*
X69190033Y-57405905D01*
X69243908Y-57459780D01*
X69351658Y-57513654D01*
X69998155Y-57513654D01*
X69647969Y-57863841D01*
X68893722Y-57486717D02*
X68516598Y-57863841D01*
X69324720Y-58187089D01*
X90560592Y-36789722D02*
X90587529Y-36708910D01*
X90668341Y-36628097D01*
X90776091Y-36574223D01*
X90883841Y-36574223D01*
X90964653Y-36601160D01*
X91099340Y-36681972D01*
X91180152Y-36762784D01*
X91260964Y-36897471D01*
X91287902Y-36978284D01*
X91287902Y-37086033D01*
X91234027Y-37193783D01*
X91180152Y-37247658D01*
X91072402Y-37301532D01*
X91018528Y-37301532D01*
X90829966Y-37112971D01*
X90937715Y-37005221D01*
X90829966Y-37597844D02*
X90264280Y-37032158D01*
X90048781Y-37247658D01*
X90021844Y-37328470D01*
X90021844Y-37382345D01*
X90048781Y-37463157D01*
X90129593Y-37543969D01*
X90210406Y-37570906D01*
X90264280Y-37570906D01*
X90345093Y-37543969D01*
X90560592Y-37328470D01*
X89967969Y-38459841D02*
X90291218Y-38136592D01*
X90129593Y-38298216D02*
X89563908Y-37732531D01*
X89698595Y-37759468D01*
X89806345Y-37759468D01*
X89887157Y-37732531D01*
X89213722Y-38082717D02*
X88863536Y-38432903D01*
X89267597Y-38459841D01*
X89186784Y-38540653D01*
X89159847Y-38621465D01*
X89159847Y-38675340D01*
X89186784Y-38756152D01*
X89321471Y-38890839D01*
X89402284Y-38917776D01*
X89456158Y-38917776D01*
X89536971Y-38890839D01*
X89698595Y-38729215D01*
X89725532Y-38648402D01*
X89725532Y-38594528D01*
X68400964Y-56247597D02*
X68131590Y-56516971D01*
X68616463Y-56355346D02*
X67862216Y-55978223D01*
X68239340Y-56732470D01*
X67215719Y-56678595D02*
X67242656Y-56597783D01*
X67323468Y-56516971D01*
X67431218Y-56463096D01*
X67538967Y-56463096D01*
X67619780Y-56490033D01*
X67754467Y-56570845D01*
X67835279Y-56651658D01*
X67916091Y-56786345D01*
X67943028Y-56867157D01*
X67943028Y-56974906D01*
X67889154Y-57082656D01*
X67835279Y-57136531D01*
X67727529Y-57190406D01*
X67673654Y-57190406D01*
X67485093Y-57001844D01*
X67592842Y-56894094D01*
X67485093Y-57486717D02*
X66919407Y-56921032D01*
X67161844Y-57809966D01*
X66596158Y-57244280D01*
X66892470Y-58079340D02*
X66326784Y-57513654D01*
X66192097Y-57648341D01*
X66138223Y-57756091D01*
X66138223Y-57863841D01*
X66165160Y-57944653D01*
X66245972Y-58079340D01*
X66326784Y-58160152D01*
X66461471Y-58240964D01*
X66542284Y-58267902D01*
X66650033Y-58267902D01*
X66757783Y-58214027D01*
X66892470Y-58079340D01*
X65160592Y-63178722D02*
X65187529Y-63097910D01*
X65268341Y-63017097D01*
X65376091Y-62963223D01*
X65483841Y-62963223D01*
X65564653Y-62990160D01*
X65699340Y-63070972D01*
X65780152Y-63151784D01*
X65860964Y-63286471D01*
X65887902Y-63367284D01*
X65887902Y-63475033D01*
X65834027Y-63582783D01*
X65780152Y-63636658D01*
X65672402Y-63690532D01*
X65618528Y-63690532D01*
X65429966Y-63501971D01*
X65537715Y-63394221D01*
X65429966Y-63986844D02*
X64864280Y-63421158D01*
X64648781Y-63636658D01*
X64621844Y-63717470D01*
X64621844Y-63771345D01*
X64648781Y-63852157D01*
X64729593Y-63932969D01*
X64810406Y-63959906D01*
X64864280Y-63959906D01*
X64945093Y-63932969D01*
X65160592Y-63717470D01*
X64379407Y-64013781D02*
X64325532Y-64013781D01*
X64244720Y-64040719D01*
X64110033Y-64175406D01*
X64083096Y-64256218D01*
X64083096Y-64310093D01*
X64110033Y-64390905D01*
X64163908Y-64444780D01*
X64271658Y-64498654D01*
X64918155Y-64498654D01*
X64567969Y-64848841D01*
X63921471Y-64848841D02*
X63948409Y-64768028D01*
X63948409Y-64714154D01*
X63921471Y-64633341D01*
X63894534Y-64606404D01*
X63813722Y-64579467D01*
X63759847Y-64579467D01*
X63679035Y-64606404D01*
X63571285Y-64714154D01*
X63544348Y-64794966D01*
X63544348Y-64848841D01*
X63571285Y-64929653D01*
X63598223Y-64956590D01*
X63679035Y-64983528D01*
X63732910Y-64983528D01*
X63813722Y-64956590D01*
X63921471Y-64848841D01*
X64002284Y-64821903D01*
X64056158Y-64821903D01*
X64136971Y-64848841D01*
X64244720Y-64956590D01*
X64271658Y-65037402D01*
X64271658Y-65091277D01*
X64244720Y-65172089D01*
X64136971Y-65279839D01*
X64056158Y-65306776D01*
X64002284Y-65306776D01*
X63921471Y-65279839D01*
X63813722Y-65172089D01*
X63786784Y-65091277D01*
X63786784Y-65037402D01*
X63813722Y-64956590D01*
X62993773Y-62924788D02*
X62724399Y-63194162D01*
X63209272Y-63032537D02*
X62455025Y-62655414D01*
X62832149Y-63409661D01*
X62643587Y-63598223D02*
X62077902Y-63032537D01*
X61943215Y-63167224D01*
X61889340Y-63274974D01*
X61889340Y-63382723D01*
X61916277Y-63463536D01*
X61997089Y-63598223D01*
X62077902Y-63679035D01*
X62212589Y-63759847D01*
X62293401Y-63786784D01*
X62401150Y-63786784D01*
X62508900Y-63732910D01*
X62643587Y-63598223D01*
X61700778Y-64433282D02*
X61754653Y-64433282D01*
X61862402Y-64379407D01*
X61916277Y-64325532D01*
X61970152Y-64217783D01*
X61970152Y-64110033D01*
X61943215Y-64029221D01*
X61862402Y-63894534D01*
X61781590Y-63813722D01*
X61646903Y-63732910D01*
X61566091Y-63705972D01*
X61458341Y-63705972D01*
X61350592Y-63759847D01*
X61296717Y-63813722D01*
X61242842Y-63921471D01*
X61242842Y-63975346D01*
X61700778Y-64648781D02*
X61269780Y-65079780D01*
X60596345Y-64514094D02*
X60973468Y-65268341D01*
X60219221Y-64891218D01*
X60273096Y-65968714D02*
X60192284Y-65510778D01*
X60596345Y-65645465D02*
X60030659Y-65079780D01*
X59815160Y-65295279D01*
X59788223Y-65376091D01*
X59788223Y-65429966D01*
X59815160Y-65510778D01*
X59895972Y-65591590D01*
X59976784Y-65618528D01*
X60030659Y-65618528D01*
X60111471Y-65591590D01*
X60326971Y-65376091D01*
X59734348Y-65914839D02*
X59545786Y-66103401D01*
X59761285Y-66480524D02*
X60030659Y-66211150D01*
X59464974Y-65645465D01*
X59195600Y-65914839D01*
X59033975Y-66615211D02*
X59222537Y-66426650D01*
X59518849Y-66722961D02*
X58953163Y-66157276D01*
X58683789Y-66426650D01*
X52729966Y-62720473D02*
X53107089Y-63474720D01*
X52352842Y-63097597D01*
X52729966Y-63797969D02*
X52676091Y-63905719D01*
X52541404Y-64040406D01*
X52460592Y-64067343D01*
X52406717Y-64067343D01*
X52325905Y-64040406D01*
X52272030Y-63986531D01*
X52245093Y-63905719D01*
X52245093Y-63851844D01*
X52272030Y-63771032D01*
X52352842Y-63636345D01*
X52379780Y-63555532D01*
X52379780Y-63501658D01*
X52352842Y-63420845D01*
X52298967Y-63366971D01*
X52218155Y-63340033D01*
X52164280Y-63340033D01*
X52083468Y-63366971D01*
X51948781Y-63501658D01*
X51894906Y-63609407D01*
X51814094Y-64228967D02*
X52083468Y-64498341D01*
X51706345Y-63744094D02*
X51814094Y-64228967D01*
X51329221Y-64121218D01*
X51706345Y-64821590D02*
X51652470Y-64929340D01*
X51517783Y-65064027D01*
X51436971Y-65090964D01*
X51383096Y-65090964D01*
X51302284Y-65064027D01*
X51248409Y-65010152D01*
X51221471Y-64929340D01*
X51221471Y-64875465D01*
X51248409Y-64794653D01*
X51329221Y-64659966D01*
X51356158Y-64579154D01*
X51356158Y-64525279D01*
X51329221Y-64444467D01*
X51275346Y-64390592D01*
X51194534Y-64363654D01*
X51140659Y-64363654D01*
X51059847Y-64390592D01*
X50925160Y-64525279D01*
X50871285Y-64633028D01*
X98180592Y-36789722D02*
X98207529Y-36708910D01*
X98288341Y-36628097D01*
X98396091Y-36574223D01*
X98503841Y-36574223D01*
X98584653Y-36601160D01*
X98719340Y-36681972D01*
X98800152Y-36762784D01*
X98880964Y-36897471D01*
X98907902Y-36978284D01*
X98907902Y-37086033D01*
X98854027Y-37193783D01*
X98800152Y-37247658D01*
X98692402Y-37301532D01*
X98638528Y-37301532D01*
X98449966Y-37112971D01*
X98557715Y-37005221D01*
X98449966Y-37597844D02*
X97884280Y-37032158D01*
X97668781Y-37247658D01*
X97641844Y-37328470D01*
X97641844Y-37382345D01*
X97668781Y-37463157D01*
X97749593Y-37543969D01*
X97830406Y-37570906D01*
X97884280Y-37570906D01*
X97965093Y-37543969D01*
X98180592Y-37328470D01*
X97587969Y-38459841D02*
X97911218Y-38136592D01*
X97749593Y-38298216D02*
X97183908Y-37732531D01*
X97318595Y-37759468D01*
X97426345Y-37759468D01*
X97507157Y-37732531D01*
X96510473Y-38405966D02*
X96779847Y-38136592D01*
X97076158Y-38379028D01*
X97022284Y-38379028D01*
X96941471Y-38405966D01*
X96806784Y-38540653D01*
X96779847Y-38621465D01*
X96779847Y-38675340D01*
X96806784Y-38756152D01*
X96941471Y-38890839D01*
X97022284Y-38917776D01*
X97076158Y-38917776D01*
X97156971Y-38890839D01*
X97291658Y-38756152D01*
X97318595Y-38675340D01*
X97318595Y-38621465D01*
X100183809Y-54704761D02*
X100221904Y-54819047D01*
X100221904Y-55009523D01*
X100183809Y-55085714D01*
X100145714Y-55123809D01*
X100069523Y-55161904D01*
X99993333Y-55161904D01*
X99917142Y-55123809D01*
X99879047Y-55085714D01*
X99840952Y-55009523D01*
X99802857Y-54857142D01*
X99764761Y-54780952D01*
X99726666Y-54742857D01*
X99650476Y-54704761D01*
X99574285Y-54704761D01*
X99498095Y-54742857D01*
X99460000Y-54780952D01*
X99421904Y-54857142D01*
X99421904Y-55047619D01*
X99460000Y-55161904D01*
X99421904Y-55428571D02*
X100221904Y-55619047D01*
X99650476Y-55771428D01*
X100221904Y-55923809D01*
X99421904Y-56114285D01*
X100221904Y-56419047D02*
X99421904Y-56419047D01*
X99421904Y-56609523D01*
X99460000Y-56723809D01*
X99536190Y-56800000D01*
X99612380Y-56838095D01*
X99764761Y-56876190D01*
X99879047Y-56876190D01*
X100031428Y-56838095D01*
X100107619Y-56800000D01*
X100183809Y-56723809D01*
X100221904Y-56609523D01*
X100221904Y-56419047D01*
X100221904Y-57219047D02*
X99421904Y-57219047D01*
X99421904Y-57752380D02*
X99421904Y-57904761D01*
X99460000Y-57980952D01*
X99536190Y-58057142D01*
X99688571Y-58095238D01*
X99955238Y-58095238D01*
X100107619Y-58057142D01*
X100183809Y-57980952D01*
X100221904Y-57904761D01*
X100221904Y-57752380D01*
X100183809Y-57676190D01*
X100107619Y-57600000D01*
X99955238Y-57561904D01*
X99688571Y-57561904D01*
X99536190Y-57600000D01*
X99460000Y-57676190D01*
X99421904Y-57752380D01*
X50187309Y-62753129D02*
X50564433Y-63507377D01*
X49810186Y-63130253D01*
X49702436Y-63776751D02*
X49648561Y-63884500D01*
X49648561Y-63938375D01*
X49675499Y-64019187D01*
X49756311Y-64099999D01*
X49837123Y-64126937D01*
X49890998Y-64126937D01*
X49971810Y-64100000D01*
X50187309Y-63884500D01*
X49621624Y-63318815D01*
X49433062Y-63507377D01*
X49406125Y-63588189D01*
X49406125Y-63642064D01*
X49433062Y-63722876D01*
X49486937Y-63776751D01*
X49567749Y-63803688D01*
X49621624Y-63803688D01*
X49702436Y-63776751D01*
X49890998Y-63588189D01*
X49055938Y-63884500D02*
X49513874Y-64342436D01*
X49540812Y-64423248D01*
X49540812Y-64477123D01*
X49513874Y-64557935D01*
X49406125Y-64665685D01*
X49325312Y-64692622D01*
X49271438Y-64692622D01*
X49190625Y-64665685D01*
X48732690Y-64207749D01*
X49029001Y-64988934D02*
X48975126Y-65096683D01*
X48840439Y-65231370D01*
X48759627Y-65258308D01*
X48705752Y-65258308D01*
X48624940Y-65231370D01*
X48571065Y-65177496D01*
X48544128Y-65096683D01*
X48544128Y-65042809D01*
X48571065Y-64961996D01*
X48651877Y-64827309D01*
X48678815Y-64746497D01*
X48678815Y-64692622D01*
X48651877Y-64611810D01*
X48598003Y-64557935D01*
X48517190Y-64530998D01*
X48463316Y-64530998D01*
X48382503Y-64557935D01*
X48247816Y-64692622D01*
X48193942Y-64800372D01*
X92858155Y-37286158D02*
X92885093Y-37205346D01*
X92965905Y-37124534D01*
X93073654Y-37070659D01*
X93181404Y-37070659D01*
X93262216Y-37097597D01*
X93396903Y-37178409D01*
X93477715Y-37259221D01*
X93558528Y-37393908D01*
X93585465Y-37474720D01*
X93585465Y-37582470D01*
X93531590Y-37690219D01*
X93477715Y-37744094D01*
X93369966Y-37797969D01*
X93316091Y-37797969D01*
X93127529Y-37609407D01*
X93235279Y-37501658D01*
X93127529Y-38094280D02*
X92561844Y-37528595D01*
X92804280Y-38417529D01*
X92238595Y-37851844D01*
X92534906Y-38686903D02*
X91969221Y-38121218D01*
X91834534Y-38255905D01*
X91780659Y-38363654D01*
X91780659Y-38471404D01*
X91807597Y-38552216D01*
X91888409Y-38686903D01*
X91969221Y-38767715D01*
X92103908Y-38848528D01*
X92184720Y-38875465D01*
X92292470Y-38875465D01*
X92400219Y-38821590D01*
X92534906Y-38686903D01*
X80158155Y-57071158D02*
X80185093Y-56990346D01*
X80265905Y-56909534D01*
X80373654Y-56855659D01*
X80481404Y-56855659D01*
X80562216Y-56882597D01*
X80696903Y-56963409D01*
X80777715Y-57044221D01*
X80858528Y-57178908D01*
X80885465Y-57259720D01*
X80885465Y-57367470D01*
X80831590Y-57475219D01*
X80777715Y-57529094D01*
X80669966Y-57582969D01*
X80616091Y-57582969D01*
X80427529Y-57394407D01*
X80535279Y-57286658D01*
X80427529Y-57879280D02*
X79861844Y-57313595D01*
X80104280Y-58202529D01*
X79538595Y-57636844D01*
X79834906Y-58471903D02*
X79269221Y-57906218D01*
X79134534Y-58040905D01*
X79080659Y-58148654D01*
X79080659Y-58256404D01*
X79107597Y-58337216D01*
X79188409Y-58471903D01*
X79269221Y-58552715D01*
X79403908Y-58633528D01*
X79484720Y-58660465D01*
X79592470Y-58660465D01*
X79700219Y-58606590D01*
X79834906Y-58471903D01*
X75603435Y-57623375D02*
X75522622Y-57165439D01*
X75926683Y-57300126D02*
X75360998Y-56734441D01*
X75145499Y-56949940D01*
X75118561Y-57030752D01*
X75118561Y-57084627D01*
X75145499Y-57165439D01*
X75226311Y-57246251D01*
X75307123Y-57273189D01*
X75360998Y-57273189D01*
X75441810Y-57246251D01*
X75657309Y-57030752D01*
X74795312Y-57300126D02*
X75253248Y-57758062D01*
X75280186Y-57838874D01*
X75280186Y-57892749D01*
X75253248Y-57973561D01*
X75145499Y-58081311D01*
X75064687Y-58108248D01*
X75010812Y-58108248D01*
X74930000Y-58081311D01*
X74472064Y-57623375D01*
X74768375Y-58458435D02*
X74202690Y-57892749D01*
X74445126Y-58781683D01*
X73879441Y-58215998D01*
X98180592Y-56193722D02*
X98207529Y-56112910D01*
X98288341Y-56032097D01*
X98396091Y-55978223D01*
X98503841Y-55978223D01*
X98584653Y-56005160D01*
X98719340Y-56085972D01*
X98800152Y-56166784D01*
X98880964Y-56301471D01*
X98907902Y-56382284D01*
X98907902Y-56490033D01*
X98854027Y-56597783D01*
X98800152Y-56651658D01*
X98692402Y-56705532D01*
X98638528Y-56705532D01*
X98449966Y-56516971D01*
X98557715Y-56409221D01*
X98449966Y-57001844D02*
X97884280Y-56436158D01*
X97668781Y-56651658D01*
X97641844Y-56732470D01*
X97641844Y-56786345D01*
X97668781Y-56867157D01*
X97749593Y-56947969D01*
X97830406Y-56974906D01*
X97884280Y-56974906D01*
X97965093Y-56947969D01*
X98180592Y-56732470D01*
X97587969Y-57863841D02*
X97911218Y-57540592D01*
X97749593Y-57702216D02*
X97183908Y-57136531D01*
X97318595Y-57163468D01*
X97426345Y-57163468D01*
X97507157Y-57136531D01*
X96537410Y-57783028D02*
X96645160Y-57675279D01*
X96725972Y-57648341D01*
X96779847Y-57648341D01*
X96914534Y-57675279D01*
X97049221Y-57756091D01*
X97264720Y-57971590D01*
X97291658Y-58052402D01*
X97291658Y-58106277D01*
X97264720Y-58187089D01*
X97156971Y-58294839D01*
X97076158Y-58321776D01*
X97022284Y-58321776D01*
X96941471Y-58294839D01*
X96806784Y-58160152D01*
X96779847Y-58079340D01*
X96779847Y-58025465D01*
X96806784Y-57944653D01*
X96914534Y-57836903D01*
X96995346Y-57809966D01*
X97049221Y-57809966D01*
X97130033Y-57836903D01*
X82940592Y-56193722D02*
X82967529Y-56112910D01*
X83048341Y-56032097D01*
X83156091Y-55978223D01*
X83263841Y-55978223D01*
X83344653Y-56005160D01*
X83479340Y-56085972D01*
X83560152Y-56166784D01*
X83640964Y-56301471D01*
X83667902Y-56382284D01*
X83667902Y-56490033D01*
X83614027Y-56597783D01*
X83560152Y-56651658D01*
X83452402Y-56705532D01*
X83398528Y-56705532D01*
X83209966Y-56516971D01*
X83317715Y-56409221D01*
X83209966Y-57001844D02*
X82644280Y-56436158D01*
X82428781Y-56651658D01*
X82401844Y-56732470D01*
X82401844Y-56786345D01*
X82428781Y-56867157D01*
X82509593Y-56947969D01*
X82590406Y-56974906D01*
X82644280Y-56974906D01*
X82725093Y-56947969D01*
X82940592Y-56732470D01*
X82159407Y-57028781D02*
X82105532Y-57028781D01*
X82024720Y-57055719D01*
X81890033Y-57190406D01*
X81863096Y-57271218D01*
X81863096Y-57325093D01*
X81890033Y-57405905D01*
X81943908Y-57459780D01*
X82051658Y-57513654D01*
X82698155Y-57513654D01*
X82347969Y-57863841D01*
X81809221Y-58402589D02*
X82132470Y-58079340D01*
X81970845Y-58240964D02*
X81405160Y-57675279D01*
X81539847Y-57702216D01*
X81647597Y-57702216D01*
X81728409Y-57675279D01*
X60080592Y-62489847D02*
X59730406Y-62840033D01*
X60134467Y-62866971D01*
X60053654Y-62947783D01*
X60026717Y-63028595D01*
X60026717Y-63082470D01*
X60053654Y-63163282D01*
X60188341Y-63297969D01*
X60269154Y-63324906D01*
X60323028Y-63324906D01*
X60403841Y-63297969D01*
X60565465Y-63136345D01*
X60592402Y-63055532D01*
X60592402Y-63001658D01*
X59568781Y-63001658D02*
X59945905Y-63755905D01*
X59191658Y-63378781D01*
X59056971Y-63513468D02*
X58706784Y-63863654D01*
X59110845Y-63890592D01*
X59030033Y-63971404D01*
X59003096Y-64052216D01*
X59003096Y-64106091D01*
X59030033Y-64186903D01*
X59164720Y-64321590D01*
X59245532Y-64348528D01*
X59299407Y-64348528D01*
X59380219Y-64321590D01*
X59541844Y-64159966D01*
X59568781Y-64079154D01*
X59568781Y-64025279D01*
X88020592Y-56193722D02*
X88047529Y-56112910D01*
X88128341Y-56032097D01*
X88236091Y-55978223D01*
X88343841Y-55978223D01*
X88424653Y-56005160D01*
X88559340Y-56085972D01*
X88640152Y-56166784D01*
X88720964Y-56301471D01*
X88747902Y-56382284D01*
X88747902Y-56490033D01*
X88694027Y-56597783D01*
X88640152Y-56651658D01*
X88532402Y-56705532D01*
X88478528Y-56705532D01*
X88289966Y-56516971D01*
X88397715Y-56409221D01*
X88289966Y-57001844D02*
X87724280Y-56436158D01*
X87508781Y-56651658D01*
X87481844Y-56732470D01*
X87481844Y-56786345D01*
X87508781Y-56867157D01*
X87589593Y-56947969D01*
X87670406Y-56974906D01*
X87724280Y-56974906D01*
X87805093Y-56947969D01*
X88020592Y-56732470D01*
X87427969Y-57863841D02*
X87751218Y-57540592D01*
X87589593Y-57702216D02*
X87023908Y-57136531D01*
X87158595Y-57163468D01*
X87266345Y-57163468D01*
X87347157Y-57136531D01*
X87158595Y-58133215D02*
X87050845Y-58240964D01*
X86970033Y-58267902D01*
X86916158Y-58267902D01*
X86781471Y-58240964D01*
X86646784Y-58160152D01*
X86431285Y-57944653D01*
X86404348Y-57863841D01*
X86404348Y-57809966D01*
X86431285Y-57729154D01*
X86539035Y-57621404D01*
X86619847Y-57594467D01*
X86673722Y-57594467D01*
X86754534Y-57621404D01*
X86889221Y-57756091D01*
X86916158Y-57836903D01*
X86916158Y-57890778D01*
X86889221Y-57971590D01*
X86781471Y-58079340D01*
X86700659Y-58106277D01*
X86646784Y-58106277D01*
X86565972Y-58079340D01*
X54758155Y-37286158D02*
X54785093Y-37205346D01*
X54865905Y-37124534D01*
X54973654Y-37070659D01*
X55081404Y-37070659D01*
X55162216Y-37097597D01*
X55296903Y-37178409D01*
X55377715Y-37259221D01*
X55458528Y-37393908D01*
X55485465Y-37474720D01*
X55485465Y-37582470D01*
X55431590Y-37690219D01*
X55377715Y-37744094D01*
X55269966Y-37797969D01*
X55216091Y-37797969D01*
X55027529Y-37609407D01*
X55135279Y-37501658D01*
X55027529Y-38094280D02*
X54461844Y-37528595D01*
X54704280Y-38417529D01*
X54138595Y-37851844D01*
X54434906Y-38686903D02*
X53869221Y-38121218D01*
X53734534Y-38255905D01*
X53680659Y-38363654D01*
X53680659Y-38471404D01*
X53707597Y-38552216D01*
X53788409Y-38686903D01*
X53869221Y-38767715D01*
X54003908Y-38848528D01*
X54084720Y-38875465D01*
X54192470Y-38875465D01*
X54300219Y-38821590D01*
X54434906Y-38686903D01*
X100183809Y-43290476D02*
X100221904Y-43404761D01*
X100221904Y-43595238D01*
X100183809Y-43671428D01*
X100145714Y-43709523D01*
X100069523Y-43747619D01*
X99993333Y-43747619D01*
X99917142Y-43709523D01*
X99879047Y-43671428D01*
X99840952Y-43595238D01*
X99802857Y-43442857D01*
X99764761Y-43366666D01*
X99726666Y-43328571D01*
X99650476Y-43290476D01*
X99574285Y-43290476D01*
X99498095Y-43328571D01*
X99460000Y-43366666D01*
X99421904Y-43442857D01*
X99421904Y-43633333D01*
X99460000Y-43747619D01*
X99421904Y-44014285D02*
X100221904Y-44204761D01*
X99650476Y-44357142D01*
X100221904Y-44509523D01*
X99421904Y-44700000D01*
X100145714Y-45461904D02*
X100183809Y-45423809D01*
X100221904Y-45309523D01*
X100221904Y-45233333D01*
X100183809Y-45119047D01*
X100107619Y-45042857D01*
X100031428Y-45004761D01*
X99879047Y-44966666D01*
X99764761Y-44966666D01*
X99612380Y-45004761D01*
X99536190Y-45042857D01*
X99460000Y-45119047D01*
X99421904Y-45233333D01*
X99421904Y-45309523D01*
X99460000Y-45423809D01*
X99498095Y-45461904D01*
X100221904Y-46185714D02*
X100221904Y-45804761D01*
X99421904Y-45804761D01*
X100221904Y-46452380D02*
X99421904Y-46452380D01*
X100221904Y-46909523D02*
X99764761Y-46566666D01*
X99421904Y-46909523D02*
X99879047Y-46452380D01*
X64891218Y-37313096D02*
X64918155Y-37232284D01*
X64998967Y-37151471D01*
X65106717Y-37097597D01*
X65214467Y-37097597D01*
X65295279Y-37124534D01*
X65429966Y-37205346D01*
X65510778Y-37286158D01*
X65591590Y-37420845D01*
X65618528Y-37501658D01*
X65618528Y-37609407D01*
X65564653Y-37717157D01*
X65510778Y-37771032D01*
X65403028Y-37824906D01*
X65349154Y-37824906D01*
X65160592Y-37636345D01*
X65268341Y-37528595D01*
X65160592Y-38121218D02*
X64594906Y-37555532D01*
X64379407Y-37771032D01*
X64352470Y-37851844D01*
X64352470Y-37905719D01*
X64379407Y-37986531D01*
X64460219Y-38067343D01*
X64541032Y-38094280D01*
X64594906Y-38094280D01*
X64675719Y-38067343D01*
X64891218Y-37851844D01*
X63759847Y-38390592D02*
X64029221Y-38121218D01*
X64325532Y-38363654D01*
X64271658Y-38363654D01*
X64190845Y-38390592D01*
X64056158Y-38525279D01*
X64029221Y-38606091D01*
X64029221Y-38659966D01*
X64056158Y-38740778D01*
X64190845Y-38875465D01*
X64271658Y-38902402D01*
X64325532Y-38902402D01*
X64406345Y-38875465D01*
X64541032Y-38740778D01*
X64567969Y-38659966D01*
X64567969Y-38606091D01*
X69971218Y-37313096D02*
X69998155Y-37232284D01*
X70078967Y-37151471D01*
X70186717Y-37097597D01*
X70294467Y-37097597D01*
X70375279Y-37124534D01*
X70509966Y-37205346D01*
X70590778Y-37286158D01*
X70671590Y-37420845D01*
X70698528Y-37501658D01*
X70698528Y-37609407D01*
X70644653Y-37717157D01*
X70590778Y-37771032D01*
X70483028Y-37824906D01*
X70429154Y-37824906D01*
X70240592Y-37636345D01*
X70348341Y-37528595D01*
X70240592Y-38121218D02*
X69674906Y-37555532D01*
X69459407Y-37771032D01*
X69432470Y-37851844D01*
X69432470Y-37905719D01*
X69459407Y-37986531D01*
X69540219Y-38067343D01*
X69621032Y-38094280D01*
X69674906Y-38094280D01*
X69755719Y-38067343D01*
X69971218Y-37851844D01*
X68866784Y-38363654D02*
X68974534Y-38255905D01*
X69055346Y-38228967D01*
X69109221Y-38228967D01*
X69243908Y-38255905D01*
X69378595Y-38336717D01*
X69594094Y-38552216D01*
X69621032Y-38633028D01*
X69621032Y-38686903D01*
X69594094Y-38767715D01*
X69486345Y-38875465D01*
X69405532Y-38902402D01*
X69351658Y-38902402D01*
X69270845Y-38875465D01*
X69136158Y-38740778D01*
X69109221Y-38659966D01*
X69109221Y-38606091D01*
X69136158Y-38525279D01*
X69243908Y-38417529D01*
X69324720Y-38390592D01*
X69378595Y-38390592D01*
X69459407Y-38417529D01*
X52181218Y-37213096D02*
X52208155Y-37132284D01*
X52288967Y-37051471D01*
X52396717Y-36997597D01*
X52504467Y-36997597D01*
X52585279Y-37024534D01*
X52719966Y-37105346D01*
X52800778Y-37186158D01*
X52881590Y-37320845D01*
X52908528Y-37401658D01*
X52908528Y-37509407D01*
X52854653Y-37617157D01*
X52800778Y-37671032D01*
X52693028Y-37724906D01*
X52639154Y-37724906D01*
X52450592Y-37536345D01*
X52558341Y-37428595D01*
X52450592Y-38021218D02*
X51884906Y-37455532D01*
X51669407Y-37671032D01*
X51642470Y-37751844D01*
X51642470Y-37805719D01*
X51669407Y-37886531D01*
X51750219Y-37967343D01*
X51831032Y-37994280D01*
X51884906Y-37994280D01*
X51965719Y-37967343D01*
X52181218Y-37751844D01*
X51588595Y-38883215D02*
X51911844Y-38559966D01*
X51750219Y-38721590D02*
X51184534Y-38155905D01*
X51319221Y-38182842D01*
X51426971Y-38182842D01*
X51507783Y-38155905D01*
%TO.C,R11*%
X61412380Y-79367142D02*
X60936190Y-79033809D01*
X61412380Y-78795714D02*
X60412380Y-78795714D01*
X60412380Y-79176666D01*
X60460000Y-79271904D01*
X60507619Y-79319523D01*
X60602857Y-79367142D01*
X60745714Y-79367142D01*
X60840952Y-79319523D01*
X60888571Y-79271904D01*
X60936190Y-79176666D01*
X60936190Y-78795714D01*
X61412380Y-80319523D02*
X61412380Y-79748095D01*
X61412380Y-80033809D02*
X60412380Y-80033809D01*
X60555238Y-79938571D01*
X60650476Y-79843333D01*
X60698095Y-79748095D01*
X61412380Y-81271904D02*
X61412380Y-80700476D01*
X61412380Y-80986190D02*
X60412380Y-80986190D01*
X60555238Y-80890952D01*
X60650476Y-80795714D01*
X60698095Y-80700476D01*
%TO.C,C12*%
X55232857Y-67032142D02*
X55280476Y-67079761D01*
X55423333Y-67127380D01*
X55518571Y-67127380D01*
X55661428Y-67079761D01*
X55756666Y-66984523D01*
X55804285Y-66889285D01*
X55851904Y-66698809D01*
X55851904Y-66555952D01*
X55804285Y-66365476D01*
X55756666Y-66270238D01*
X55661428Y-66175000D01*
X55518571Y-66127380D01*
X55423333Y-66127380D01*
X55280476Y-66175000D01*
X55232857Y-66222619D01*
X54280476Y-67127380D02*
X54851904Y-67127380D01*
X54566190Y-67127380D02*
X54566190Y-66127380D01*
X54661428Y-66270238D01*
X54756666Y-66365476D01*
X54851904Y-66413095D01*
X53899523Y-66222619D02*
X53851904Y-66175000D01*
X53756666Y-66127380D01*
X53518571Y-66127380D01*
X53423333Y-66175000D01*
X53375714Y-66222619D01*
X53328095Y-66317857D01*
X53328095Y-66413095D01*
X53375714Y-66555952D01*
X53947142Y-67127380D01*
X53328095Y-67127380D01*
D11*
%TO.C,Y1*%
X64755000Y-100925000D02*
X64755000Y-94675000D01*
X59705000Y-100925000D02*
X59705000Y-94675000D01*
X64755000Y-94675000D02*
G75*
G03*
X59705000Y-94675000I-2525000J0D01*
G01*
X59705000Y-100925000D02*
G75*
G03*
X64755000Y-100925000I2525000J0D01*
G01*
%TO.C,R12*%
X50150000Y-113380000D02*
X53990000Y-113380000D01*
X50150000Y-115220000D02*
X53990000Y-115220000D01*
%TO.C,R13*%
X60310000Y-106330000D02*
X64150000Y-106330000D01*
X60310000Y-104490000D02*
X64150000Y-104490000D01*
%TO.C,Q1*%
X64080000Y-108690000D02*
X64080000Y-112290000D01*
X59629999Y-110490000D02*
G75*
G03*
X64068478Y-112328478I2600001J0D01*
G01*
X64068478Y-108651522D02*
G75*
G03*
X59630000Y-110490000I-1838478J-1838478D01*
G01*
%TO.C,C13*%
X61625000Y-86780000D02*
X62330000Y-86780000D01*
X61625000Y-91020000D02*
X62330000Y-91020000D01*
X59590000Y-91020000D02*
X60295000Y-91020000D01*
X62330000Y-86780000D02*
X62330000Y-91020000D01*
X59590000Y-86780000D02*
X59590000Y-91020000D01*
X59590000Y-86780000D02*
X60295000Y-86780000D01*
%TO.C,C11*%
X64224888Y-116435000D02*
X64224888Y-114984000D01*
X64745888Y-119765000D02*
X64745888Y-118515000D01*
X64545888Y-119857000D02*
X64545888Y-118515000D01*
X65225888Y-119446000D02*
X65225888Y-118515000D01*
X64505888Y-119873000D02*
X64505888Y-118515000D01*
X65105888Y-119540000D02*
X65105888Y-118515000D01*
X64825888Y-119722000D02*
X64825888Y-118515000D01*
X64505888Y-116435000D02*
X64505888Y-115077000D01*
X64865888Y-119699000D02*
X64865888Y-118515000D01*
X63624888Y-120054000D02*
X63624888Y-114896000D01*
X65545888Y-119128000D02*
X65545888Y-118515000D01*
X66105888Y-117993000D02*
X66105888Y-116957000D01*
X64345888Y-119930000D02*
X64345888Y-118515000D01*
X63824888Y-116435000D02*
X63824888Y-114910000D01*
X65025888Y-119597000D02*
X65025888Y-118515000D01*
X65305888Y-119376000D02*
X65305888Y-118515000D01*
X65305888Y-116435000D02*
X65305888Y-115574000D01*
X65025888Y-116435000D02*
X65025888Y-115353000D01*
X65145888Y-116435000D02*
X65145888Y-115440000D01*
X63984888Y-116435000D02*
X63984888Y-114932000D01*
X64345888Y-116435000D02*
X64345888Y-115020000D01*
X64465888Y-116435000D02*
X64465888Y-115061000D01*
X65985888Y-118390000D02*
X65985888Y-116560000D01*
X65105888Y-116435000D02*
X65105888Y-115410000D01*
X65065888Y-116435000D02*
X65065888Y-115380000D01*
X64064888Y-116435000D02*
X64064888Y-114947000D01*
X64945888Y-119650000D02*
X64945888Y-118515000D01*
X64305888Y-119943000D02*
X64305888Y-118515000D01*
X64265888Y-119955000D02*
X64265888Y-118515000D01*
X65465888Y-119218000D02*
X65465888Y-118515000D01*
X65065888Y-119570000D02*
X65065888Y-118515000D01*
X64385888Y-116435000D02*
X64385888Y-115033000D01*
X63784888Y-116435000D02*
X63784888Y-114906000D01*
X64465888Y-119889000D02*
X64465888Y-118515000D01*
X64705888Y-116435000D02*
X64705888Y-115165000D01*
X64985888Y-116435000D02*
X64985888Y-115326000D01*
X60990113Y-119200000D02*
X60990113Y-118700000D01*
X63544888Y-120055000D02*
X63544888Y-114895000D01*
X65505888Y-116435000D02*
X65505888Y-115776000D01*
X64305888Y-116435000D02*
X64305888Y-115007000D01*
X65665888Y-116435000D02*
X65665888Y-115975000D01*
X64144888Y-119986000D02*
X64144888Y-118515000D01*
X64104888Y-116435000D02*
X64104888Y-114955000D01*
X63944888Y-120025000D02*
X63944888Y-118515000D01*
X64184888Y-116435000D02*
X64184888Y-114974000D01*
X64785888Y-116435000D02*
X64785888Y-115207000D01*
X65425888Y-116435000D02*
X65425888Y-115690000D01*
X64905888Y-116435000D02*
X64905888Y-115275000D01*
X65745888Y-116435000D02*
X65745888Y-116092000D01*
X63984888Y-120018000D02*
X63984888Y-118515000D01*
X64184888Y-119976000D02*
X64184888Y-118515000D01*
X64585888Y-116435000D02*
X64585888Y-115110000D01*
X64985888Y-119624000D02*
X64985888Y-118515000D01*
X65345888Y-116435000D02*
X65345888Y-115611000D01*
X65705888Y-116435000D02*
X65705888Y-116032000D01*
X65385888Y-119301000D02*
X65385888Y-118515000D01*
X65265888Y-119412000D02*
X65265888Y-118515000D01*
X63864888Y-116435000D02*
X63864888Y-114914000D01*
X63584888Y-120055000D02*
X63584888Y-114895000D01*
X64425888Y-119903000D02*
X64425888Y-118515000D01*
X64024888Y-116435000D02*
X64024888Y-114939000D01*
X65585888Y-119080000D02*
X65585888Y-118515000D01*
X64144888Y-116435000D02*
X64144888Y-114964000D01*
X64665888Y-119804000D02*
X64665888Y-118515000D01*
X65705888Y-118918000D02*
X65705888Y-118515000D01*
X63864888Y-120036000D02*
X63864888Y-118515000D01*
X64265888Y-116435000D02*
X64265888Y-114995000D01*
X65545888Y-116435000D02*
X65545888Y-115822000D01*
X65425888Y-119260000D02*
X65425888Y-118515000D01*
X64865888Y-116435000D02*
X64865888Y-115251000D01*
X63784888Y-120044000D02*
X63784888Y-118515000D01*
X63664888Y-120053000D02*
X63664888Y-114897000D01*
X64064888Y-120003000D02*
X64064888Y-118515000D01*
X65625888Y-116435000D02*
X65625888Y-115921000D01*
X65185888Y-119479000D02*
X65185888Y-118515000D01*
X64104888Y-119995000D02*
X64104888Y-118515000D01*
X63904888Y-116435000D02*
X63904888Y-114919000D01*
X65265888Y-116435000D02*
X65265888Y-115538000D01*
X65585888Y-116435000D02*
X65585888Y-115870000D01*
X65785888Y-118794000D02*
X65785888Y-118515000D01*
X65385888Y-116435000D02*
X65385888Y-115649000D01*
X65465888Y-116435000D02*
X65465888Y-115732000D01*
X65905888Y-118573000D02*
X65905888Y-116377000D01*
X64825888Y-116435000D02*
X64825888Y-115228000D01*
X65825888Y-118726000D02*
X65825888Y-118515000D01*
X63944888Y-116435000D02*
X63944888Y-114925000D01*
X64585888Y-119840000D02*
X64585888Y-118515000D01*
X63744888Y-120048000D02*
X63744888Y-114902000D01*
X64545888Y-116435000D02*
X64545888Y-115093000D01*
X64905888Y-119675000D02*
X64905888Y-118515000D01*
X64945888Y-116435000D02*
X64945888Y-115300000D01*
X66065888Y-118152000D02*
X66065888Y-116798000D01*
X65225888Y-116435000D02*
X65225888Y-115504000D01*
X66145888Y-117759000D02*
X66145888Y-117191000D01*
X63704888Y-120051000D02*
X63704888Y-114899000D01*
X64425888Y-116435000D02*
X64425888Y-115047000D01*
X64705888Y-119785000D02*
X64705888Y-118515000D01*
X65825888Y-116435000D02*
X65825888Y-116224000D01*
X65345888Y-119339000D02*
X65345888Y-118515000D01*
X65145888Y-119510000D02*
X65145888Y-118515000D01*
X64625888Y-119823000D02*
X64625888Y-118515000D01*
X63824888Y-120040000D02*
X63824888Y-118515000D01*
X65945888Y-118486000D02*
X65945888Y-116464000D01*
X64745888Y-116435000D02*
X64745888Y-115185000D01*
X64024888Y-120011000D02*
X64024888Y-118515000D01*
X65665888Y-118975000D02*
X65665888Y-118515000D01*
X66025888Y-118280000D02*
X66025888Y-116670000D01*
X65505888Y-119174000D02*
X65505888Y-118515000D01*
X65745888Y-118858000D02*
X65745888Y-118515000D01*
X64625888Y-116435000D02*
X64625888Y-115127000D01*
X60740113Y-118950000D02*
X61240113Y-118950000D01*
X64665888Y-116435000D02*
X64665888Y-115146000D01*
X64224888Y-119966000D02*
X64224888Y-118515000D01*
X63904888Y-120031000D02*
X63904888Y-118515000D01*
X65625888Y-119029000D02*
X65625888Y-118515000D01*
X65865888Y-118653000D02*
X65865888Y-116297000D01*
X65185888Y-116435000D02*
X65185888Y-115471000D01*
X65785888Y-116435000D02*
X65785888Y-116156000D01*
X64385888Y-119917000D02*
X64385888Y-118515000D01*
X64785888Y-119743000D02*
X64785888Y-118515000D01*
X66164888Y-117475000D02*
G75*
G03*
X66164888Y-117475000I-2620000J0D01*
G01*
%TO.C,U3*%
X54330000Y-76140000D02*
X55980000Y-76140000D01*
X50680000Y-76140000D02*
X52330000Y-76140000D01*
X55980000Y-111820000D02*
X50680000Y-111820000D01*
X55980000Y-76140000D02*
X55980000Y-111820000D01*
X50680000Y-111820000D02*
X50680000Y-76140000D01*
X52330000Y-76140000D02*
G75*
G03*
X54330000Y-76140000I1000000J0D01*
G01*
%TO.C,BT1*%
X100820000Y-123885000D02*
X66820000Y-123885000D01*
X66820000Y-123885000D02*
X66820000Y-63885000D01*
X66820000Y-63885000D02*
X100820000Y-63885000D01*
X100820000Y-63885000D02*
X100820000Y-123885000D01*
%TO.C,U1*%
X60760000Y-40300000D02*
X61160000Y-40300000D01*
X50560000Y-61300000D02*
X50960000Y-61300000D01*
X99160000Y-49300000D02*
X99160000Y-49700000D01*
X65860000Y-40300000D02*
X66260000Y-40300000D01*
X60760000Y-61300000D02*
X61160000Y-61300000D01*
X91260000Y-40300000D02*
X91660000Y-40300000D01*
X48160000Y-40300000D02*
X48160000Y-61300000D01*
X63260000Y-61300000D02*
X63660000Y-61300000D01*
X73460000Y-61300000D02*
X73860000Y-61300000D01*
X88760000Y-61300000D02*
X89160000Y-61300000D01*
X50827000Y-40300000D02*
X50827000Y-43307000D01*
X75960000Y-40300000D02*
X76360000Y-40300000D01*
X91260000Y-61300000D02*
X91660000Y-61300000D01*
X99160000Y-47100000D02*
X99160000Y-40300000D01*
X70960000Y-61300000D02*
X71360000Y-61300000D01*
X65860000Y-61300000D02*
X66260000Y-61300000D01*
X88760000Y-40300000D02*
X89160000Y-40300000D01*
X55660000Y-40300000D02*
X56060000Y-40300000D01*
X83660000Y-61300000D02*
X84060000Y-61300000D01*
X70960000Y-40300000D02*
X71360000Y-40300000D01*
X93760000Y-61300000D02*
X94160000Y-61300000D01*
X78560000Y-61300000D02*
X78960000Y-61300000D01*
X78560000Y-40300000D02*
X78960000Y-40300000D01*
X93760000Y-40300000D02*
X94160000Y-40300000D01*
X58260000Y-61300000D02*
X58660000Y-61300000D01*
X96360000Y-40300000D02*
X96760000Y-40300000D01*
X96360000Y-61300000D02*
X96760000Y-61300000D01*
X99160000Y-51900000D02*
X99160000Y-52300000D01*
X55660000Y-61300000D02*
X56060000Y-61300000D01*
X58260000Y-40300000D02*
X58660000Y-40300000D01*
X68360000Y-40300000D02*
X68760000Y-40300000D01*
X86160000Y-40300000D02*
X86560000Y-40300000D01*
X86160000Y-61300000D02*
X86560000Y-61300000D01*
X53160000Y-61300000D02*
X53560000Y-61300000D01*
X68360000Y-61300000D02*
X68760000Y-61300000D01*
X99160000Y-61300000D02*
X99160000Y-54500000D01*
X75960000Y-61300000D02*
X76360000Y-61300000D01*
X63260000Y-40300000D02*
X63660000Y-40300000D01*
X50827000Y-43307000D02*
X48160000Y-43307000D01*
X83660000Y-40300000D02*
X84060000Y-40300000D01*
X50560000Y-40300000D02*
X50960000Y-40300000D01*
X53160000Y-40300000D02*
X53560000Y-40300000D01*
X48160000Y-61300000D02*
X48460000Y-61300000D01*
X73460000Y-40300000D02*
X73860000Y-40300000D01*
X48160000Y-40300000D02*
X48460000Y-40300000D01*
X81060000Y-40300000D02*
X81460000Y-40300000D01*
X81060000Y-61300000D02*
X81460000Y-61300000D01*
%TO.C,R11*%
X61880000Y-78090000D02*
X61880000Y-81930000D01*
X60040000Y-78090000D02*
X60040000Y-81930000D01*
%TO.C,C12*%
X53760000Y-64800000D02*
X53760000Y-65505000D01*
X58000000Y-62765000D02*
X53760000Y-62765000D01*
X58000000Y-62765000D02*
X58000000Y-63470000D01*
X58000000Y-65505000D02*
X53760000Y-65505000D01*
X53760000Y-62765000D02*
X53760000Y-63470000D01*
X58000000Y-64800000D02*
X58000000Y-65505000D01*
%TD*%
M02*
