%TF.GenerationSoftware,KiCad,Pcbnew,6.0.2+dfsg-1*%
%TF.CreationDate,2024-01-09T17:30:34+09:00*%
%TF.ProjectId,pico-toy-elevator,7069636f-2d74-46f7-992d-656c65766174,rev?*%
%TF.SameCoordinates,Original*%
%TF.FileFunction,Legend,Top*%
%TF.FilePolarity,Positive*%
%FSLAX46Y46*%
G04 Gerber Fmt 4.6, Leading zero omitted, Abs format (unit mm)*
G04 Created by KiCad (PCBNEW 6.0.2+dfsg-1) date 2024-01-09 17:30:34*
%MOMM*%
%LPD*%
G01*
G04 APERTURE LIST*
%ADD10C,0.500000*%
%ADD11C,0.300000*%
%ADD12C,0.150000*%
%ADD13C,0.120000*%
G04 APERTURE END LIST*
D10*
X55003125Y-50887142D02*
X55378125Y-47887142D01*
X56520982Y-47887142D01*
X56788839Y-48030000D01*
X56913839Y-48172857D01*
X57020982Y-48458571D01*
X56967410Y-48887142D01*
X56788839Y-49172857D01*
X56628125Y-49315714D01*
X56324553Y-49458571D01*
X55181696Y-49458571D01*
X58003125Y-50887142D02*
X58253125Y-48887142D01*
X58378125Y-47887142D02*
X58217410Y-48030000D01*
X58342410Y-48172857D01*
X58503125Y-48030000D01*
X58378125Y-47887142D01*
X58342410Y-48172857D01*
X60735267Y-50744285D02*
X60431696Y-50887142D01*
X59860267Y-50887142D01*
X59592410Y-50744285D01*
X59467410Y-50601428D01*
X59360267Y-50315714D01*
X59467410Y-49458571D01*
X59645982Y-49172857D01*
X59806696Y-49030000D01*
X60110267Y-48887142D01*
X60681696Y-48887142D01*
X60949553Y-49030000D01*
X62431696Y-50887142D02*
X62163839Y-50744285D01*
X62038839Y-50601428D01*
X61931696Y-50315714D01*
X62038839Y-49458571D01*
X62217410Y-49172857D01*
X62378125Y-49030000D01*
X62681696Y-48887142D01*
X63110267Y-48887142D01*
X63378125Y-49030000D01*
X63503125Y-49172857D01*
X63610267Y-49458571D01*
X63503125Y-50315714D01*
X63324553Y-50601428D01*
X63163839Y-50744285D01*
X62860267Y-50887142D01*
X62431696Y-50887142D01*
X64663839Y-47887142D02*
X66378125Y-47887142D01*
X65145982Y-50887142D02*
X65520982Y-47887142D01*
X67431696Y-50887142D02*
X67163839Y-50744285D01*
X67038839Y-50601428D01*
X66931696Y-50315714D01*
X67038839Y-49458571D01*
X67217410Y-49172857D01*
X67378125Y-49030000D01*
X67681696Y-48887142D01*
X68110267Y-48887142D01*
X68378125Y-49030000D01*
X68503125Y-49172857D01*
X68610267Y-49458571D01*
X68503125Y-50315714D01*
X68324553Y-50601428D01*
X68163839Y-50744285D01*
X67860267Y-50887142D01*
X67431696Y-50887142D01*
X69681696Y-48887142D02*
X70145982Y-50887142D01*
X71110267Y-48887142D02*
X70145982Y-50887142D01*
X69770982Y-51601428D01*
X69610267Y-51744285D01*
X69306696Y-51887142D01*
X74485267Y-49315714D02*
X75485267Y-49315714D01*
X75717410Y-50887142D02*
X74288839Y-50887142D01*
X74663839Y-47887142D01*
X76092410Y-47887142D01*
X78431696Y-50887142D02*
X77003125Y-50887142D01*
X77378125Y-47887142D01*
X79628125Y-49315714D02*
X80628125Y-49315714D01*
X80860267Y-50887142D02*
X79431696Y-50887142D01*
X79806696Y-47887142D01*
X81235267Y-47887142D01*
X82092410Y-47887142D02*
X82717410Y-50887142D01*
X84092410Y-47887142D01*
X84681696Y-50030000D02*
X86110267Y-50030000D01*
X84288839Y-50887142D02*
X85663839Y-47887142D01*
X86288839Y-50887142D01*
X87235267Y-47887142D02*
X88949553Y-47887142D01*
X87717410Y-50887142D02*
X88092410Y-47887142D01*
X90520982Y-47887142D02*
X91092410Y-47887142D01*
X91360267Y-48030000D01*
X91610267Y-48315714D01*
X91681696Y-48887142D01*
X91556696Y-49887142D01*
X91342410Y-50458571D01*
X91020982Y-50744285D01*
X90717410Y-50887142D01*
X90145982Y-50887142D01*
X89878125Y-50744285D01*
X89628125Y-50458571D01*
X89556696Y-49887142D01*
X89681696Y-48887142D01*
X89895982Y-48315714D01*
X90217410Y-48030000D01*
X90520982Y-47887142D01*
X94431696Y-50887142D02*
X93610267Y-49458571D01*
X92717410Y-50887142D02*
X93092410Y-47887142D01*
X94235267Y-47887142D01*
X94503125Y-48030000D01*
X94628125Y-48172857D01*
X94735267Y-48458571D01*
X94681696Y-48887142D01*
X94503125Y-49172857D01*
X94342410Y-49315714D01*
X94038839Y-49458571D01*
X92895982Y-49458571D01*
D11*
X64787142Y-54288571D02*
X65144285Y-55288571D01*
X65501428Y-54288571D01*
X66644285Y-55217142D02*
X66501428Y-55288571D01*
X66215714Y-55288571D01*
X66072857Y-55217142D01*
X66001428Y-55074285D01*
X66001428Y-54502857D01*
X66072857Y-54360000D01*
X66215714Y-54288571D01*
X66501428Y-54288571D01*
X66644285Y-54360000D01*
X66715714Y-54502857D01*
X66715714Y-54645714D01*
X66001428Y-54788571D01*
X67358571Y-55288571D02*
X67358571Y-54288571D01*
X67358571Y-54574285D02*
X67430000Y-54431428D01*
X67501428Y-54360000D01*
X67644285Y-54288571D01*
X67787142Y-54288571D01*
X69715714Y-53788571D02*
X69858571Y-53788571D01*
X70001428Y-53860000D01*
X70072857Y-53931428D01*
X70144285Y-54074285D01*
X70215714Y-54360000D01*
X70215714Y-54717142D01*
X70144285Y-55002857D01*
X70072857Y-55145714D01*
X70001428Y-55217142D01*
X69858571Y-55288571D01*
X69715714Y-55288571D01*
X69572857Y-55217142D01*
X69501428Y-55145714D01*
X69430000Y-55002857D01*
X69358571Y-54717142D01*
X69358571Y-54360000D01*
X69430000Y-54074285D01*
X69501428Y-53931428D01*
X69572857Y-53860000D01*
X69715714Y-53788571D01*
X70858571Y-55145714D02*
X70930000Y-55217142D01*
X70858571Y-55288571D01*
X70787142Y-55217142D01*
X70858571Y-55145714D01*
X70858571Y-55288571D01*
X72358571Y-55288571D02*
X71501428Y-55288571D01*
X71930000Y-55288571D02*
X71930000Y-53788571D01*
X71787142Y-54002857D01*
X71644285Y-54145714D01*
X71501428Y-54217142D01*
X75072857Y-54288571D02*
X75644285Y-54288571D01*
X75287142Y-53788571D02*
X75287142Y-55074285D01*
X75358571Y-55217142D01*
X75501428Y-55288571D01*
X75644285Y-55288571D01*
X76144285Y-55288571D02*
X76144285Y-53788571D01*
X76287142Y-54717142D02*
X76715714Y-55288571D01*
X76715714Y-54288571D02*
X76144285Y-54860000D01*
X77358571Y-55288571D02*
X77358571Y-53788571D01*
X78001428Y-55288571D02*
X78001428Y-54502857D01*
X77930000Y-54360000D01*
X77787142Y-54288571D01*
X77572857Y-54288571D01*
X77430000Y-54360000D01*
X77358571Y-54431428D01*
X78644285Y-55217142D02*
X78787142Y-55288571D01*
X79072857Y-55288571D01*
X79215714Y-55217142D01*
X79287142Y-55074285D01*
X79287142Y-55002857D01*
X79215714Y-54860000D01*
X79072857Y-54788571D01*
X78858571Y-54788571D01*
X78715714Y-54717142D01*
X78644285Y-54574285D01*
X78644285Y-54502857D01*
X78715714Y-54360000D01*
X78858571Y-54288571D01*
X79072857Y-54288571D01*
X79215714Y-54360000D01*
X79930000Y-55288571D02*
X79930000Y-53788571D01*
X80572857Y-55288571D02*
X80572857Y-54502857D01*
X80501428Y-54360000D01*
X80358571Y-54288571D01*
X80144285Y-54288571D01*
X80001428Y-54360000D01*
X79930000Y-54431428D01*
X81287142Y-55288571D02*
X81287142Y-54288571D01*
X81287142Y-54431428D02*
X81358571Y-54360000D01*
X81501428Y-54288571D01*
X81715714Y-54288571D01*
X81858571Y-54360000D01*
X81930000Y-54502857D01*
X81930000Y-55288571D01*
X81930000Y-54502857D02*
X82001428Y-54360000D01*
X82144285Y-54288571D01*
X82358571Y-54288571D01*
X82501428Y-54360000D01*
X82572857Y-54502857D01*
X82572857Y-55288571D01*
X83215714Y-55217142D02*
X83358571Y-55288571D01*
X83644285Y-55288571D01*
X83787142Y-55217142D01*
X83858571Y-55074285D01*
X83858571Y-55002857D01*
X83787142Y-54860000D01*
X83644285Y-54788571D01*
X83430000Y-54788571D01*
X83287142Y-54717142D01*
X83215714Y-54574285D01*
X83215714Y-54502857D01*
X83287142Y-54360000D01*
X83430000Y-54288571D01*
X83644285Y-54288571D01*
X83787142Y-54360000D01*
X84358571Y-54288571D02*
X84715714Y-55288571D01*
X85072857Y-54288571D02*
X84715714Y-55288571D01*
X84572857Y-55645714D01*
X84501428Y-55717142D01*
X84358571Y-55788571D01*
X59721904Y-123364761D02*
X60102857Y-123364761D01*
X60293333Y-123460000D01*
X60483809Y-123650476D01*
X60579047Y-124031428D01*
X60579047Y-124698095D01*
X60483809Y-125079047D01*
X60293333Y-125269523D01*
X60102857Y-125364761D01*
X59721904Y-125364761D01*
X59531428Y-125269523D01*
X59340952Y-125079047D01*
X59245714Y-124698095D01*
X59245714Y-124031428D01*
X59340952Y-123650476D01*
X59531428Y-123460000D01*
X59721904Y-123364761D01*
X61436190Y-125364761D02*
X61436190Y-123364761D01*
X62579047Y-125364761D01*
X62579047Y-123364761D01*
X51435238Y-123364761D02*
X51816190Y-123364761D01*
X52006666Y-123460000D01*
X52197142Y-123650476D01*
X52292380Y-124031428D01*
X52292380Y-124698095D01*
X52197142Y-125079047D01*
X52006666Y-125269523D01*
X51816190Y-125364761D01*
X51435238Y-125364761D01*
X51244761Y-125269523D01*
X51054285Y-125079047D01*
X50959047Y-124698095D01*
X50959047Y-124031428D01*
X51054285Y-123650476D01*
X51244761Y-123460000D01*
X51435238Y-123364761D01*
X53816190Y-124317142D02*
X53149523Y-124317142D01*
X53149523Y-125364761D02*
X53149523Y-123364761D01*
X54101904Y-123364761D01*
X55530476Y-124317142D02*
X54863809Y-124317142D01*
X54863809Y-125364761D02*
X54863809Y-123364761D01*
X55816190Y-123364761D01*
D12*
%TO.C,SW10*%
X118840476Y-107719761D02*
X118983333Y-107767380D01*
X119221428Y-107767380D01*
X119316666Y-107719761D01*
X119364285Y-107672142D01*
X119411904Y-107576904D01*
X119411904Y-107481666D01*
X119364285Y-107386428D01*
X119316666Y-107338809D01*
X119221428Y-107291190D01*
X119030952Y-107243571D01*
X118935714Y-107195952D01*
X118888095Y-107148333D01*
X118840476Y-107053095D01*
X118840476Y-106957857D01*
X118888095Y-106862619D01*
X118935714Y-106815000D01*
X119030952Y-106767380D01*
X119269047Y-106767380D01*
X119411904Y-106815000D01*
X119745238Y-106767380D02*
X119983333Y-107767380D01*
X120173809Y-107053095D01*
X120364285Y-107767380D01*
X120602380Y-106767380D01*
X121507142Y-107767380D02*
X120935714Y-107767380D01*
X121221428Y-107767380D02*
X121221428Y-106767380D01*
X121126190Y-106910238D01*
X121030952Y-107005476D01*
X120935714Y-107053095D01*
X122126190Y-106767380D02*
X122221428Y-106767380D01*
X122316666Y-106815000D01*
X122364285Y-106862619D01*
X122411904Y-106957857D01*
X122459523Y-107148333D01*
X122459523Y-107386428D01*
X122411904Y-107576904D01*
X122364285Y-107672142D01*
X122316666Y-107719761D01*
X122221428Y-107767380D01*
X122126190Y-107767380D01*
X122030952Y-107719761D01*
X121983333Y-107672142D01*
X121935714Y-107576904D01*
X121888095Y-107386428D01*
X121888095Y-107148333D01*
X121935714Y-106957857D01*
X121983333Y-106862619D01*
X122030952Y-106815000D01*
X122126190Y-106767380D01*
%TO.C,SW9*%
X104076666Y-107719761D02*
X104219523Y-107767380D01*
X104457619Y-107767380D01*
X104552857Y-107719761D01*
X104600476Y-107672142D01*
X104648095Y-107576904D01*
X104648095Y-107481666D01*
X104600476Y-107386428D01*
X104552857Y-107338809D01*
X104457619Y-107291190D01*
X104267142Y-107243571D01*
X104171904Y-107195952D01*
X104124285Y-107148333D01*
X104076666Y-107053095D01*
X104076666Y-106957857D01*
X104124285Y-106862619D01*
X104171904Y-106815000D01*
X104267142Y-106767380D01*
X104505238Y-106767380D01*
X104648095Y-106815000D01*
X104981428Y-106767380D02*
X105219523Y-107767380D01*
X105410000Y-107053095D01*
X105600476Y-107767380D01*
X105838571Y-106767380D01*
X106267142Y-107767380D02*
X106457619Y-107767380D01*
X106552857Y-107719761D01*
X106600476Y-107672142D01*
X106695714Y-107529285D01*
X106743333Y-107338809D01*
X106743333Y-106957857D01*
X106695714Y-106862619D01*
X106648095Y-106815000D01*
X106552857Y-106767380D01*
X106362380Y-106767380D01*
X106267142Y-106815000D01*
X106219523Y-106862619D01*
X106171904Y-106957857D01*
X106171904Y-107195952D01*
X106219523Y-107291190D01*
X106267142Y-107338809D01*
X106362380Y-107386428D01*
X106552857Y-107386428D01*
X106648095Y-107338809D01*
X106695714Y-107291190D01*
X106743333Y-107195952D01*
%TO.C,SW8*%
X119226666Y-86414761D02*
X119369523Y-86462380D01*
X119607619Y-86462380D01*
X119702857Y-86414761D01*
X119750476Y-86367142D01*
X119798095Y-86271904D01*
X119798095Y-86176666D01*
X119750476Y-86081428D01*
X119702857Y-86033809D01*
X119607619Y-85986190D01*
X119417142Y-85938571D01*
X119321904Y-85890952D01*
X119274285Y-85843333D01*
X119226666Y-85748095D01*
X119226666Y-85652857D01*
X119274285Y-85557619D01*
X119321904Y-85510000D01*
X119417142Y-85462380D01*
X119655238Y-85462380D01*
X119798095Y-85510000D01*
X120131428Y-85462380D02*
X120369523Y-86462380D01*
X120560000Y-85748095D01*
X120750476Y-86462380D01*
X120988571Y-85462380D01*
X121512380Y-85890952D02*
X121417142Y-85843333D01*
X121369523Y-85795714D01*
X121321904Y-85700476D01*
X121321904Y-85652857D01*
X121369523Y-85557619D01*
X121417142Y-85510000D01*
X121512380Y-85462380D01*
X121702857Y-85462380D01*
X121798095Y-85510000D01*
X121845714Y-85557619D01*
X121893333Y-85652857D01*
X121893333Y-85700476D01*
X121845714Y-85795714D01*
X121798095Y-85843333D01*
X121702857Y-85890952D01*
X121512380Y-85890952D01*
X121417142Y-85938571D01*
X121369523Y-85986190D01*
X121321904Y-86081428D01*
X121321904Y-86271904D01*
X121369523Y-86367142D01*
X121417142Y-86414761D01*
X121512380Y-86462380D01*
X121702857Y-86462380D01*
X121798095Y-86414761D01*
X121845714Y-86367142D01*
X121893333Y-86271904D01*
X121893333Y-86081428D01*
X121845714Y-85986190D01*
X121798095Y-85938571D01*
X121702857Y-85890952D01*
%TO.C,SW7*%
X103986666Y-86414761D02*
X104129523Y-86462380D01*
X104367619Y-86462380D01*
X104462857Y-86414761D01*
X104510476Y-86367142D01*
X104558095Y-86271904D01*
X104558095Y-86176666D01*
X104510476Y-86081428D01*
X104462857Y-86033809D01*
X104367619Y-85986190D01*
X104177142Y-85938571D01*
X104081904Y-85890952D01*
X104034285Y-85843333D01*
X103986666Y-85748095D01*
X103986666Y-85652857D01*
X104034285Y-85557619D01*
X104081904Y-85510000D01*
X104177142Y-85462380D01*
X104415238Y-85462380D01*
X104558095Y-85510000D01*
X104891428Y-85462380D02*
X105129523Y-86462380D01*
X105320000Y-85748095D01*
X105510476Y-86462380D01*
X105748571Y-85462380D01*
X106034285Y-85462380D02*
X106700952Y-85462380D01*
X106272380Y-86462380D01*
%TO.C,SW6*%
X119226666Y-69904761D02*
X119369523Y-69952380D01*
X119607619Y-69952380D01*
X119702857Y-69904761D01*
X119750476Y-69857142D01*
X119798095Y-69761904D01*
X119798095Y-69666666D01*
X119750476Y-69571428D01*
X119702857Y-69523809D01*
X119607619Y-69476190D01*
X119417142Y-69428571D01*
X119321904Y-69380952D01*
X119274285Y-69333333D01*
X119226666Y-69238095D01*
X119226666Y-69142857D01*
X119274285Y-69047619D01*
X119321904Y-69000000D01*
X119417142Y-68952380D01*
X119655238Y-68952380D01*
X119798095Y-69000000D01*
X120131428Y-68952380D02*
X120369523Y-69952380D01*
X120560000Y-69238095D01*
X120750476Y-69952380D01*
X120988571Y-68952380D01*
X121798095Y-68952380D02*
X121607619Y-68952380D01*
X121512380Y-69000000D01*
X121464761Y-69047619D01*
X121369523Y-69190476D01*
X121321904Y-69380952D01*
X121321904Y-69761904D01*
X121369523Y-69857142D01*
X121417142Y-69904761D01*
X121512380Y-69952380D01*
X121702857Y-69952380D01*
X121798095Y-69904761D01*
X121845714Y-69857142D01*
X121893333Y-69761904D01*
X121893333Y-69523809D01*
X121845714Y-69428571D01*
X121798095Y-69380952D01*
X121702857Y-69333333D01*
X121512380Y-69333333D01*
X121417142Y-69380952D01*
X121369523Y-69428571D01*
X121321904Y-69523809D01*
%TO.C,SW5*%
X103986666Y-69904761D02*
X104129523Y-69952380D01*
X104367619Y-69952380D01*
X104462857Y-69904761D01*
X104510476Y-69857142D01*
X104558095Y-69761904D01*
X104558095Y-69666666D01*
X104510476Y-69571428D01*
X104462857Y-69523809D01*
X104367619Y-69476190D01*
X104177142Y-69428571D01*
X104081904Y-69380952D01*
X104034285Y-69333333D01*
X103986666Y-69238095D01*
X103986666Y-69142857D01*
X104034285Y-69047619D01*
X104081904Y-69000000D01*
X104177142Y-68952380D01*
X104415238Y-68952380D01*
X104558095Y-69000000D01*
X104891428Y-68952380D02*
X105129523Y-69952380D01*
X105320000Y-69238095D01*
X105510476Y-69952380D01*
X105748571Y-68952380D01*
X106605714Y-68952380D02*
X106129523Y-68952380D01*
X106081904Y-69428571D01*
X106129523Y-69380952D01*
X106224761Y-69333333D01*
X106462857Y-69333333D01*
X106558095Y-69380952D01*
X106605714Y-69428571D01*
X106653333Y-69523809D01*
X106653333Y-69761904D01*
X106605714Y-69857142D01*
X106558095Y-69904761D01*
X106462857Y-69952380D01*
X106224761Y-69952380D01*
X106129523Y-69904761D01*
X106081904Y-69857142D01*
%TO.C,SW4*%
X119226666Y-53394761D02*
X119369523Y-53442380D01*
X119607619Y-53442380D01*
X119702857Y-53394761D01*
X119750476Y-53347142D01*
X119798095Y-53251904D01*
X119798095Y-53156666D01*
X119750476Y-53061428D01*
X119702857Y-53013809D01*
X119607619Y-52966190D01*
X119417142Y-52918571D01*
X119321904Y-52870952D01*
X119274285Y-52823333D01*
X119226666Y-52728095D01*
X119226666Y-52632857D01*
X119274285Y-52537619D01*
X119321904Y-52490000D01*
X119417142Y-52442380D01*
X119655238Y-52442380D01*
X119798095Y-52490000D01*
X120131428Y-52442380D02*
X120369523Y-53442380D01*
X120560000Y-52728095D01*
X120750476Y-53442380D01*
X120988571Y-52442380D01*
X121798095Y-52775714D02*
X121798095Y-53442380D01*
X121560000Y-52394761D02*
X121321904Y-53109047D01*
X121940952Y-53109047D01*
%TO.C,SW3*%
X103986666Y-53394761D02*
X104129523Y-53442380D01*
X104367619Y-53442380D01*
X104462857Y-53394761D01*
X104510476Y-53347142D01*
X104558095Y-53251904D01*
X104558095Y-53156666D01*
X104510476Y-53061428D01*
X104462857Y-53013809D01*
X104367619Y-52966190D01*
X104177142Y-52918571D01*
X104081904Y-52870952D01*
X104034285Y-52823333D01*
X103986666Y-52728095D01*
X103986666Y-52632857D01*
X104034285Y-52537619D01*
X104081904Y-52490000D01*
X104177142Y-52442380D01*
X104415238Y-52442380D01*
X104558095Y-52490000D01*
X104891428Y-52442380D02*
X105129523Y-53442380D01*
X105320000Y-52728095D01*
X105510476Y-53442380D01*
X105748571Y-52442380D01*
X106034285Y-52442380D02*
X106653333Y-52442380D01*
X106320000Y-52823333D01*
X106462857Y-52823333D01*
X106558095Y-52870952D01*
X106605714Y-52918571D01*
X106653333Y-53013809D01*
X106653333Y-53251904D01*
X106605714Y-53347142D01*
X106558095Y-53394761D01*
X106462857Y-53442380D01*
X106177142Y-53442380D01*
X106081904Y-53394761D01*
X106034285Y-53347142D01*
%TO.C,SW2*%
X119226666Y-36884761D02*
X119369523Y-36932380D01*
X119607619Y-36932380D01*
X119702857Y-36884761D01*
X119750476Y-36837142D01*
X119798095Y-36741904D01*
X119798095Y-36646666D01*
X119750476Y-36551428D01*
X119702857Y-36503809D01*
X119607619Y-36456190D01*
X119417142Y-36408571D01*
X119321904Y-36360952D01*
X119274285Y-36313333D01*
X119226666Y-36218095D01*
X119226666Y-36122857D01*
X119274285Y-36027619D01*
X119321904Y-35980000D01*
X119417142Y-35932380D01*
X119655238Y-35932380D01*
X119798095Y-35980000D01*
X120131428Y-35932380D02*
X120369523Y-36932380D01*
X120560000Y-36218095D01*
X120750476Y-36932380D01*
X120988571Y-35932380D01*
X121321904Y-36027619D02*
X121369523Y-35980000D01*
X121464761Y-35932380D01*
X121702857Y-35932380D01*
X121798095Y-35980000D01*
X121845714Y-36027619D01*
X121893333Y-36122857D01*
X121893333Y-36218095D01*
X121845714Y-36360952D01*
X121274285Y-36932380D01*
X121893333Y-36932380D01*
%TO.C,SW1*%
X103986666Y-36884761D02*
X104129523Y-36932380D01*
X104367619Y-36932380D01*
X104462857Y-36884761D01*
X104510476Y-36837142D01*
X104558095Y-36741904D01*
X104558095Y-36646666D01*
X104510476Y-36551428D01*
X104462857Y-36503809D01*
X104367619Y-36456190D01*
X104177142Y-36408571D01*
X104081904Y-36360952D01*
X104034285Y-36313333D01*
X103986666Y-36218095D01*
X103986666Y-36122857D01*
X104034285Y-36027619D01*
X104081904Y-35980000D01*
X104177142Y-35932380D01*
X104415238Y-35932380D01*
X104558095Y-35980000D01*
X104891428Y-35932380D02*
X105129523Y-36932380D01*
X105320000Y-36218095D01*
X105510476Y-36932380D01*
X105748571Y-35932380D01*
X106653333Y-36932380D02*
X106081904Y-36932380D01*
X106367619Y-36932380D02*
X106367619Y-35932380D01*
X106272380Y-36075238D01*
X106177142Y-36170476D01*
X106081904Y-36218095D01*
%TO.C,C8*%
X131913333Y-100687142D02*
X131865714Y-100734761D01*
X131722857Y-100782380D01*
X131627619Y-100782380D01*
X131484761Y-100734761D01*
X131389523Y-100639523D01*
X131341904Y-100544285D01*
X131294285Y-100353809D01*
X131294285Y-100210952D01*
X131341904Y-100020476D01*
X131389523Y-99925238D01*
X131484761Y-99830000D01*
X131627619Y-99782380D01*
X131722857Y-99782380D01*
X131865714Y-99830000D01*
X131913333Y-99877619D01*
X132484761Y-100210952D02*
X132389523Y-100163333D01*
X132341904Y-100115714D01*
X132294285Y-100020476D01*
X132294285Y-99972857D01*
X132341904Y-99877619D01*
X132389523Y-99830000D01*
X132484761Y-99782380D01*
X132675238Y-99782380D01*
X132770476Y-99830000D01*
X132818095Y-99877619D01*
X132865714Y-99972857D01*
X132865714Y-100020476D01*
X132818095Y-100115714D01*
X132770476Y-100163333D01*
X132675238Y-100210952D01*
X132484761Y-100210952D01*
X132389523Y-100258571D01*
X132341904Y-100306190D01*
X132294285Y-100401428D01*
X132294285Y-100591904D01*
X132341904Y-100687142D01*
X132389523Y-100734761D01*
X132484761Y-100782380D01*
X132675238Y-100782380D01*
X132770476Y-100734761D01*
X132818095Y-100687142D01*
X132865714Y-100591904D01*
X132865714Y-100401428D01*
X132818095Y-100306190D01*
X132770476Y-100258571D01*
X132675238Y-100210952D01*
%TO.C,C3*%
X116673333Y-67667142D02*
X116625714Y-67714761D01*
X116482857Y-67762380D01*
X116387619Y-67762380D01*
X116244761Y-67714761D01*
X116149523Y-67619523D01*
X116101904Y-67524285D01*
X116054285Y-67333809D01*
X116054285Y-67190952D01*
X116101904Y-67000476D01*
X116149523Y-66905238D01*
X116244761Y-66810000D01*
X116387619Y-66762380D01*
X116482857Y-66762380D01*
X116625714Y-66810000D01*
X116673333Y-66857619D01*
X117006666Y-66762380D02*
X117625714Y-66762380D01*
X117292380Y-67143333D01*
X117435238Y-67143333D01*
X117530476Y-67190952D01*
X117578095Y-67238571D01*
X117625714Y-67333809D01*
X117625714Y-67571904D01*
X117578095Y-67667142D01*
X117530476Y-67714761D01*
X117435238Y-67762380D01*
X117149523Y-67762380D01*
X117054285Y-67714761D01*
X117006666Y-67667142D01*
%TO.C,SW11*%
X51530476Y-119149761D02*
X51673333Y-119197380D01*
X51911428Y-119197380D01*
X52006666Y-119149761D01*
X52054285Y-119102142D01*
X52101904Y-119006904D01*
X52101904Y-118911666D01*
X52054285Y-118816428D01*
X52006666Y-118768809D01*
X51911428Y-118721190D01*
X51720952Y-118673571D01*
X51625714Y-118625952D01*
X51578095Y-118578333D01*
X51530476Y-118483095D01*
X51530476Y-118387857D01*
X51578095Y-118292619D01*
X51625714Y-118245000D01*
X51720952Y-118197380D01*
X51959047Y-118197380D01*
X52101904Y-118245000D01*
X52435238Y-118197380D02*
X52673333Y-119197380D01*
X52863809Y-118483095D01*
X53054285Y-119197380D01*
X53292380Y-118197380D01*
X54197142Y-119197380D02*
X53625714Y-119197380D01*
X53911428Y-119197380D02*
X53911428Y-118197380D01*
X53816190Y-118340238D01*
X53720952Y-118435476D01*
X53625714Y-118483095D01*
X55149523Y-119197380D02*
X54578095Y-119197380D01*
X54863809Y-119197380D02*
X54863809Y-118197380D01*
X54768571Y-118340238D01*
X54673333Y-118435476D01*
X54578095Y-118483095D01*
%TO.C,R4*%
X121753333Y-67762380D02*
X121420000Y-67286190D01*
X121181904Y-67762380D02*
X121181904Y-66762380D01*
X121562857Y-66762380D01*
X121658095Y-66810000D01*
X121705714Y-66857619D01*
X121753333Y-66952857D01*
X121753333Y-67095714D01*
X121705714Y-67190952D01*
X121658095Y-67238571D01*
X121562857Y-67286190D01*
X121181904Y-67286190D01*
X122610476Y-67095714D02*
X122610476Y-67762380D01*
X122372380Y-66714761D02*
X122134285Y-67429047D01*
X122753333Y-67429047D01*
%TO.C,R7*%
X106513333Y-100782380D02*
X106180000Y-100306190D01*
X105941904Y-100782380D02*
X105941904Y-99782380D01*
X106322857Y-99782380D01*
X106418095Y-99830000D01*
X106465714Y-99877619D01*
X106513333Y-99972857D01*
X106513333Y-100115714D01*
X106465714Y-100210952D01*
X106418095Y-100258571D01*
X106322857Y-100306190D01*
X105941904Y-100306190D01*
X106846666Y-99782380D02*
X107513333Y-99782380D01*
X107084761Y-100782380D01*
%TO.C,R5*%
X106513333Y-84272380D02*
X106180000Y-83796190D01*
X105941904Y-84272380D02*
X105941904Y-83272380D01*
X106322857Y-83272380D01*
X106418095Y-83320000D01*
X106465714Y-83367619D01*
X106513333Y-83462857D01*
X106513333Y-83605714D01*
X106465714Y-83700952D01*
X106418095Y-83748571D01*
X106322857Y-83796190D01*
X105941904Y-83796190D01*
X107418095Y-83272380D02*
X106941904Y-83272380D01*
X106894285Y-83748571D01*
X106941904Y-83700952D01*
X107037142Y-83653333D01*
X107275238Y-83653333D01*
X107370476Y-83700952D01*
X107418095Y-83748571D01*
X107465714Y-83843809D01*
X107465714Y-84081904D01*
X107418095Y-84177142D01*
X107370476Y-84224761D01*
X107275238Y-84272380D01*
X107037142Y-84272380D01*
X106941904Y-84224761D01*
X106894285Y-84177142D01*
%TO.C,H2*%
X134238095Y-39822380D02*
X134238095Y-38822380D01*
X134238095Y-39298571D02*
X134809523Y-39298571D01*
X134809523Y-39822380D02*
X134809523Y-38822380D01*
X135238095Y-38917619D02*
X135285714Y-38870000D01*
X135380952Y-38822380D01*
X135619047Y-38822380D01*
X135714285Y-38870000D01*
X135761904Y-38917619D01*
X135809523Y-39012857D01*
X135809523Y-39108095D01*
X135761904Y-39250952D01*
X135190476Y-39822380D01*
X135809523Y-39822380D01*
%TO.C,R2*%
X121753333Y-51252380D02*
X121420000Y-50776190D01*
X121181904Y-51252380D02*
X121181904Y-50252380D01*
X121562857Y-50252380D01*
X121658095Y-50300000D01*
X121705714Y-50347619D01*
X121753333Y-50442857D01*
X121753333Y-50585714D01*
X121705714Y-50680952D01*
X121658095Y-50728571D01*
X121562857Y-50776190D01*
X121181904Y-50776190D01*
X122134285Y-50347619D02*
X122181904Y-50300000D01*
X122277142Y-50252380D01*
X122515238Y-50252380D01*
X122610476Y-50300000D01*
X122658095Y-50347619D01*
X122705714Y-50442857D01*
X122705714Y-50538095D01*
X122658095Y-50680952D01*
X122086666Y-51252380D01*
X122705714Y-51252380D01*
%TO.C,C6*%
X131913333Y-84177142D02*
X131865714Y-84224761D01*
X131722857Y-84272380D01*
X131627619Y-84272380D01*
X131484761Y-84224761D01*
X131389523Y-84129523D01*
X131341904Y-84034285D01*
X131294285Y-83843809D01*
X131294285Y-83700952D01*
X131341904Y-83510476D01*
X131389523Y-83415238D01*
X131484761Y-83320000D01*
X131627619Y-83272380D01*
X131722857Y-83272380D01*
X131865714Y-83320000D01*
X131913333Y-83367619D01*
X132770476Y-83272380D02*
X132580000Y-83272380D01*
X132484761Y-83320000D01*
X132437142Y-83367619D01*
X132341904Y-83510476D01*
X132294285Y-83700952D01*
X132294285Y-84081904D01*
X132341904Y-84177142D01*
X132389523Y-84224761D01*
X132484761Y-84272380D01*
X132675238Y-84272380D01*
X132770476Y-84224761D01*
X132818095Y-84177142D01*
X132865714Y-84081904D01*
X132865714Y-83843809D01*
X132818095Y-83748571D01*
X132770476Y-83700952D01*
X132675238Y-83653333D01*
X132484761Y-83653333D01*
X132389523Y-83700952D01*
X132341904Y-83748571D01*
X132294285Y-83843809D01*
%TO.C,R8*%
X121753333Y-100782380D02*
X121420000Y-100306190D01*
X121181904Y-100782380D02*
X121181904Y-99782380D01*
X121562857Y-99782380D01*
X121658095Y-99830000D01*
X121705714Y-99877619D01*
X121753333Y-99972857D01*
X121753333Y-100115714D01*
X121705714Y-100210952D01*
X121658095Y-100258571D01*
X121562857Y-100306190D01*
X121181904Y-100306190D01*
X122324761Y-100210952D02*
X122229523Y-100163333D01*
X122181904Y-100115714D01*
X122134285Y-100020476D01*
X122134285Y-99972857D01*
X122181904Y-99877619D01*
X122229523Y-99830000D01*
X122324761Y-99782380D01*
X122515238Y-99782380D01*
X122610476Y-99830000D01*
X122658095Y-99877619D01*
X122705714Y-99972857D01*
X122705714Y-100020476D01*
X122658095Y-100115714D01*
X122610476Y-100163333D01*
X122515238Y-100210952D01*
X122324761Y-100210952D01*
X122229523Y-100258571D01*
X122181904Y-100306190D01*
X122134285Y-100401428D01*
X122134285Y-100591904D01*
X122181904Y-100687142D01*
X122229523Y-100734761D01*
X122324761Y-100782380D01*
X122515238Y-100782380D01*
X122610476Y-100734761D01*
X122658095Y-100687142D01*
X122705714Y-100591904D01*
X122705714Y-100401428D01*
X122658095Y-100306190D01*
X122610476Y-100258571D01*
X122515238Y-100210952D01*
%TO.C,U2*%
X72898095Y-65922380D02*
X72898095Y-66731904D01*
X72945714Y-66827142D01*
X72993333Y-66874761D01*
X73088571Y-66922380D01*
X73279047Y-66922380D01*
X73374285Y-66874761D01*
X73421904Y-66827142D01*
X73469523Y-66731904D01*
X73469523Y-65922380D01*
X73898095Y-66017619D02*
X73945714Y-65970000D01*
X74040952Y-65922380D01*
X74279047Y-65922380D01*
X74374285Y-65970000D01*
X74421904Y-66017619D01*
X74469523Y-66112857D01*
X74469523Y-66208095D01*
X74421904Y-66350952D01*
X73850476Y-66922380D01*
X74469523Y-66922380D01*
%TO.C,R3*%
X106513333Y-67762380D02*
X106180000Y-67286190D01*
X105941904Y-67762380D02*
X105941904Y-66762380D01*
X106322857Y-66762380D01*
X106418095Y-66810000D01*
X106465714Y-66857619D01*
X106513333Y-66952857D01*
X106513333Y-67095714D01*
X106465714Y-67190952D01*
X106418095Y-67238571D01*
X106322857Y-67286190D01*
X105941904Y-67286190D01*
X106846666Y-66762380D02*
X107465714Y-66762380D01*
X107132380Y-67143333D01*
X107275238Y-67143333D01*
X107370476Y-67190952D01*
X107418095Y-67238571D01*
X107465714Y-67333809D01*
X107465714Y-67571904D01*
X107418095Y-67667142D01*
X107370476Y-67714761D01*
X107275238Y-67762380D01*
X106989523Y-67762380D01*
X106894285Y-67714761D01*
X106846666Y-67667142D01*
%TO.C,C7*%
X116673333Y-100687142D02*
X116625714Y-100734761D01*
X116482857Y-100782380D01*
X116387619Y-100782380D01*
X116244761Y-100734761D01*
X116149523Y-100639523D01*
X116101904Y-100544285D01*
X116054285Y-100353809D01*
X116054285Y-100210952D01*
X116101904Y-100020476D01*
X116149523Y-99925238D01*
X116244761Y-99830000D01*
X116387619Y-99782380D01*
X116482857Y-99782380D01*
X116625714Y-99830000D01*
X116673333Y-99877619D01*
X117006666Y-99782380D02*
X117673333Y-99782380D01*
X117244761Y-100782380D01*
%TO.C,C9*%
X116673333Y-122277142D02*
X116625714Y-122324761D01*
X116482857Y-122372380D01*
X116387619Y-122372380D01*
X116244761Y-122324761D01*
X116149523Y-122229523D01*
X116101904Y-122134285D01*
X116054285Y-121943809D01*
X116054285Y-121800952D01*
X116101904Y-121610476D01*
X116149523Y-121515238D01*
X116244761Y-121420000D01*
X116387619Y-121372380D01*
X116482857Y-121372380D01*
X116625714Y-121420000D01*
X116673333Y-121467619D01*
X117149523Y-122372380D02*
X117340000Y-122372380D01*
X117435238Y-122324761D01*
X117482857Y-122277142D01*
X117578095Y-122134285D01*
X117625714Y-121943809D01*
X117625714Y-121562857D01*
X117578095Y-121467619D01*
X117530476Y-121420000D01*
X117435238Y-121372380D01*
X117244761Y-121372380D01*
X117149523Y-121420000D01*
X117101904Y-121467619D01*
X117054285Y-121562857D01*
X117054285Y-121800952D01*
X117101904Y-121896190D01*
X117149523Y-121943809D01*
X117244761Y-121991428D01*
X117435238Y-121991428D01*
X117530476Y-121943809D01*
X117578095Y-121896190D01*
X117625714Y-121800952D01*
%TO.C,H3*%
X44238095Y-121252380D02*
X44238095Y-120252380D01*
X44238095Y-120728571D02*
X44809523Y-120728571D01*
X44809523Y-121252380D02*
X44809523Y-120252380D01*
X45190476Y-120252380D02*
X45809523Y-120252380D01*
X45476190Y-120633333D01*
X45619047Y-120633333D01*
X45714285Y-120680952D01*
X45761904Y-120728571D01*
X45809523Y-120823809D01*
X45809523Y-121061904D01*
X45761904Y-121157142D01*
X45714285Y-121204761D01*
X45619047Y-121252380D01*
X45333333Y-121252380D01*
X45238095Y-121204761D01*
X45190476Y-121157142D01*
%TO.C,R10*%
X121277142Y-122372380D02*
X120943809Y-121896190D01*
X120705714Y-122372380D02*
X120705714Y-121372380D01*
X121086666Y-121372380D01*
X121181904Y-121420000D01*
X121229523Y-121467619D01*
X121277142Y-121562857D01*
X121277142Y-121705714D01*
X121229523Y-121800952D01*
X121181904Y-121848571D01*
X121086666Y-121896190D01*
X120705714Y-121896190D01*
X122229523Y-122372380D02*
X121658095Y-122372380D01*
X121943809Y-122372380D02*
X121943809Y-121372380D01*
X121848571Y-121515238D01*
X121753333Y-121610476D01*
X121658095Y-121658095D01*
X122848571Y-121372380D02*
X122943809Y-121372380D01*
X123039047Y-121420000D01*
X123086666Y-121467619D01*
X123134285Y-121562857D01*
X123181904Y-121753333D01*
X123181904Y-121991428D01*
X123134285Y-122181904D01*
X123086666Y-122277142D01*
X123039047Y-122324761D01*
X122943809Y-122372380D01*
X122848571Y-122372380D01*
X122753333Y-122324761D01*
X122705714Y-122277142D01*
X122658095Y-122181904D01*
X122610476Y-121991428D01*
X122610476Y-121753333D01*
X122658095Y-121562857D01*
X122705714Y-121467619D01*
X122753333Y-121420000D01*
X122848571Y-121372380D01*
%TO.C,R1*%
X106513333Y-51252380D02*
X106180000Y-50776190D01*
X105941904Y-51252380D02*
X105941904Y-50252380D01*
X106322857Y-50252380D01*
X106418095Y-50300000D01*
X106465714Y-50347619D01*
X106513333Y-50442857D01*
X106513333Y-50585714D01*
X106465714Y-50680952D01*
X106418095Y-50728571D01*
X106322857Y-50776190D01*
X105941904Y-50776190D01*
X107465714Y-51252380D02*
X106894285Y-51252380D01*
X107180000Y-51252380D02*
X107180000Y-50252380D01*
X107084761Y-50395238D01*
X106989523Y-50490476D01*
X106894285Y-50538095D01*
%TO.C,C5*%
X116673333Y-84177142D02*
X116625714Y-84224761D01*
X116482857Y-84272380D01*
X116387619Y-84272380D01*
X116244761Y-84224761D01*
X116149523Y-84129523D01*
X116101904Y-84034285D01*
X116054285Y-83843809D01*
X116054285Y-83700952D01*
X116101904Y-83510476D01*
X116149523Y-83415238D01*
X116244761Y-83320000D01*
X116387619Y-83272380D01*
X116482857Y-83272380D01*
X116625714Y-83320000D01*
X116673333Y-83367619D01*
X117578095Y-83272380D02*
X117101904Y-83272380D01*
X117054285Y-83748571D01*
X117101904Y-83700952D01*
X117197142Y-83653333D01*
X117435238Y-83653333D01*
X117530476Y-83700952D01*
X117578095Y-83748571D01*
X117625714Y-83843809D01*
X117625714Y-84081904D01*
X117578095Y-84177142D01*
X117530476Y-84224761D01*
X117435238Y-84272380D01*
X117197142Y-84272380D01*
X117101904Y-84224761D01*
X117054285Y-84177142D01*
%TO.C,C4*%
X131913333Y-67667142D02*
X131865714Y-67714761D01*
X131722857Y-67762380D01*
X131627619Y-67762380D01*
X131484761Y-67714761D01*
X131389523Y-67619523D01*
X131341904Y-67524285D01*
X131294285Y-67333809D01*
X131294285Y-67190952D01*
X131341904Y-67000476D01*
X131389523Y-66905238D01*
X131484761Y-66810000D01*
X131627619Y-66762380D01*
X131722857Y-66762380D01*
X131865714Y-66810000D01*
X131913333Y-66857619D01*
X132770476Y-67095714D02*
X132770476Y-67762380D01*
X132532380Y-66714761D02*
X132294285Y-67429047D01*
X132913333Y-67429047D01*
%TO.C,H4*%
X134238095Y-121252380D02*
X134238095Y-120252380D01*
X134238095Y-120728571D02*
X134809523Y-120728571D01*
X134809523Y-121252380D02*
X134809523Y-120252380D01*
X135714285Y-120585714D02*
X135714285Y-121252380D01*
X135476190Y-120204761D02*
X135238095Y-120919047D01*
X135857142Y-120919047D01*
%TO.C,R6*%
X121753333Y-84272380D02*
X121420000Y-83796190D01*
X121181904Y-84272380D02*
X121181904Y-83272380D01*
X121562857Y-83272380D01*
X121658095Y-83320000D01*
X121705714Y-83367619D01*
X121753333Y-83462857D01*
X121753333Y-83605714D01*
X121705714Y-83700952D01*
X121658095Y-83748571D01*
X121562857Y-83796190D01*
X121181904Y-83796190D01*
X122610476Y-83272380D02*
X122420000Y-83272380D01*
X122324761Y-83320000D01*
X122277142Y-83367619D01*
X122181904Y-83510476D01*
X122134285Y-83700952D01*
X122134285Y-84081904D01*
X122181904Y-84177142D01*
X122229523Y-84224761D01*
X122324761Y-84272380D01*
X122515238Y-84272380D01*
X122610476Y-84224761D01*
X122658095Y-84177142D01*
X122705714Y-84081904D01*
X122705714Y-83843809D01*
X122658095Y-83748571D01*
X122610476Y-83700952D01*
X122515238Y-83653333D01*
X122324761Y-83653333D01*
X122229523Y-83700952D01*
X122181904Y-83748571D01*
X122134285Y-83843809D01*
%TO.C,C10*%
X131437142Y-119737142D02*
X131389523Y-119784761D01*
X131246666Y-119832380D01*
X131151428Y-119832380D01*
X131008571Y-119784761D01*
X130913333Y-119689523D01*
X130865714Y-119594285D01*
X130818095Y-119403809D01*
X130818095Y-119260952D01*
X130865714Y-119070476D01*
X130913333Y-118975238D01*
X131008571Y-118880000D01*
X131151428Y-118832380D01*
X131246666Y-118832380D01*
X131389523Y-118880000D01*
X131437142Y-118927619D01*
X132389523Y-119832380D02*
X131818095Y-119832380D01*
X132103809Y-119832380D02*
X132103809Y-118832380D01*
X132008571Y-118975238D01*
X131913333Y-119070476D01*
X131818095Y-119118095D01*
X133008571Y-118832380D02*
X133103809Y-118832380D01*
X133199047Y-118880000D01*
X133246666Y-118927619D01*
X133294285Y-119022857D01*
X133341904Y-119213333D01*
X133341904Y-119451428D01*
X133294285Y-119641904D01*
X133246666Y-119737142D01*
X133199047Y-119784761D01*
X133103809Y-119832380D01*
X133008571Y-119832380D01*
X132913333Y-119784761D01*
X132865714Y-119737142D01*
X132818095Y-119641904D01*
X132770476Y-119451428D01*
X132770476Y-119213333D01*
X132818095Y-119022857D01*
X132865714Y-118927619D01*
X132913333Y-118880000D01*
X133008571Y-118832380D01*
%TO.C,LS1*%
X83177142Y-108402380D02*
X82700952Y-108402380D01*
X82700952Y-107402380D01*
X83462857Y-108354761D02*
X83605714Y-108402380D01*
X83843809Y-108402380D01*
X83939047Y-108354761D01*
X83986666Y-108307142D01*
X84034285Y-108211904D01*
X84034285Y-108116666D01*
X83986666Y-108021428D01*
X83939047Y-107973809D01*
X83843809Y-107926190D01*
X83653333Y-107878571D01*
X83558095Y-107830952D01*
X83510476Y-107783333D01*
X83462857Y-107688095D01*
X83462857Y-107592857D01*
X83510476Y-107497619D01*
X83558095Y-107450000D01*
X83653333Y-107402380D01*
X83891428Y-107402380D01*
X84034285Y-107450000D01*
X84986666Y-108402380D02*
X84415238Y-108402380D01*
X84700952Y-108402380D02*
X84700952Y-107402380D01*
X84605714Y-107545238D01*
X84510476Y-107640476D01*
X84415238Y-107688095D01*
%TO.C,R9*%
X106513333Y-122372380D02*
X106180000Y-121896190D01*
X105941904Y-122372380D02*
X105941904Y-121372380D01*
X106322857Y-121372380D01*
X106418095Y-121420000D01*
X106465714Y-121467619D01*
X106513333Y-121562857D01*
X106513333Y-121705714D01*
X106465714Y-121800952D01*
X106418095Y-121848571D01*
X106322857Y-121896190D01*
X105941904Y-121896190D01*
X106989523Y-122372380D02*
X107180000Y-122372380D01*
X107275238Y-122324761D01*
X107322857Y-122277142D01*
X107418095Y-122134285D01*
X107465714Y-121943809D01*
X107465714Y-121562857D01*
X107418095Y-121467619D01*
X107370476Y-121420000D01*
X107275238Y-121372380D01*
X107084761Y-121372380D01*
X106989523Y-121420000D01*
X106941904Y-121467619D01*
X106894285Y-121562857D01*
X106894285Y-121800952D01*
X106941904Y-121896190D01*
X106989523Y-121943809D01*
X107084761Y-121991428D01*
X107275238Y-121991428D01*
X107370476Y-121943809D01*
X107418095Y-121896190D01*
X107465714Y-121800952D01*
%TO.C,C1*%
X116673333Y-51157142D02*
X116625714Y-51204761D01*
X116482857Y-51252380D01*
X116387619Y-51252380D01*
X116244761Y-51204761D01*
X116149523Y-51109523D01*
X116101904Y-51014285D01*
X116054285Y-50823809D01*
X116054285Y-50680952D01*
X116101904Y-50490476D01*
X116149523Y-50395238D01*
X116244761Y-50300000D01*
X116387619Y-50252380D01*
X116482857Y-50252380D01*
X116625714Y-50300000D01*
X116673333Y-50347619D01*
X117625714Y-51252380D02*
X117054285Y-51252380D01*
X117340000Y-51252380D02*
X117340000Y-50252380D01*
X117244761Y-50395238D01*
X117149523Y-50490476D01*
X117054285Y-50538095D01*
%TO.C,H1*%
X44238095Y-39822380D02*
X44238095Y-38822380D01*
X44238095Y-39298571D02*
X44809523Y-39298571D01*
X44809523Y-39822380D02*
X44809523Y-38822380D01*
X45809523Y-39822380D02*
X45238095Y-39822380D01*
X45523809Y-39822380D02*
X45523809Y-38822380D01*
X45428571Y-38965238D01*
X45333333Y-39060476D01*
X45238095Y-39108095D01*
%TO.C,C2*%
X131913333Y-51157142D02*
X131865714Y-51204761D01*
X131722857Y-51252380D01*
X131627619Y-51252380D01*
X131484761Y-51204761D01*
X131389523Y-51109523D01*
X131341904Y-51014285D01*
X131294285Y-50823809D01*
X131294285Y-50680952D01*
X131341904Y-50490476D01*
X131389523Y-50395238D01*
X131484761Y-50300000D01*
X131627619Y-50252380D01*
X131722857Y-50252380D01*
X131865714Y-50300000D01*
X131913333Y-50347619D01*
X132294285Y-50347619D02*
X132341904Y-50300000D01*
X132437142Y-50252380D01*
X132675238Y-50252380D01*
X132770476Y-50300000D01*
X132818095Y-50347619D01*
X132865714Y-50442857D01*
X132865714Y-50538095D01*
X132818095Y-50680952D01*
X132246666Y-51252380D01*
X132865714Y-51252380D01*
D13*
%TO.C,SW10*%
X118460000Y-120300000D02*
X118460000Y-108300000D01*
X130460000Y-108300000D02*
X130460000Y-120300000D01*
X118460000Y-108300000D02*
X130460000Y-108300000D01*
X130460000Y-120300000D02*
X118460000Y-120300000D01*
%TO.C,SW9*%
X103220000Y-120300000D02*
X103220000Y-108300000D01*
X115220000Y-108300000D02*
X115220000Y-120300000D01*
X103220000Y-108300000D02*
X115220000Y-108300000D01*
X115220000Y-120300000D02*
X103220000Y-120300000D01*
%TO.C,SW8*%
X118460000Y-98710000D02*
X118460000Y-86710000D01*
X130460000Y-86710000D02*
X130460000Y-98710000D01*
X118460000Y-86710000D02*
X130460000Y-86710000D01*
X130460000Y-98710000D02*
X118460000Y-98710000D01*
%TO.C,SW7*%
X103220000Y-98710000D02*
X103220000Y-86710000D01*
X115220000Y-86710000D02*
X115220000Y-98710000D01*
X103220000Y-86710000D02*
X115220000Y-86710000D01*
X115220000Y-98710000D02*
X103220000Y-98710000D01*
%TO.C,SW6*%
X118460000Y-82200000D02*
X118460000Y-70200000D01*
X130460000Y-70200000D02*
X130460000Y-82200000D01*
X118460000Y-70200000D02*
X130460000Y-70200000D01*
X130460000Y-82200000D02*
X118460000Y-82200000D01*
%TO.C,SW5*%
X103220000Y-82200000D02*
X103220000Y-70200000D01*
X115220000Y-70200000D02*
X115220000Y-82200000D01*
X103220000Y-70200000D02*
X115220000Y-70200000D01*
X115220000Y-82200000D02*
X103220000Y-82200000D01*
%TO.C,SW4*%
X118460000Y-65690000D02*
X118460000Y-53690000D01*
X130460000Y-53690000D02*
X130460000Y-65690000D01*
X118460000Y-53690000D02*
X130460000Y-53690000D01*
X130460000Y-65690000D02*
X118460000Y-65690000D01*
%TO.C,SW3*%
X103220000Y-65690000D02*
X103220000Y-53690000D01*
X115220000Y-53690000D02*
X115220000Y-65690000D01*
X103220000Y-53690000D02*
X115220000Y-53690000D01*
X115220000Y-65690000D02*
X103220000Y-65690000D01*
%TO.C,SW2*%
X118460000Y-49180000D02*
X118460000Y-37180000D01*
X130460000Y-37180000D02*
X130460000Y-49180000D01*
X118460000Y-37180000D02*
X130460000Y-37180000D01*
X130460000Y-49180000D02*
X118460000Y-49180000D01*
%TO.C,SW1*%
X103220000Y-49180000D02*
X103220000Y-37180000D01*
X115220000Y-37180000D02*
X115220000Y-49180000D01*
X103220000Y-37180000D02*
X115220000Y-37180000D01*
X115220000Y-49180000D02*
X103220000Y-49180000D01*
%TO.C,C8*%
X130410000Y-99665000D02*
X130410000Y-98960000D01*
X130410000Y-101700000D02*
X130410000Y-100995000D01*
X126170000Y-101700000D02*
X126170000Y-100995000D01*
X130410000Y-98960000D02*
X126170000Y-98960000D01*
X126170000Y-99665000D02*
X126170000Y-98960000D01*
X130410000Y-101700000D02*
X126170000Y-101700000D01*
%TO.C,C3*%
X115170000Y-65940000D02*
X110930000Y-65940000D01*
X115170000Y-68680000D02*
X115170000Y-67975000D01*
X115170000Y-68680000D02*
X110930000Y-68680000D01*
X115170000Y-66645000D02*
X115170000Y-65940000D01*
X110930000Y-66645000D02*
X110930000Y-65940000D01*
X110930000Y-68680000D02*
X110930000Y-67975000D01*
%TO.C,SW11*%
X61450000Y-123085000D02*
X52850000Y-123085000D01*
X52850000Y-123085000D02*
X52850000Y-119485000D01*
X52850000Y-119485000D02*
X61450000Y-119485000D01*
X61450000Y-119485000D02*
X61450000Y-123085000D01*
%TO.C,R4*%
X120000000Y-66390000D02*
X123840000Y-66390000D01*
X120000000Y-68230000D02*
X123840000Y-68230000D01*
%TO.C,R7*%
X104760000Y-101250000D02*
X108600000Y-101250000D01*
X104760000Y-99410000D02*
X108600000Y-99410000D01*
%TO.C,R5*%
X104760000Y-82900000D02*
X108600000Y-82900000D01*
X104760000Y-84740000D02*
X108600000Y-84740000D01*
%TO.C,R2*%
X120000000Y-51720000D02*
X123840000Y-51720000D01*
X120000000Y-49880000D02*
X123840000Y-49880000D01*
%TO.C,C6*%
X130410000Y-83155000D02*
X130410000Y-82450000D01*
X126170000Y-83155000D02*
X126170000Y-82450000D01*
X130410000Y-85190000D02*
X130410000Y-84485000D01*
X126170000Y-85190000D02*
X126170000Y-84485000D01*
X130410000Y-82450000D02*
X126170000Y-82450000D01*
X130410000Y-85190000D02*
X126170000Y-85190000D01*
%TO.C,R8*%
X120000000Y-101250000D02*
X123840000Y-101250000D01*
X120000000Y-99410000D02*
X123840000Y-99410000D01*
%TO.C,R3*%
X104760000Y-68230000D02*
X108600000Y-68230000D01*
X104760000Y-66390000D02*
X108600000Y-66390000D01*
%TO.C,C7*%
X115170000Y-101700000D02*
X110930000Y-101700000D01*
X115170000Y-99665000D02*
X115170000Y-98960000D01*
X115170000Y-101700000D02*
X115170000Y-100995000D01*
X110930000Y-99665000D02*
X110930000Y-98960000D01*
X110930000Y-101700000D02*
X110930000Y-100995000D01*
X115170000Y-98960000D02*
X110930000Y-98960000D01*
%TO.C,C9*%
X110930000Y-121255000D02*
X110930000Y-120550000D01*
X115170000Y-123290000D02*
X115170000Y-122585000D01*
X115170000Y-123290000D02*
X110930000Y-123290000D01*
X115170000Y-120550000D02*
X110930000Y-120550000D01*
X115170000Y-121255000D02*
X115170000Y-120550000D01*
X110930000Y-123290000D02*
X110930000Y-122585000D01*
%TO.C,R10*%
X120000000Y-122840000D02*
X123840000Y-122840000D01*
X120000000Y-121000000D02*
X123840000Y-121000000D01*
%TO.C,R1*%
X104760000Y-51720000D02*
X108600000Y-51720000D01*
X104760000Y-49880000D02*
X108600000Y-49880000D01*
%TO.C,C5*%
X110930000Y-85190000D02*
X110930000Y-84485000D01*
X115170000Y-83155000D02*
X115170000Y-82450000D01*
X115170000Y-82450000D02*
X110930000Y-82450000D01*
X110930000Y-83155000D02*
X110930000Y-82450000D01*
X115170000Y-85190000D02*
X115170000Y-84485000D01*
X115170000Y-85190000D02*
X110930000Y-85190000D01*
%TO.C,C4*%
X130410000Y-66645000D02*
X130410000Y-65940000D01*
X126170000Y-66645000D02*
X126170000Y-65940000D01*
X130410000Y-68680000D02*
X126170000Y-68680000D01*
X130410000Y-68680000D02*
X130410000Y-67975000D01*
X130410000Y-65940000D02*
X126170000Y-65940000D01*
X126170000Y-68680000D02*
X126170000Y-67975000D01*
%TO.C,R6*%
X120000000Y-84740000D02*
X123840000Y-84740000D01*
X120000000Y-82900000D02*
X123840000Y-82900000D01*
%TO.C,C10*%
X126170000Y-121255000D02*
X126170000Y-120550000D01*
X126170000Y-123290000D02*
X126170000Y-122585000D01*
X130410000Y-123290000D02*
X130410000Y-122585000D01*
X130410000Y-121255000D02*
X130410000Y-120550000D01*
X130410000Y-123290000D02*
X126170000Y-123290000D01*
X130410000Y-120550000D02*
X126170000Y-120550000D01*
%TO.C,LS1*%
X95120000Y-107950000D02*
G75*
G03*
X95120000Y-107950000I-11300000J0D01*
G01*
%TO.C,R9*%
X104760000Y-122840000D02*
X108600000Y-122840000D01*
X104760000Y-121000000D02*
X108600000Y-121000000D01*
%TO.C,C1*%
X115150000Y-52170000D02*
X115150000Y-51465000D01*
X115150000Y-50135000D02*
X115150000Y-49430000D01*
X115150000Y-52170000D02*
X110910000Y-52170000D01*
X110910000Y-52170000D02*
X110910000Y-51465000D01*
X110910000Y-50135000D02*
X110910000Y-49430000D01*
X115150000Y-49430000D02*
X110910000Y-49430000D01*
%TO.C,C2*%
X126170000Y-52170000D02*
X126170000Y-51465000D01*
X130410000Y-50135000D02*
X130410000Y-49430000D01*
X126170000Y-50135000D02*
X126170000Y-49430000D01*
X130410000Y-49430000D02*
X126170000Y-49430000D01*
X130410000Y-52170000D02*
X130410000Y-51465000D01*
X130410000Y-52170000D02*
X126170000Y-52170000D01*
%TD*%
M02*
