%FSLAX45Y45*%
G04 Gerber Fmt 4.5, Leading zero omitted, Abs format (unit mm)*
G04 Created by KiCad (PCBNEW 6.0.2+dfsg-1) date 2024-01-09 17:30:43*
%MOMM*%
%LPD*%
G01*
G04 APERTURE LIST*
%TA.AperFunction,Profile*%
%ADD10C,0.100000*%
%TD*%
%ADD11C,0.200000*%
%ADD12C,0.070000*%
%ADD13C,0.075000*%
%ADD14C,0.076200*%
%ADD15C,0.080000*%
%ADD16C,0.085000*%
%ADD17C,0.100000*%
%ADD18C,0.102000*%
%ADD19C,0.120000*%
%ADD20C,0.320000*%
%ADD21C,0.150000*%
%ADD22C,0.180000*%
G04 APERTURE END LIST*
D10*
X4000000Y-3000000D02*
X14000000Y-3000000D01*
X14000000Y-3000000D02*
X14000000Y-13000000D01*
X14000000Y-13000000D02*
X4000000Y-13000000D01*
X4000000Y-13000000D02*
X4000000Y-3000000D01*
D11*
D12*
X4918000Y-11395000D02*
X4988000Y-11465000D01*
X4988000Y-11395000D02*
X4918000Y-11465000D01*
X5426000Y-11395000D02*
X5496000Y-11465000D01*
X5496000Y-11395000D02*
X5426000Y-11465000D01*
X5934000Y-10506000D02*
X6004000Y-10576000D01*
X6004000Y-10506000D02*
X5934000Y-10576000D01*
X6061000Y-7712000D02*
X6131000Y-7782000D01*
X6131000Y-7712000D02*
X6061000Y-7782000D01*
X6061000Y-8220000D02*
X6131000Y-8290000D01*
X6131000Y-8220000D02*
X6061000Y-8290000D01*
X6442000Y-10506000D02*
X6512000Y-10576000D01*
X6512000Y-10506000D02*
X6442000Y-10576000D01*
X10379000Y-5045000D02*
X10449000Y-5115000D01*
X10449000Y-5045000D02*
X10379000Y-5115000D01*
X10379000Y-6696000D02*
X10449000Y-6766000D01*
X10449000Y-6696000D02*
X10379000Y-6766000D01*
X10379000Y-8347000D02*
X10449000Y-8417000D01*
X10449000Y-8347000D02*
X10379000Y-8417000D01*
X10379000Y-9998000D02*
X10449000Y-10068000D01*
X10449000Y-9998000D02*
X10379000Y-10068000D01*
X10379000Y-12157000D02*
X10449000Y-12227000D01*
X10449000Y-12157000D02*
X10379000Y-12227000D01*
X10887000Y-5045000D02*
X10957000Y-5115000D01*
X10957000Y-5045000D02*
X10887000Y-5115000D01*
X10887000Y-6696000D02*
X10957000Y-6766000D01*
X10957000Y-6696000D02*
X10887000Y-6766000D01*
X10887000Y-8347000D02*
X10957000Y-8417000D01*
X10957000Y-8347000D02*
X10887000Y-8417000D01*
X10887000Y-9998000D02*
X10957000Y-10068000D01*
X10957000Y-9998000D02*
X10887000Y-10068000D01*
X10887000Y-12157000D02*
X10957000Y-12227000D01*
X10957000Y-12157000D02*
X10887000Y-12227000D01*
X11903000Y-5045000D02*
X11973000Y-5115000D01*
X11973000Y-5045000D02*
X11903000Y-5115000D01*
X11903000Y-6696000D02*
X11973000Y-6766000D01*
X11973000Y-6696000D02*
X11903000Y-6766000D01*
X11903000Y-8347000D02*
X11973000Y-8417000D01*
X11973000Y-8347000D02*
X11903000Y-8417000D01*
X11903000Y-9998000D02*
X11973000Y-10068000D01*
X11973000Y-9998000D02*
X11903000Y-10068000D01*
X11903000Y-12157000D02*
X11973000Y-12227000D01*
X11973000Y-12157000D02*
X11903000Y-12227000D01*
X12411000Y-5045000D02*
X12481000Y-5115000D01*
X12481000Y-5045000D02*
X12411000Y-5115000D01*
X12411000Y-6696000D02*
X12481000Y-6766000D01*
X12481000Y-6696000D02*
X12411000Y-6766000D01*
X12411000Y-8347000D02*
X12481000Y-8417000D01*
X12481000Y-8347000D02*
X12411000Y-8417000D01*
X12411000Y-9998000D02*
X12481000Y-10068000D01*
X12481000Y-9998000D02*
X12411000Y-10068000D01*
X12411000Y-12157000D02*
X12481000Y-12227000D01*
X12481000Y-12157000D02*
X12411000Y-12227000D01*
D13*
X6260500Y-10922000D02*
G75*
G03*
X6260500Y-10922000I-37500J0D01*
G01*
X6260500Y-11049000D02*
G75*
G03*
X6260500Y-11049000I-37500J0D01*
G01*
X6260500Y-11176000D02*
G75*
G03*
X6260500Y-11176000I-37500J0D01*
G01*
D14*
X8001000Y-6608900D02*
X8001000Y-6685100D01*
X7962900Y-6647000D02*
X8039100Y-6647000D01*
X8255000Y-6608900D02*
X8255000Y-6685100D01*
X8216900Y-6647000D02*
X8293100Y-6647000D01*
X8509000Y-6608900D02*
X8509000Y-6685100D01*
X8470900Y-6647000D02*
X8547100Y-6647000D01*
X8763000Y-6608900D02*
X8763000Y-6685100D01*
X8724900Y-6647000D02*
X8801100Y-6647000D01*
D15*
X4980285Y-7775284D02*
X4980285Y-7718715D01*
X4923716Y-7718715D01*
X4923716Y-7775284D01*
X4980285Y-7775284D01*
X4980285Y-8029284D02*
X4980285Y-7972715D01*
X4923716Y-7972715D01*
X4923716Y-8029284D01*
X4980285Y-8029284D01*
X4980285Y-8283284D02*
X4980285Y-8226715D01*
X4923716Y-8226715D01*
X4923716Y-8283284D01*
X4980285Y-8283284D01*
X4980285Y-8537285D02*
X4980285Y-8480716D01*
X4923716Y-8480716D01*
X4923716Y-8537285D01*
X4980285Y-8537285D01*
X4980285Y-8791285D02*
X4980285Y-8734716D01*
X4923716Y-8734716D01*
X4923716Y-8791285D01*
X4980285Y-8791285D01*
X4980285Y-9045285D02*
X4980285Y-8988716D01*
X4923716Y-8988716D01*
X4923716Y-9045285D01*
X4980285Y-9045285D01*
X4980285Y-9299285D02*
X4980285Y-9242716D01*
X4923716Y-9242716D01*
X4923716Y-9299285D01*
X4980285Y-9299285D01*
X4980285Y-9553285D02*
X4980285Y-9496716D01*
X4923716Y-9496716D01*
X4923716Y-9553285D01*
X4980285Y-9553285D01*
X4980285Y-9807285D02*
X4980285Y-9750716D01*
X4923716Y-9750716D01*
X4923716Y-9807285D01*
X4980285Y-9807285D01*
X4980285Y-10061285D02*
X4980285Y-10004716D01*
X4923716Y-10004716D01*
X4923716Y-10061285D01*
X4980285Y-10061285D01*
X4980285Y-10315285D02*
X4980285Y-10258716D01*
X4923716Y-10258716D01*
X4923716Y-10315285D01*
X4980285Y-10315285D01*
X4980285Y-10569285D02*
X4980285Y-10512716D01*
X4923716Y-10512716D01*
X4923716Y-10569285D01*
X4980285Y-10569285D01*
X4980285Y-10823285D02*
X4980285Y-10766716D01*
X4923716Y-10766716D01*
X4923716Y-10823285D01*
X4980285Y-10823285D01*
X4980285Y-11077285D02*
X4980285Y-11020716D01*
X4923716Y-11020716D01*
X4923716Y-11077285D01*
X4980285Y-11077285D01*
X5491285Y-6441784D02*
X5491285Y-6385215D01*
X5434716Y-6385215D01*
X5434716Y-6441784D01*
X5491285Y-6441784D01*
X5493285Y-12156784D02*
X5493285Y-12100215D01*
X5436716Y-12100215D01*
X5436716Y-12156784D01*
X5493285Y-12156784D01*
X5741284Y-6441784D02*
X5741284Y-6385215D01*
X5684715Y-6385215D01*
X5684715Y-6441784D01*
X5741284Y-6441784D01*
X5742284Y-7775284D02*
X5742284Y-7718715D01*
X5685715Y-7718715D01*
X5685715Y-7775284D01*
X5742284Y-7775284D01*
X5742284Y-8029284D02*
X5742284Y-7972715D01*
X5685715Y-7972715D01*
X5685715Y-8029284D01*
X5742284Y-8029284D01*
X5742284Y-8283284D02*
X5742284Y-8226715D01*
X5685715Y-8226715D01*
X5685715Y-8283284D01*
X5742284Y-8283284D01*
X5742284Y-8537285D02*
X5742284Y-8480716D01*
X5685715Y-8480716D01*
X5685715Y-8537285D01*
X5742284Y-8537285D01*
X5742284Y-8791285D02*
X5742284Y-8734716D01*
X5685715Y-8734716D01*
X5685715Y-8791285D01*
X5742284Y-8791285D01*
X5742284Y-9045285D02*
X5742284Y-8988716D01*
X5685715Y-8988716D01*
X5685715Y-9045285D01*
X5742284Y-9045285D01*
X5742284Y-9299285D02*
X5742284Y-9242716D01*
X5685715Y-9242716D01*
X5685715Y-9299285D01*
X5742284Y-9299285D01*
X5742284Y-9553285D02*
X5742284Y-9496716D01*
X5685715Y-9496716D01*
X5685715Y-9553285D01*
X5742284Y-9553285D01*
X5742284Y-9807285D02*
X5742284Y-9750716D01*
X5685715Y-9750716D01*
X5685715Y-9807285D01*
X5742284Y-9807285D01*
X5742284Y-10061285D02*
X5742284Y-10004716D01*
X5685715Y-10004716D01*
X5685715Y-10061285D01*
X5742284Y-10061285D01*
X5742284Y-10315285D02*
X5742284Y-10258716D01*
X5685715Y-10258716D01*
X5685715Y-10315285D01*
X5742284Y-10315285D01*
X5742284Y-10569285D02*
X5742284Y-10512716D01*
X5685715Y-10512716D01*
X5685715Y-10569285D01*
X5742284Y-10569285D01*
X5742284Y-10823285D02*
X5742284Y-10766716D01*
X5685715Y-10766716D01*
X5685715Y-10823285D01*
X5742284Y-10823285D01*
X5742284Y-11077285D02*
X5742284Y-11020716D01*
X5685715Y-11020716D01*
X5685715Y-11077285D01*
X5742284Y-11077285D01*
X5743284Y-12156784D02*
X5743284Y-12100215D01*
X5686715Y-12100215D01*
X5686715Y-12156784D01*
X5743284Y-12156784D01*
X5993284Y-12156784D02*
X5993284Y-12100215D01*
X5936715Y-12100215D01*
X5936715Y-12156784D01*
X5993284Y-12156784D01*
X6124284Y-8793285D02*
X6124284Y-8736716D01*
X6067715Y-8736716D01*
X6067715Y-8793285D01*
X6124284Y-8793285D01*
X6124284Y-9043285D02*
X6124284Y-8986716D01*
X6067715Y-8986716D01*
X6067715Y-9043285D01*
X6124284Y-9043285D01*
X6251284Y-9564285D02*
X6251284Y-9507716D01*
X6194715Y-9507716D01*
X6194715Y-9564285D01*
X6251284Y-9564285D01*
X6251284Y-9808285D02*
X6251284Y-9751716D01*
X6194715Y-9751716D01*
X6194715Y-9808285D01*
X6251284Y-9808285D01*
X6251284Y-10052285D02*
X6251284Y-9995716D01*
X6194715Y-9995716D01*
X6194715Y-10052285D01*
X6251284Y-10052285D01*
X6257773Y-11775784D02*
X6257773Y-11719215D01*
X6201204Y-11719215D01*
X6201204Y-11775784D01*
X6257773Y-11775784D01*
X6507773Y-11775784D02*
X6507773Y-11719215D01*
X6451204Y-11719215D01*
X6451204Y-11775784D01*
X6507773Y-11775784D01*
X10568285Y-4854285D02*
X10568285Y-4797716D01*
X10511716Y-4797716D01*
X10511716Y-4854285D01*
X10568285Y-4854285D01*
X10568285Y-6505284D02*
X10568285Y-6448715D01*
X10511716Y-6448715D01*
X10511716Y-6505284D01*
X10568285Y-6505284D01*
X10568285Y-8156284D02*
X10568285Y-8099715D01*
X10511716Y-8099715D01*
X10511716Y-8156284D01*
X10568285Y-8156284D01*
X10568285Y-9807285D02*
X10568285Y-9750716D01*
X10511716Y-9750716D01*
X10511716Y-9807285D01*
X10568285Y-9807285D01*
X10568285Y-11966284D02*
X10568285Y-11909715D01*
X10511716Y-11909715D01*
X10511716Y-11966284D01*
X10568285Y-11966284D01*
X11206284Y-5108285D02*
X11206284Y-5051716D01*
X11149716Y-5051716D01*
X11149716Y-5108285D01*
X11206284Y-5108285D01*
X11208284Y-6759284D02*
X11208284Y-6702715D01*
X11151716Y-6702715D01*
X11151716Y-6759284D01*
X11208284Y-6759284D01*
X11208284Y-8410285D02*
X11208284Y-8353715D01*
X11151716Y-8353715D01*
X11151716Y-8410285D01*
X11208284Y-8410285D01*
X11208284Y-10061285D02*
X11208284Y-10004716D01*
X11151716Y-10004716D01*
X11151716Y-10061285D01*
X11208284Y-10061285D01*
X11208284Y-12220284D02*
X11208284Y-12163715D01*
X11151716Y-12163715D01*
X11151716Y-12220284D01*
X11208284Y-12220284D01*
X11330284Y-3837284D02*
X11330284Y-3780715D01*
X11273715Y-3780715D01*
X11273715Y-3837284D01*
X11330284Y-3837284D01*
X11330284Y-5488285D02*
X11330284Y-5431716D01*
X11273715Y-5431716D01*
X11273715Y-5488285D01*
X11330284Y-5488285D01*
X11330284Y-7139284D02*
X11330284Y-7082715D01*
X11273715Y-7082715D01*
X11273715Y-7139284D01*
X11330284Y-7139284D01*
X11330284Y-8790285D02*
X11330284Y-8733716D01*
X11273715Y-8733716D01*
X11273715Y-8790285D01*
X11330284Y-8790285D01*
X11330284Y-10949285D02*
X11330284Y-10892716D01*
X11273715Y-10892716D01*
X11273715Y-10949285D01*
X11330284Y-10949285D01*
X11456284Y-5108285D02*
X11456284Y-5051716D01*
X11399715Y-5051716D01*
X11399715Y-5108285D01*
X11456284Y-5108285D01*
X11458284Y-6759284D02*
X11458284Y-6702715D01*
X11401715Y-6702715D01*
X11401715Y-6759284D01*
X11458284Y-6759284D01*
X11458284Y-8410285D02*
X11458284Y-8353715D01*
X11401715Y-8353715D01*
X11401715Y-8410285D01*
X11458284Y-8410285D01*
X11458284Y-10061285D02*
X11458284Y-10004716D01*
X11401715Y-10004716D01*
X11401715Y-10061285D01*
X11458284Y-10061285D01*
X11458284Y-12220284D02*
X11458284Y-12163715D01*
X11401715Y-12163715D01*
X11401715Y-12220284D01*
X11458284Y-12220284D01*
X12092284Y-4854285D02*
X12092284Y-4797716D01*
X12035715Y-4797716D01*
X12035715Y-4854285D01*
X12092284Y-4854285D01*
X12092284Y-6505284D02*
X12092284Y-6448715D01*
X12035715Y-6448715D01*
X12035715Y-6505284D01*
X12092284Y-6505284D01*
X12092284Y-8156284D02*
X12092284Y-8099715D01*
X12035715Y-8099715D01*
X12035715Y-8156284D01*
X12092284Y-8156284D01*
X12092284Y-9807285D02*
X12092284Y-9750716D01*
X12035715Y-9750716D01*
X12035715Y-9807285D01*
X12092284Y-9807285D01*
X12092284Y-11966284D02*
X12092284Y-11909715D01*
X12035715Y-11909715D01*
X12035715Y-11966284D01*
X12092284Y-11966284D01*
X12732284Y-5108285D02*
X12732284Y-5051716D01*
X12675715Y-5051716D01*
X12675715Y-5108285D01*
X12732284Y-5108285D01*
X12732284Y-6759284D02*
X12732284Y-6702715D01*
X12675715Y-6702715D01*
X12675715Y-6759284D01*
X12732284Y-6759284D01*
X12732284Y-8410285D02*
X12732284Y-8353715D01*
X12675715Y-8353715D01*
X12675715Y-8410285D01*
X12732284Y-8410285D01*
X12732284Y-10061285D02*
X12732284Y-10004716D01*
X12675715Y-10004716D01*
X12675715Y-10061285D01*
X12732284Y-10061285D01*
X12732284Y-12220284D02*
X12732284Y-12163715D01*
X12675715Y-12163715D01*
X12675715Y-12220284D01*
X12732284Y-12220284D01*
X12854284Y-3837284D02*
X12854284Y-3780715D01*
X12797715Y-3780715D01*
X12797715Y-3837284D01*
X12854284Y-3837284D01*
X12854284Y-5488285D02*
X12854284Y-5431716D01*
X12797715Y-5431716D01*
X12797715Y-5488285D01*
X12854284Y-5488285D01*
X12854284Y-7139284D02*
X12854284Y-7082715D01*
X12797715Y-7082715D01*
X12797715Y-7139284D01*
X12854284Y-7139284D01*
X12854284Y-8790285D02*
X12854284Y-8733716D01*
X12797715Y-8733716D01*
X12797715Y-8790285D01*
X12854284Y-8790285D01*
X12854284Y-10949285D02*
X12854284Y-10892716D01*
X12797715Y-10892716D01*
X12797715Y-10949285D01*
X12854284Y-10949285D01*
X12982284Y-5108285D02*
X12982284Y-5051716D01*
X12925715Y-5051716D01*
X12925715Y-5108285D01*
X12982284Y-5108285D01*
X12982284Y-6759284D02*
X12982284Y-6702715D01*
X12925715Y-6702715D01*
X12925715Y-6759284D01*
X12982284Y-6759284D01*
X12982284Y-8410285D02*
X12982284Y-8353715D01*
X12925715Y-8353715D01*
X12925715Y-8410285D01*
X12982284Y-8410285D01*
X12982284Y-10061285D02*
X12982284Y-10004716D01*
X12925715Y-10004716D01*
X12925715Y-10061285D01*
X12982284Y-10061285D01*
X12982284Y-12220284D02*
X12982284Y-12163715D01*
X12925715Y-12163715D01*
X12925715Y-12220284D01*
X12982284Y-12220284D01*
D16*
X7882000Y-10837500D02*
X7924500Y-10795000D01*
X7882000Y-10752500D01*
X7839500Y-10795000D01*
X7882000Y-10837500D01*
X8882000Y-10837500D02*
X8924500Y-10795000D01*
X8882000Y-10752500D01*
X8839500Y-10795000D01*
X8882000Y-10837500D01*
D17*
X7602000Y-12118500D02*
X7702000Y-12218500D01*
X7702000Y-12118500D02*
X7602000Y-12218500D01*
X7702000Y-12168500D02*
G75*
G03*
X7702000Y-12168500I-50000J0D01*
G01*
X9062000Y-12118500D02*
X9162000Y-12218500D01*
X9162000Y-12118500D02*
X9062000Y-12218500D01*
X9162000Y-12168500D02*
G75*
G03*
X9162000Y-12168500I-50000J0D01*
G01*
D18*
X4902000Y-4140000D02*
X5004000Y-4242000D01*
X5004000Y-4140000D02*
X4902000Y-4242000D01*
X4953000Y-4140000D02*
X4953000Y-4242000D01*
X4902000Y-4191000D02*
X5004000Y-4191000D01*
X4902000Y-5918000D02*
X5004000Y-6020000D01*
X5004000Y-5918000D02*
X4902000Y-6020000D01*
X4953000Y-5918000D02*
X4953000Y-6020000D01*
X4902000Y-5969000D02*
X5004000Y-5969000D01*
X5156000Y-4140000D02*
X5258000Y-4242000D01*
X5258000Y-4140000D02*
X5156000Y-4242000D01*
X5207000Y-4140000D02*
X5207000Y-4242000D01*
X5156000Y-4191000D02*
X5258000Y-4191000D01*
X5156000Y-5918000D02*
X5258000Y-6020000D01*
X5258000Y-5918000D02*
X5156000Y-6020000D01*
X5207000Y-5918000D02*
X5207000Y-6020000D01*
X5156000Y-5969000D02*
X5258000Y-5969000D01*
X5410000Y-4140000D02*
X5512000Y-4242000D01*
X5512000Y-4140000D02*
X5410000Y-4242000D01*
X5461000Y-4140000D02*
X5461000Y-4242000D01*
X5410000Y-4191000D02*
X5512000Y-4191000D01*
X5410000Y-5918000D02*
X5512000Y-6020000D01*
X5512000Y-5918000D02*
X5410000Y-6020000D01*
X5461000Y-5918000D02*
X5461000Y-6020000D01*
X5410000Y-5969000D02*
X5512000Y-5969000D01*
X5664000Y-4140000D02*
X5766000Y-4242000D01*
X5766000Y-4140000D02*
X5664000Y-4242000D01*
X5715000Y-4140000D02*
X5715000Y-4242000D01*
X5664000Y-4191000D02*
X5766000Y-4191000D01*
X5664000Y-5918000D02*
X5766000Y-6020000D01*
X5766000Y-5918000D02*
X5664000Y-6020000D01*
X5715000Y-5918000D02*
X5715000Y-6020000D01*
X5664000Y-5969000D02*
X5766000Y-5969000D01*
X5918000Y-4140000D02*
X6020000Y-4242000D01*
X6020000Y-4140000D02*
X5918000Y-4242000D01*
X5969000Y-4140000D02*
X5969000Y-4242000D01*
X5918000Y-4191000D02*
X6020000Y-4191000D01*
X5918000Y-5918000D02*
X6020000Y-6020000D01*
X6020000Y-5918000D02*
X5918000Y-6020000D01*
X5969000Y-5918000D02*
X5969000Y-6020000D01*
X5918000Y-5969000D02*
X6020000Y-5969000D01*
X6172000Y-4140000D02*
X6274000Y-4242000D01*
X6274000Y-4140000D02*
X6172000Y-4242000D01*
X6223000Y-4140000D02*
X6223000Y-4242000D01*
X6172000Y-4191000D02*
X6274000Y-4191000D01*
X6172000Y-5918000D02*
X6274000Y-6020000D01*
X6274000Y-5918000D02*
X6172000Y-6020000D01*
X6223000Y-5918000D02*
X6223000Y-6020000D01*
X6172000Y-5969000D02*
X6274000Y-5969000D01*
X6426000Y-4140000D02*
X6528000Y-4242000D01*
X6528000Y-4140000D02*
X6426000Y-4242000D01*
X6477000Y-4140000D02*
X6477000Y-4242000D01*
X6426000Y-4191000D02*
X6528000Y-4191000D01*
X6426000Y-5918000D02*
X6528000Y-6020000D01*
X6528000Y-5918000D02*
X6426000Y-6020000D01*
X6477000Y-5918000D02*
X6477000Y-6020000D01*
X6426000Y-5969000D02*
X6528000Y-5969000D01*
X6680000Y-4140000D02*
X6782000Y-4242000D01*
X6782000Y-4140000D02*
X6680000Y-4242000D01*
X6731000Y-4140000D02*
X6731000Y-4242000D01*
X6680000Y-4191000D02*
X6782000Y-4191000D01*
X6680000Y-5918000D02*
X6782000Y-6020000D01*
X6782000Y-5918000D02*
X6680000Y-6020000D01*
X6731000Y-5918000D02*
X6731000Y-6020000D01*
X6680000Y-5969000D02*
X6782000Y-5969000D01*
X6934000Y-4140000D02*
X7036000Y-4242000D01*
X7036000Y-4140000D02*
X6934000Y-4242000D01*
X6985000Y-4140000D02*
X6985000Y-4242000D01*
X6934000Y-4191000D02*
X7036000Y-4191000D01*
X6934000Y-5918000D02*
X7036000Y-6020000D01*
X7036000Y-5918000D02*
X6934000Y-6020000D01*
X6985000Y-5918000D02*
X6985000Y-6020000D01*
X6934000Y-5969000D02*
X7036000Y-5969000D01*
X7188000Y-4140000D02*
X7290000Y-4242000D01*
X7290000Y-4140000D02*
X7188000Y-4242000D01*
X7239000Y-4140000D02*
X7239000Y-4242000D01*
X7188000Y-4191000D02*
X7290000Y-4191000D01*
X7188000Y-5918000D02*
X7290000Y-6020000D01*
X7290000Y-5918000D02*
X7188000Y-6020000D01*
X7239000Y-5918000D02*
X7239000Y-6020000D01*
X7188000Y-5969000D02*
X7290000Y-5969000D01*
X7442000Y-4140000D02*
X7544000Y-4242000D01*
X7544000Y-4140000D02*
X7442000Y-4242000D01*
X7493000Y-4140000D02*
X7493000Y-4242000D01*
X7442000Y-4191000D02*
X7544000Y-4191000D01*
X7442000Y-5918000D02*
X7544000Y-6020000D01*
X7544000Y-5918000D02*
X7442000Y-6020000D01*
X7493000Y-5918000D02*
X7493000Y-6020000D01*
X7442000Y-5969000D02*
X7544000Y-5969000D01*
X7696000Y-4140000D02*
X7798000Y-4242000D01*
X7798000Y-4140000D02*
X7696000Y-4242000D01*
X7747000Y-4140000D02*
X7747000Y-4242000D01*
X7696000Y-4191000D02*
X7798000Y-4191000D01*
X7696000Y-5918000D02*
X7798000Y-6020000D01*
X7798000Y-5918000D02*
X7696000Y-6020000D01*
X7747000Y-5918000D02*
X7747000Y-6020000D01*
X7696000Y-5969000D02*
X7798000Y-5969000D01*
X7950000Y-4140000D02*
X8052000Y-4242000D01*
X8052000Y-4140000D02*
X7950000Y-4242000D01*
X8001000Y-4140000D02*
X8001000Y-4242000D01*
X7950000Y-4191000D02*
X8052000Y-4191000D01*
X7950000Y-5918000D02*
X8052000Y-6020000D01*
X8052000Y-5918000D02*
X7950000Y-6020000D01*
X8001000Y-5918000D02*
X8001000Y-6020000D01*
X7950000Y-5969000D02*
X8052000Y-5969000D01*
X8204000Y-4140000D02*
X8306000Y-4242000D01*
X8306000Y-4140000D02*
X8204000Y-4242000D01*
X8255000Y-4140000D02*
X8255000Y-4242000D01*
X8204000Y-4191000D02*
X8306000Y-4191000D01*
X8204000Y-5918000D02*
X8306000Y-6020000D01*
X8306000Y-5918000D02*
X8204000Y-6020000D01*
X8255000Y-5918000D02*
X8255000Y-6020000D01*
X8204000Y-5969000D02*
X8306000Y-5969000D01*
X8458000Y-4140000D02*
X8560000Y-4242000D01*
X8560000Y-4140000D02*
X8458000Y-4242000D01*
X8509000Y-4140000D02*
X8509000Y-4242000D01*
X8458000Y-4191000D02*
X8560000Y-4191000D01*
X8458000Y-5918000D02*
X8560000Y-6020000D01*
X8560000Y-5918000D02*
X8458000Y-6020000D01*
X8509000Y-5918000D02*
X8509000Y-6020000D01*
X8458000Y-5969000D02*
X8560000Y-5969000D01*
X8712000Y-4140000D02*
X8814000Y-4242000D01*
X8814000Y-4140000D02*
X8712000Y-4242000D01*
X8763000Y-4140000D02*
X8763000Y-4242000D01*
X8712000Y-4191000D02*
X8814000Y-4191000D01*
X8712000Y-5918000D02*
X8814000Y-6020000D01*
X8814000Y-5918000D02*
X8712000Y-6020000D01*
X8763000Y-5918000D02*
X8763000Y-6020000D01*
X8712000Y-5969000D02*
X8814000Y-5969000D01*
X8966000Y-4140000D02*
X9068000Y-4242000D01*
X9068000Y-4140000D02*
X8966000Y-4242000D01*
X9017000Y-4140000D02*
X9017000Y-4242000D01*
X8966000Y-4191000D02*
X9068000Y-4191000D01*
X8966000Y-5918000D02*
X9068000Y-6020000D01*
X9068000Y-5918000D02*
X8966000Y-6020000D01*
X9017000Y-5918000D02*
X9017000Y-6020000D01*
X8966000Y-5969000D02*
X9068000Y-5969000D01*
X9220000Y-4140000D02*
X9322000Y-4242000D01*
X9322000Y-4140000D02*
X9220000Y-4242000D01*
X9271000Y-4140000D02*
X9271000Y-4242000D01*
X9220000Y-4191000D02*
X9322000Y-4191000D01*
X9220000Y-5918000D02*
X9322000Y-6020000D01*
X9322000Y-5918000D02*
X9220000Y-6020000D01*
X9271000Y-5918000D02*
X9271000Y-6020000D01*
X9220000Y-5969000D02*
X9322000Y-5969000D01*
X9474000Y-4140000D02*
X9576000Y-4242000D01*
X9576000Y-4140000D02*
X9474000Y-4242000D01*
X9525000Y-4140000D02*
X9525000Y-4242000D01*
X9474000Y-4191000D02*
X9576000Y-4191000D01*
X9474000Y-5918000D02*
X9576000Y-6020000D01*
X9576000Y-5918000D02*
X9474000Y-6020000D01*
X9525000Y-5918000D02*
X9525000Y-6020000D01*
X9474000Y-5969000D02*
X9576000Y-5969000D01*
X9705000Y-4775000D02*
X9807000Y-4877000D01*
X9807000Y-4775000D02*
X9705000Y-4877000D01*
X9756000Y-4775000D02*
X9756000Y-4877000D01*
X9705000Y-4826000D02*
X9807000Y-4826000D01*
X9705000Y-5029000D02*
X9807000Y-5131000D01*
X9807000Y-5029000D02*
X9705000Y-5131000D01*
X9756000Y-5029000D02*
X9756000Y-5131000D01*
X9705000Y-5080000D02*
X9807000Y-5080000D01*
X9705000Y-5283000D02*
X9807000Y-5385000D01*
X9807000Y-5283000D02*
X9705000Y-5385000D01*
X9756000Y-5283000D02*
X9756000Y-5385000D01*
X9705000Y-5334000D02*
X9807000Y-5334000D01*
X9728000Y-4140000D02*
X9830000Y-4242000D01*
X9830000Y-4140000D02*
X9728000Y-4242000D01*
X9779000Y-4140000D02*
X9779000Y-4242000D01*
X9728000Y-4191000D02*
X9830000Y-4191000D01*
X9728000Y-5918000D02*
X9830000Y-6020000D01*
X9830000Y-5918000D02*
X9728000Y-6020000D01*
X9779000Y-5918000D02*
X9779000Y-6020000D01*
X9728000Y-5969000D02*
X9830000Y-5969000D01*
D19*
X10237000Y-4008000D02*
X10357000Y-4128000D01*
X10357000Y-4008000D02*
X10237000Y-4128000D01*
X10339427Y-4110427D02*
X10339427Y-4025573D01*
X10254573Y-4025573D01*
X10254573Y-4110427D01*
X10339427Y-4110427D01*
X10237000Y-4508000D02*
X10357000Y-4628000D01*
X10357000Y-4508000D02*
X10237000Y-4628000D01*
X10339427Y-4610427D02*
X10339427Y-4525573D01*
X10254573Y-4525573D01*
X10254573Y-4610427D01*
X10339427Y-4610427D01*
X10237000Y-5659000D02*
X10357000Y-5779000D01*
X10357000Y-5659000D02*
X10237000Y-5779000D01*
X10339427Y-5761427D02*
X10339427Y-5676573D01*
X10254573Y-5676573D01*
X10254573Y-5761427D01*
X10339427Y-5761427D01*
X10237000Y-6159000D02*
X10357000Y-6279000D01*
X10357000Y-6159000D02*
X10237000Y-6279000D01*
X10339427Y-6261427D02*
X10339427Y-6176573D01*
X10254573Y-6176573D01*
X10254573Y-6261427D01*
X10339427Y-6261427D01*
X10237000Y-7310000D02*
X10357000Y-7430000D01*
X10357000Y-7310000D02*
X10237000Y-7430000D01*
X10339427Y-7412427D02*
X10339427Y-7327573D01*
X10254573Y-7327573D01*
X10254573Y-7412427D01*
X10339427Y-7412427D01*
X10237000Y-7810000D02*
X10357000Y-7930000D01*
X10357000Y-7810000D02*
X10237000Y-7930000D01*
X10339427Y-7912427D02*
X10339427Y-7827573D01*
X10254573Y-7827573D01*
X10254573Y-7912427D01*
X10339427Y-7912427D01*
X10237000Y-8961000D02*
X10357000Y-9081000D01*
X10357000Y-8961000D02*
X10237000Y-9081000D01*
X10339427Y-9063427D02*
X10339427Y-8978573D01*
X10254573Y-8978573D01*
X10254573Y-9063427D01*
X10339427Y-9063427D01*
X10237000Y-9461000D02*
X10357000Y-9581000D01*
X10357000Y-9461000D02*
X10237000Y-9581000D01*
X10339427Y-9563427D02*
X10339427Y-9478573D01*
X10254573Y-9478573D01*
X10254573Y-9563427D01*
X10339427Y-9563427D01*
X10237000Y-11120000D02*
X10357000Y-11240000D01*
X10357000Y-11120000D02*
X10237000Y-11240000D01*
X10339427Y-11222427D02*
X10339427Y-11137573D01*
X10254573Y-11137573D01*
X10254573Y-11222427D01*
X10339427Y-11222427D01*
X10237000Y-11620000D02*
X10357000Y-11740000D01*
X10357000Y-11620000D02*
X10237000Y-11740000D01*
X10339427Y-11722427D02*
X10339427Y-11637573D01*
X10254573Y-11637573D01*
X10254573Y-11722427D01*
X10339427Y-11722427D01*
X11487000Y-4008000D02*
X11607000Y-4128000D01*
X11607000Y-4008000D02*
X11487000Y-4128000D01*
X11589427Y-4110427D02*
X11589427Y-4025573D01*
X11504573Y-4025573D01*
X11504573Y-4110427D01*
X11589427Y-4110427D01*
X11487000Y-4508000D02*
X11607000Y-4628000D01*
X11607000Y-4508000D02*
X11487000Y-4628000D01*
X11589427Y-4610427D02*
X11589427Y-4525573D01*
X11504573Y-4525573D01*
X11504573Y-4610427D01*
X11589427Y-4610427D01*
X11487000Y-5659000D02*
X11607000Y-5779000D01*
X11607000Y-5659000D02*
X11487000Y-5779000D01*
X11589427Y-5761427D02*
X11589427Y-5676573D01*
X11504573Y-5676573D01*
X11504573Y-5761427D01*
X11589427Y-5761427D01*
X11487000Y-6159000D02*
X11607000Y-6279000D01*
X11607000Y-6159000D02*
X11487000Y-6279000D01*
X11589427Y-6261427D02*
X11589427Y-6176573D01*
X11504573Y-6176573D01*
X11504573Y-6261427D01*
X11589427Y-6261427D01*
X11487000Y-7310000D02*
X11607000Y-7430000D01*
X11607000Y-7310000D02*
X11487000Y-7430000D01*
X11589427Y-7412427D02*
X11589427Y-7327573D01*
X11504573Y-7327573D01*
X11504573Y-7412427D01*
X11589427Y-7412427D01*
X11487000Y-7810000D02*
X11607000Y-7930000D01*
X11607000Y-7810000D02*
X11487000Y-7930000D01*
X11589427Y-7912427D02*
X11589427Y-7827573D01*
X11504573Y-7827573D01*
X11504573Y-7912427D01*
X11589427Y-7912427D01*
X11487000Y-8961000D02*
X11607000Y-9081000D01*
X11607000Y-8961000D02*
X11487000Y-9081000D01*
X11589427Y-9063427D02*
X11589427Y-8978573D01*
X11504573Y-8978573D01*
X11504573Y-9063427D01*
X11589427Y-9063427D01*
X11487000Y-9461000D02*
X11607000Y-9581000D01*
X11607000Y-9461000D02*
X11487000Y-9581000D01*
X11589427Y-9563427D02*
X11589427Y-9478573D01*
X11504573Y-9478573D01*
X11504573Y-9563427D01*
X11589427Y-9563427D01*
X11487000Y-11120000D02*
X11607000Y-11240000D01*
X11607000Y-11120000D02*
X11487000Y-11240000D01*
X11589427Y-11222427D02*
X11589427Y-11137573D01*
X11504573Y-11137573D01*
X11504573Y-11222427D01*
X11589427Y-11222427D01*
X11487000Y-11620000D02*
X11607000Y-11740000D01*
X11607000Y-11620000D02*
X11487000Y-11740000D01*
X11589427Y-11722427D02*
X11589427Y-11637573D01*
X11504573Y-11637573D01*
X11504573Y-11722427D01*
X11589427Y-11722427D01*
X11761000Y-4008000D02*
X11881000Y-4128000D01*
X11881000Y-4008000D02*
X11761000Y-4128000D01*
X11863427Y-4110427D02*
X11863427Y-4025573D01*
X11778573Y-4025573D01*
X11778573Y-4110427D01*
X11863427Y-4110427D01*
X11761000Y-4508000D02*
X11881000Y-4628000D01*
X11881000Y-4508000D02*
X11761000Y-4628000D01*
X11863427Y-4610427D02*
X11863427Y-4525573D01*
X11778573Y-4525573D01*
X11778573Y-4610427D01*
X11863427Y-4610427D01*
X11761000Y-5659000D02*
X11881000Y-5779000D01*
X11881000Y-5659000D02*
X11761000Y-5779000D01*
X11863427Y-5761427D02*
X11863427Y-5676573D01*
X11778573Y-5676573D01*
X11778573Y-5761427D01*
X11863427Y-5761427D01*
X11761000Y-6159000D02*
X11881000Y-6279000D01*
X11881000Y-6159000D02*
X11761000Y-6279000D01*
X11863427Y-6261427D02*
X11863427Y-6176573D01*
X11778573Y-6176573D01*
X11778573Y-6261427D01*
X11863427Y-6261427D01*
X11761000Y-7310000D02*
X11881000Y-7430000D01*
X11881000Y-7310000D02*
X11761000Y-7430000D01*
X11863427Y-7412427D02*
X11863427Y-7327573D01*
X11778573Y-7327573D01*
X11778573Y-7412427D01*
X11863427Y-7412427D01*
X11761000Y-7810000D02*
X11881000Y-7930000D01*
X11881000Y-7810000D02*
X11761000Y-7930000D01*
X11863427Y-7912427D02*
X11863427Y-7827573D01*
X11778573Y-7827573D01*
X11778573Y-7912427D01*
X11863427Y-7912427D01*
X11761000Y-8961000D02*
X11881000Y-9081000D01*
X11881000Y-8961000D02*
X11761000Y-9081000D01*
X11863427Y-9063427D02*
X11863427Y-8978573D01*
X11778573Y-8978573D01*
X11778573Y-9063427D01*
X11863427Y-9063427D01*
X11761000Y-9461000D02*
X11881000Y-9581000D01*
X11881000Y-9461000D02*
X11761000Y-9581000D01*
X11863427Y-9563427D02*
X11863427Y-9478573D01*
X11778573Y-9478573D01*
X11778573Y-9563427D01*
X11863427Y-9563427D01*
X11761000Y-11120000D02*
X11881000Y-11240000D01*
X11881000Y-11120000D02*
X11761000Y-11240000D01*
X11863427Y-11222427D02*
X11863427Y-11137573D01*
X11778573Y-11137573D01*
X11778573Y-11222427D01*
X11863427Y-11222427D01*
X11761000Y-11620000D02*
X11881000Y-11740000D01*
X11881000Y-11620000D02*
X11761000Y-11740000D01*
X11863427Y-11722427D02*
X11863427Y-11637573D01*
X11778573Y-11637573D01*
X11778573Y-11722427D01*
X11863427Y-11722427D01*
X13011000Y-4008000D02*
X13131000Y-4128000D01*
X13131000Y-4008000D02*
X13011000Y-4128000D01*
X13113427Y-4110427D02*
X13113427Y-4025573D01*
X13028573Y-4025573D01*
X13028573Y-4110427D01*
X13113427Y-4110427D01*
X13011000Y-4508000D02*
X13131000Y-4628000D01*
X13131000Y-4508000D02*
X13011000Y-4628000D01*
X13113427Y-4610427D02*
X13113427Y-4525573D01*
X13028573Y-4525573D01*
X13028573Y-4610427D01*
X13113427Y-4610427D01*
X13011000Y-5659000D02*
X13131000Y-5779000D01*
X13131000Y-5659000D02*
X13011000Y-5779000D01*
X13113427Y-5761427D02*
X13113427Y-5676573D01*
X13028573Y-5676573D01*
X13028573Y-5761427D01*
X13113427Y-5761427D01*
X13011000Y-6159000D02*
X13131000Y-6279000D01*
X13131000Y-6159000D02*
X13011000Y-6279000D01*
X13113427Y-6261427D02*
X13113427Y-6176573D01*
X13028573Y-6176573D01*
X13028573Y-6261427D01*
X13113427Y-6261427D01*
X13011000Y-7310000D02*
X13131000Y-7430000D01*
X13131000Y-7310000D02*
X13011000Y-7430000D01*
X13113427Y-7412427D02*
X13113427Y-7327573D01*
X13028573Y-7327573D01*
X13028573Y-7412427D01*
X13113427Y-7412427D01*
X13011000Y-7810000D02*
X13131000Y-7930000D01*
X13131000Y-7810000D02*
X13011000Y-7930000D01*
X13113427Y-7912427D02*
X13113427Y-7827573D01*
X13028573Y-7827573D01*
X13028573Y-7912427D01*
X13113427Y-7912427D01*
X13011000Y-8961000D02*
X13131000Y-9081000D01*
X13131000Y-8961000D02*
X13011000Y-9081000D01*
X13113427Y-9063427D02*
X13113427Y-8978573D01*
X13028573Y-8978573D01*
X13028573Y-9063427D01*
X13113427Y-9063427D01*
X13011000Y-9461000D02*
X13131000Y-9581000D01*
X13131000Y-9461000D02*
X13011000Y-9581000D01*
X13113427Y-9563427D02*
X13113427Y-9478573D01*
X13028573Y-9478573D01*
X13028573Y-9563427D01*
X13113427Y-9563427D01*
X13011000Y-11120000D02*
X13131000Y-11240000D01*
X13131000Y-11120000D02*
X13011000Y-11240000D01*
X13113427Y-11222427D02*
X13113427Y-11137573D01*
X13028573Y-11137573D01*
X13028573Y-11222427D01*
X13113427Y-11222427D01*
X13011000Y-11620000D02*
X13131000Y-11740000D01*
X13131000Y-11620000D02*
X13011000Y-11740000D01*
X13113427Y-11722427D02*
X13113427Y-11637573D01*
X13028573Y-11637573D01*
X13028573Y-11722427D01*
X13113427Y-11722427D01*
D20*
X4340000Y-3340000D02*
X4660000Y-3660000D01*
X4660000Y-3340000D02*
X4340000Y-3660000D01*
X4500000Y-3660000D02*
X4660000Y-3500000D01*
X4500000Y-3340000D01*
X4340000Y-3500000D01*
X4500000Y-3660000D01*
X4340000Y-12340000D02*
X4660000Y-12660000D01*
X4660000Y-12340000D02*
X4340000Y-12660000D01*
X4500000Y-12660000D02*
X4660000Y-12500000D01*
X4500000Y-12340000D01*
X4340000Y-12500000D01*
X4500000Y-12660000D01*
X13340000Y-3340000D02*
X13660000Y-3660000D01*
X13660000Y-3340000D02*
X13340000Y-3660000D01*
X13500000Y-3660000D02*
X13660000Y-3500000D01*
X13500000Y-3340000D01*
X13340000Y-3500000D01*
X13500000Y-3660000D01*
X13340000Y-12340000D02*
X13660000Y-12660000D01*
X13660000Y-12340000D02*
X13340000Y-12660000D01*
X13500000Y-12660000D02*
X13660000Y-12500000D01*
X13500000Y-12340000D01*
X13340000Y-12500000D01*
X13500000Y-12660000D01*
D21*
X5269000Y-4762500D02*
X5269000Y-4912500D01*
X5194000Y-4837500D02*
X5344000Y-4837500D01*
X5344000Y-4837500D02*
G75*
G03*
X5344000Y-4837500I-75000J0D01*
G01*
X5269000Y-5247500D02*
X5269000Y-5397500D01*
X5194000Y-5322500D02*
X5344000Y-5322500D01*
X5344000Y-5322500D02*
G75*
G03*
X5344000Y-5322500I-75000J0D01*
G01*
D22*
X5029640Y-4871140D02*
X5029640Y-4743860D01*
X4902360Y-4743860D01*
X4902360Y-4871140D01*
X5029640Y-4871140D01*
X5056000Y-4807500D02*
G75*
G03*
X5056000Y-4807500I-90000J0D01*
G01*
X5029640Y-5416140D02*
X5029640Y-5288860D01*
X4902360Y-5288860D01*
X4902360Y-5416140D01*
X5029640Y-5416140D01*
X5056000Y-5352500D02*
G75*
G03*
X5056000Y-5352500I-90000J0D01*
G01*
X10985640Y-4831640D02*
X10985640Y-4704360D01*
X10858360Y-4704360D01*
X10858360Y-4831640D01*
X10985640Y-4831640D01*
X11012000Y-4768000D02*
G75*
G03*
X11012000Y-4768000I-90000J0D01*
G01*
X10985640Y-6482640D02*
X10985640Y-6355360D01*
X10858360Y-6355360D01*
X10858360Y-6482640D01*
X10985640Y-6482640D01*
X11012000Y-6419000D02*
G75*
G03*
X11012000Y-6419000I-90000J0D01*
G01*
X10985640Y-8133640D02*
X10985640Y-8006360D01*
X10858360Y-8006360D01*
X10858360Y-8133640D01*
X10985640Y-8133640D01*
X11012000Y-8070000D02*
G75*
G03*
X11012000Y-8070000I-90000J0D01*
G01*
X10985640Y-9784640D02*
X10985640Y-9657360D01*
X10858360Y-9657360D01*
X10858360Y-9784640D01*
X10985640Y-9784640D01*
X11012000Y-9721000D02*
G75*
G03*
X11012000Y-9721000I-90000J0D01*
G01*
X10985640Y-11943640D02*
X10985640Y-11816360D01*
X10858360Y-11816360D01*
X10858360Y-11943640D01*
X10985640Y-11943640D01*
X11012000Y-11880000D02*
G75*
G03*
X11012000Y-11880000I-90000J0D01*
G01*
X12509640Y-4831640D02*
X12509640Y-4704360D01*
X12382360Y-4704360D01*
X12382360Y-4831640D01*
X12509640Y-4831640D01*
X12536000Y-4768000D02*
G75*
G03*
X12536000Y-4768000I-90000J0D01*
G01*
X12509640Y-6482640D02*
X12509640Y-6355360D01*
X12382360Y-6355360D01*
X12382360Y-6482640D01*
X12509640Y-6482640D01*
X12536000Y-6419000D02*
G75*
G03*
X12536000Y-6419000I-90000J0D01*
G01*
X12509640Y-8133640D02*
X12509640Y-8006360D01*
X12382360Y-8006360D01*
X12382360Y-8133640D01*
X12509640Y-8133640D01*
X12536000Y-8070000D02*
G75*
G03*
X12536000Y-8070000I-90000J0D01*
G01*
X12509640Y-9784640D02*
X12509640Y-9657360D01*
X12382360Y-9657360D01*
X12382360Y-9784640D01*
X12509640Y-9784640D01*
X12536000Y-9721000D02*
G75*
G03*
X12536000Y-9721000I-90000J0D01*
G01*
X12509640Y-11943640D02*
X12509640Y-11816360D01*
X12382360Y-11816360D01*
X12382360Y-11943640D01*
X12509640Y-11943640D01*
X12536000Y-11880000D02*
G75*
G03*
X12536000Y-11880000I-90000J0D01*
G01*
D11*
X4252619Y-13315476D02*
X4252619Y-13115476D01*
X4300238Y-13115476D01*
X4328810Y-13125000D01*
X4347857Y-13144048D01*
X4357381Y-13163095D01*
X4366905Y-13201190D01*
X4366905Y-13229762D01*
X4357381Y-13267857D01*
X4347857Y-13286905D01*
X4328810Y-13305952D01*
X4300238Y-13315476D01*
X4252619Y-13315476D01*
X4452619Y-13315476D02*
X4452619Y-13182143D01*
X4452619Y-13220238D02*
X4462143Y-13201190D01*
X4471667Y-13191667D01*
X4490714Y-13182143D01*
X4509762Y-13182143D01*
X4576429Y-13315476D02*
X4576429Y-13182143D01*
X4576429Y-13115476D02*
X4566905Y-13125000D01*
X4576429Y-13134524D01*
X4585952Y-13125000D01*
X4576429Y-13115476D01*
X4576429Y-13134524D01*
X4700238Y-13315476D02*
X4681190Y-13305952D01*
X4671667Y-13286905D01*
X4671667Y-13115476D01*
X4805000Y-13315476D02*
X4785952Y-13305952D01*
X4776429Y-13286905D01*
X4776429Y-13115476D01*
X5033571Y-13315476D02*
X5033571Y-13115476D01*
X5100238Y-13258333D01*
X5166905Y-13115476D01*
X5166905Y-13315476D01*
X5347857Y-13315476D02*
X5347857Y-13210714D01*
X5338333Y-13191667D01*
X5319286Y-13182143D01*
X5281190Y-13182143D01*
X5262143Y-13191667D01*
X5347857Y-13305952D02*
X5328810Y-13315476D01*
X5281190Y-13315476D01*
X5262143Y-13305952D01*
X5252619Y-13286905D01*
X5252619Y-13267857D01*
X5262143Y-13248809D01*
X5281190Y-13239286D01*
X5328810Y-13239286D01*
X5347857Y-13229762D01*
X5443095Y-13182143D02*
X5443095Y-13382143D01*
X5443095Y-13191667D02*
X5462143Y-13182143D01*
X5500238Y-13182143D01*
X5519286Y-13191667D01*
X5528810Y-13201190D01*
X5538333Y-13220238D01*
X5538333Y-13277381D01*
X5528810Y-13296428D01*
X5519286Y-13305952D01*
X5500238Y-13315476D01*
X5462143Y-13315476D01*
X5443095Y-13305952D01*
X5624048Y-13296428D02*
X5633571Y-13305952D01*
X5624048Y-13315476D01*
X5614524Y-13305952D01*
X5624048Y-13296428D01*
X5624048Y-13315476D01*
X5624048Y-13191667D02*
X5633571Y-13201190D01*
X5624048Y-13210714D01*
X5614524Y-13201190D01*
X5624048Y-13191667D01*
X5624048Y-13210714D01*
D12*
X3925000Y-13610000D02*
X3995000Y-13680000D01*
X3995000Y-13610000D02*
X3925000Y-13680000D01*
D11*
X4290714Y-13535476D02*
X4309762Y-13535476D01*
X4328810Y-13545000D01*
X4338333Y-13554524D01*
X4347857Y-13573571D01*
X4357381Y-13611667D01*
X4357381Y-13659286D01*
X4347857Y-13697381D01*
X4338333Y-13716428D01*
X4328810Y-13725952D01*
X4309762Y-13735476D01*
X4290714Y-13735476D01*
X4271667Y-13725952D01*
X4262143Y-13716428D01*
X4252619Y-13697381D01*
X4243095Y-13659286D01*
X4243095Y-13611667D01*
X4252619Y-13573571D01*
X4262143Y-13554524D01*
X4271667Y-13545000D01*
X4290714Y-13535476D01*
X4443095Y-13716428D02*
X4452619Y-13725952D01*
X4443095Y-13735476D01*
X4433571Y-13725952D01*
X4443095Y-13716428D01*
X4443095Y-13735476D01*
X4519286Y-13535476D02*
X4652619Y-13535476D01*
X4566905Y-13735476D01*
X4766905Y-13535476D02*
X4785952Y-13535476D01*
X4805000Y-13545000D01*
X4814524Y-13554524D01*
X4824048Y-13573571D01*
X4833571Y-13611667D01*
X4833571Y-13659286D01*
X4824048Y-13697381D01*
X4814524Y-13716428D01*
X4805000Y-13725952D01*
X4785952Y-13735476D01*
X4766905Y-13735476D01*
X4747857Y-13725952D01*
X4738333Y-13716428D01*
X4728810Y-13697381D01*
X4719286Y-13659286D01*
X4719286Y-13611667D01*
X4728810Y-13573571D01*
X4738333Y-13554524D01*
X4747857Y-13545000D01*
X4766905Y-13535476D01*
X4957381Y-13535476D02*
X4976429Y-13535476D01*
X4995476Y-13545000D01*
X5005000Y-13554524D01*
X5014524Y-13573571D01*
X5024048Y-13611667D01*
X5024048Y-13659286D01*
X5014524Y-13697381D01*
X5005000Y-13716428D01*
X4995476Y-13725952D01*
X4976429Y-13735476D01*
X4957381Y-13735476D01*
X4938333Y-13725952D01*
X4928810Y-13716428D01*
X4919286Y-13697381D01*
X4909762Y-13659286D01*
X4909762Y-13611667D01*
X4919286Y-13573571D01*
X4928810Y-13554524D01*
X4938333Y-13545000D01*
X4957381Y-13535476D01*
X5109762Y-13735476D02*
X5109762Y-13602143D01*
X5109762Y-13621190D02*
X5119286Y-13611667D01*
X5138333Y-13602143D01*
X5166905Y-13602143D01*
X5185952Y-13611667D01*
X5195476Y-13630714D01*
X5195476Y-13735476D01*
X5195476Y-13630714D02*
X5205000Y-13611667D01*
X5224048Y-13602143D01*
X5252619Y-13602143D01*
X5271667Y-13611667D01*
X5281190Y-13630714D01*
X5281190Y-13735476D01*
X5376429Y-13735476D02*
X5376429Y-13602143D01*
X5376429Y-13621190D02*
X5385952Y-13611667D01*
X5405000Y-13602143D01*
X5433571Y-13602143D01*
X5452619Y-13611667D01*
X5462143Y-13630714D01*
X5462143Y-13735476D01*
X5462143Y-13630714D02*
X5471667Y-13611667D01*
X5490714Y-13602143D01*
X5519286Y-13602143D01*
X5538333Y-13611667D01*
X5547857Y-13630714D01*
X5547857Y-13735476D01*
X5938333Y-13525952D02*
X5766905Y-13783095D01*
X6195476Y-13535476D02*
X6214524Y-13535476D01*
X6233571Y-13545000D01*
X6243095Y-13554524D01*
X6252619Y-13573571D01*
X6262143Y-13611667D01*
X6262143Y-13659286D01*
X6252619Y-13697381D01*
X6243095Y-13716428D01*
X6233571Y-13725952D01*
X6214524Y-13735476D01*
X6195476Y-13735476D01*
X6176428Y-13725952D01*
X6166905Y-13716428D01*
X6157381Y-13697381D01*
X6147857Y-13659286D01*
X6147857Y-13611667D01*
X6157381Y-13573571D01*
X6166905Y-13554524D01*
X6176428Y-13545000D01*
X6195476Y-13535476D01*
X6347857Y-13716428D02*
X6357381Y-13725952D01*
X6347857Y-13735476D01*
X6338333Y-13725952D01*
X6347857Y-13716428D01*
X6347857Y-13735476D01*
X6481190Y-13535476D02*
X6500238Y-13535476D01*
X6519286Y-13545000D01*
X6528809Y-13554524D01*
X6538333Y-13573571D01*
X6547857Y-13611667D01*
X6547857Y-13659286D01*
X6538333Y-13697381D01*
X6528809Y-13716428D01*
X6519286Y-13725952D01*
X6500238Y-13735476D01*
X6481190Y-13735476D01*
X6462143Y-13725952D01*
X6452619Y-13716428D01*
X6443095Y-13697381D01*
X6433571Y-13659286D01*
X6433571Y-13611667D01*
X6443095Y-13573571D01*
X6452619Y-13554524D01*
X6462143Y-13545000D01*
X6481190Y-13535476D01*
X6624048Y-13554524D02*
X6633571Y-13545000D01*
X6652619Y-13535476D01*
X6700238Y-13535476D01*
X6719286Y-13545000D01*
X6728809Y-13554524D01*
X6738333Y-13573571D01*
X6738333Y-13592619D01*
X6728809Y-13621190D01*
X6614524Y-13735476D01*
X6738333Y-13735476D01*
X6805000Y-13535476D02*
X6938333Y-13535476D01*
X6852619Y-13735476D01*
X7100238Y-13535476D02*
X7062143Y-13535476D01*
X7043095Y-13545000D01*
X7033571Y-13554524D01*
X7014524Y-13583095D01*
X7005000Y-13621190D01*
X7005000Y-13697381D01*
X7014524Y-13716428D01*
X7024048Y-13725952D01*
X7043095Y-13735476D01*
X7081190Y-13735476D01*
X7100238Y-13725952D01*
X7109762Y-13716428D01*
X7119286Y-13697381D01*
X7119286Y-13649762D01*
X7109762Y-13630714D01*
X7100238Y-13621190D01*
X7081190Y-13611667D01*
X7043095Y-13611667D01*
X7024048Y-13621190D01*
X7014524Y-13630714D01*
X7005000Y-13649762D01*
X7195476Y-13535476D02*
X7195476Y-13573571D01*
X7271667Y-13535476D02*
X7271667Y-13573571D01*
X7566905Y-13811667D02*
X7557381Y-13802143D01*
X7538333Y-13773571D01*
X7528809Y-13754524D01*
X7519286Y-13725952D01*
X7509762Y-13678333D01*
X7509762Y-13640238D01*
X7519286Y-13592619D01*
X7528809Y-13564048D01*
X7538333Y-13545000D01*
X7557381Y-13516428D01*
X7566905Y-13506905D01*
X7633571Y-13554524D02*
X7643095Y-13545000D01*
X7662143Y-13535476D01*
X7709762Y-13535476D01*
X7728809Y-13545000D01*
X7738333Y-13554524D01*
X7747857Y-13573571D01*
X7747857Y-13592619D01*
X7738333Y-13621190D01*
X7624048Y-13735476D01*
X7747857Y-13735476D01*
X7919286Y-13535476D02*
X7881190Y-13535476D01*
X7862143Y-13545000D01*
X7852619Y-13554524D01*
X7833571Y-13583095D01*
X7824048Y-13621190D01*
X7824048Y-13697381D01*
X7833571Y-13716428D01*
X7843095Y-13725952D01*
X7862143Y-13735476D01*
X7900238Y-13735476D01*
X7919286Y-13725952D01*
X7928809Y-13716428D01*
X7938333Y-13697381D01*
X7938333Y-13649762D01*
X7928809Y-13630714D01*
X7919286Y-13621190D01*
X7900238Y-13611667D01*
X7862143Y-13611667D01*
X7843095Y-13621190D01*
X7833571Y-13630714D01*
X7824048Y-13649762D01*
X8176428Y-13735476D02*
X8176428Y-13535476D01*
X8262143Y-13735476D02*
X8262143Y-13630714D01*
X8252619Y-13611667D01*
X8233571Y-13602143D01*
X8205000Y-13602143D01*
X8185952Y-13611667D01*
X8176428Y-13621190D01*
X8385952Y-13735476D02*
X8366905Y-13725952D01*
X8357381Y-13716428D01*
X8347857Y-13697381D01*
X8347857Y-13640238D01*
X8357381Y-13621190D01*
X8366905Y-13611667D01*
X8385952Y-13602143D01*
X8414524Y-13602143D01*
X8433571Y-13611667D01*
X8443095Y-13621190D01*
X8452619Y-13640238D01*
X8452619Y-13697381D01*
X8443095Y-13716428D01*
X8433571Y-13725952D01*
X8414524Y-13735476D01*
X8385952Y-13735476D01*
X8566905Y-13735476D02*
X8547857Y-13725952D01*
X8538333Y-13706905D01*
X8538333Y-13535476D01*
X8719286Y-13725952D02*
X8700238Y-13735476D01*
X8662143Y-13735476D01*
X8643095Y-13725952D01*
X8633571Y-13706905D01*
X8633571Y-13630714D01*
X8643095Y-13611667D01*
X8662143Y-13602143D01*
X8700238Y-13602143D01*
X8719286Y-13611667D01*
X8728810Y-13630714D01*
X8728810Y-13649762D01*
X8633571Y-13668809D01*
X8805000Y-13725952D02*
X8824048Y-13735476D01*
X8862143Y-13735476D01*
X8881190Y-13725952D01*
X8890714Y-13706905D01*
X8890714Y-13697381D01*
X8881190Y-13678333D01*
X8862143Y-13668809D01*
X8833571Y-13668809D01*
X8814524Y-13659286D01*
X8805000Y-13640238D01*
X8805000Y-13630714D01*
X8814524Y-13611667D01*
X8833571Y-13602143D01*
X8862143Y-13602143D01*
X8881190Y-13611667D01*
X8957381Y-13811667D02*
X8966905Y-13802143D01*
X8985952Y-13773571D01*
X8995476Y-13754524D01*
X9005000Y-13725952D01*
X9014524Y-13678333D01*
X9014524Y-13640238D01*
X9005000Y-13592619D01*
X8995476Y-13564048D01*
X8985952Y-13545000D01*
X8966905Y-13516428D01*
X8957381Y-13506905D01*
D13*
X3995000Y-13909000D02*
G75*
G03*
X3995000Y-13909000I-37500J0D01*
G01*
D11*
X4290714Y-13799476D02*
X4309762Y-13799476D01*
X4328810Y-13809000D01*
X4338333Y-13818524D01*
X4347857Y-13837571D01*
X4357381Y-13875667D01*
X4357381Y-13923286D01*
X4347857Y-13961381D01*
X4338333Y-13980428D01*
X4328810Y-13989952D01*
X4309762Y-13999476D01*
X4290714Y-13999476D01*
X4271667Y-13989952D01*
X4262143Y-13980428D01*
X4252619Y-13961381D01*
X4243095Y-13923286D01*
X4243095Y-13875667D01*
X4252619Y-13837571D01*
X4262143Y-13818524D01*
X4271667Y-13809000D01*
X4290714Y-13799476D01*
X4443095Y-13980428D02*
X4452619Y-13989952D01*
X4443095Y-13999476D01*
X4433571Y-13989952D01*
X4443095Y-13980428D01*
X4443095Y-13999476D01*
X4519286Y-13799476D02*
X4652619Y-13799476D01*
X4566905Y-13999476D01*
X4824048Y-13799476D02*
X4728810Y-13799476D01*
X4719286Y-13894714D01*
X4728810Y-13885190D01*
X4747857Y-13875667D01*
X4795476Y-13875667D01*
X4814524Y-13885190D01*
X4824048Y-13894714D01*
X4833571Y-13913762D01*
X4833571Y-13961381D01*
X4824048Y-13980428D01*
X4814524Y-13989952D01*
X4795476Y-13999476D01*
X4747857Y-13999476D01*
X4728810Y-13989952D01*
X4719286Y-13980428D01*
X4957381Y-13799476D02*
X4976429Y-13799476D01*
X4995476Y-13809000D01*
X5005000Y-13818524D01*
X5014524Y-13837571D01*
X5024048Y-13875667D01*
X5024048Y-13923286D01*
X5014524Y-13961381D01*
X5005000Y-13980428D01*
X4995476Y-13989952D01*
X4976429Y-13999476D01*
X4957381Y-13999476D01*
X4938333Y-13989952D01*
X4928810Y-13980428D01*
X4919286Y-13961381D01*
X4909762Y-13923286D01*
X4909762Y-13875667D01*
X4919286Y-13837571D01*
X4928810Y-13818524D01*
X4938333Y-13809000D01*
X4957381Y-13799476D01*
X5109762Y-13999476D02*
X5109762Y-13866143D01*
X5109762Y-13885190D02*
X5119286Y-13875667D01*
X5138333Y-13866143D01*
X5166905Y-13866143D01*
X5185952Y-13875667D01*
X5195476Y-13894714D01*
X5195476Y-13999476D01*
X5195476Y-13894714D02*
X5205000Y-13875667D01*
X5224048Y-13866143D01*
X5252619Y-13866143D01*
X5271667Y-13875667D01*
X5281190Y-13894714D01*
X5281190Y-13999476D01*
X5376429Y-13999476D02*
X5376429Y-13866143D01*
X5376429Y-13885190D02*
X5385952Y-13875667D01*
X5405000Y-13866143D01*
X5433571Y-13866143D01*
X5452619Y-13875667D01*
X5462143Y-13894714D01*
X5462143Y-13999476D01*
X5462143Y-13894714D02*
X5471667Y-13875667D01*
X5490714Y-13866143D01*
X5519286Y-13866143D01*
X5538333Y-13875667D01*
X5547857Y-13894714D01*
X5547857Y-13999476D01*
X5938333Y-13789952D02*
X5766905Y-14047095D01*
X6195476Y-13799476D02*
X6214524Y-13799476D01*
X6233571Y-13809000D01*
X6243095Y-13818524D01*
X6252619Y-13837571D01*
X6262143Y-13875667D01*
X6262143Y-13923286D01*
X6252619Y-13961381D01*
X6243095Y-13980428D01*
X6233571Y-13989952D01*
X6214524Y-13999476D01*
X6195476Y-13999476D01*
X6176428Y-13989952D01*
X6166905Y-13980428D01*
X6157381Y-13961381D01*
X6147857Y-13923286D01*
X6147857Y-13875667D01*
X6157381Y-13837571D01*
X6166905Y-13818524D01*
X6176428Y-13809000D01*
X6195476Y-13799476D01*
X6347857Y-13980428D02*
X6357381Y-13989952D01*
X6347857Y-13999476D01*
X6338333Y-13989952D01*
X6347857Y-13980428D01*
X6347857Y-13999476D01*
X6481190Y-13799476D02*
X6500238Y-13799476D01*
X6519286Y-13809000D01*
X6528809Y-13818524D01*
X6538333Y-13837571D01*
X6547857Y-13875667D01*
X6547857Y-13923286D01*
X6538333Y-13961381D01*
X6528809Y-13980428D01*
X6519286Y-13989952D01*
X6500238Y-13999476D01*
X6481190Y-13999476D01*
X6462143Y-13989952D01*
X6452619Y-13980428D01*
X6443095Y-13961381D01*
X6433571Y-13923286D01*
X6433571Y-13875667D01*
X6443095Y-13837571D01*
X6452619Y-13818524D01*
X6462143Y-13809000D01*
X6481190Y-13799476D01*
X6624048Y-13818524D02*
X6633571Y-13809000D01*
X6652619Y-13799476D01*
X6700238Y-13799476D01*
X6719286Y-13809000D01*
X6728809Y-13818524D01*
X6738333Y-13837571D01*
X6738333Y-13856619D01*
X6728809Y-13885190D01*
X6614524Y-13999476D01*
X6738333Y-13999476D01*
X6833571Y-13999476D02*
X6871667Y-13999476D01*
X6890714Y-13989952D01*
X6900238Y-13980428D01*
X6919286Y-13951857D01*
X6928809Y-13913762D01*
X6928809Y-13837571D01*
X6919286Y-13818524D01*
X6909762Y-13809000D01*
X6890714Y-13799476D01*
X6852619Y-13799476D01*
X6833571Y-13809000D01*
X6824048Y-13818524D01*
X6814524Y-13837571D01*
X6814524Y-13885190D01*
X6824048Y-13904238D01*
X6833571Y-13913762D01*
X6852619Y-13923286D01*
X6890714Y-13923286D01*
X6909762Y-13913762D01*
X6919286Y-13904238D01*
X6928809Y-13885190D01*
X7109762Y-13799476D02*
X7014524Y-13799476D01*
X7005000Y-13894714D01*
X7014524Y-13885190D01*
X7033571Y-13875667D01*
X7081190Y-13875667D01*
X7100238Y-13885190D01*
X7109762Y-13894714D01*
X7119286Y-13913762D01*
X7119286Y-13961381D01*
X7109762Y-13980428D01*
X7100238Y-13989952D01*
X7081190Y-13999476D01*
X7033571Y-13999476D01*
X7014524Y-13989952D01*
X7005000Y-13980428D01*
X7195476Y-13799476D02*
X7195476Y-13837571D01*
X7271667Y-13799476D02*
X7271667Y-13837571D01*
X7566905Y-14075667D02*
X7557381Y-14066143D01*
X7538333Y-14037571D01*
X7528809Y-14018524D01*
X7519286Y-13989952D01*
X7509762Y-13942333D01*
X7509762Y-13904238D01*
X7519286Y-13856619D01*
X7528809Y-13828048D01*
X7538333Y-13809000D01*
X7557381Y-13780428D01*
X7566905Y-13770905D01*
X7624048Y-13799476D02*
X7747857Y-13799476D01*
X7681190Y-13875667D01*
X7709762Y-13875667D01*
X7728809Y-13885190D01*
X7738333Y-13894714D01*
X7747857Y-13913762D01*
X7747857Y-13961381D01*
X7738333Y-13980428D01*
X7728809Y-13989952D01*
X7709762Y-13999476D01*
X7652619Y-13999476D01*
X7633571Y-13989952D01*
X7624048Y-13980428D01*
X7985952Y-13999476D02*
X7985952Y-13799476D01*
X8071667Y-13999476D02*
X8071667Y-13894714D01*
X8062143Y-13875667D01*
X8043095Y-13866143D01*
X8014524Y-13866143D01*
X7995476Y-13875667D01*
X7985952Y-13885190D01*
X8195476Y-13999476D02*
X8176428Y-13989952D01*
X8166905Y-13980428D01*
X8157381Y-13961381D01*
X8157381Y-13904238D01*
X8166905Y-13885190D01*
X8176428Y-13875667D01*
X8195476Y-13866143D01*
X8224048Y-13866143D01*
X8243095Y-13875667D01*
X8252619Y-13885190D01*
X8262143Y-13904238D01*
X8262143Y-13961381D01*
X8252619Y-13980428D01*
X8243095Y-13989952D01*
X8224048Y-13999476D01*
X8195476Y-13999476D01*
X8376428Y-13999476D02*
X8357381Y-13989952D01*
X8347857Y-13970905D01*
X8347857Y-13799476D01*
X8528810Y-13989952D02*
X8509762Y-13999476D01*
X8471667Y-13999476D01*
X8452619Y-13989952D01*
X8443095Y-13970905D01*
X8443095Y-13894714D01*
X8452619Y-13875667D01*
X8471667Y-13866143D01*
X8509762Y-13866143D01*
X8528810Y-13875667D01*
X8538333Y-13894714D01*
X8538333Y-13913762D01*
X8443095Y-13932809D01*
X8614524Y-13989952D02*
X8633571Y-13999476D01*
X8671667Y-13999476D01*
X8690714Y-13989952D01*
X8700238Y-13970905D01*
X8700238Y-13961381D01*
X8690714Y-13942333D01*
X8671667Y-13932809D01*
X8643095Y-13932809D01*
X8624048Y-13923286D01*
X8614524Y-13904238D01*
X8614524Y-13894714D01*
X8624048Y-13875667D01*
X8643095Y-13866143D01*
X8671667Y-13866143D01*
X8690714Y-13875667D01*
X8766905Y-14075667D02*
X8776429Y-14066143D01*
X8795476Y-14037571D01*
X8805000Y-14018524D01*
X8814524Y-13989952D01*
X8824048Y-13942333D01*
X8824048Y-13904238D01*
X8814524Y-13856619D01*
X8805000Y-13828048D01*
X8795476Y-13809000D01*
X8776429Y-13780428D01*
X8766905Y-13770905D01*
D14*
X3956900Y-14134900D02*
X3956900Y-14211100D01*
X3918800Y-14173000D02*
X3995000Y-14173000D01*
D11*
X4290714Y-14063476D02*
X4309762Y-14063476D01*
X4328810Y-14073000D01*
X4338333Y-14082524D01*
X4347857Y-14101571D01*
X4357381Y-14139667D01*
X4357381Y-14187286D01*
X4347857Y-14225381D01*
X4338333Y-14244428D01*
X4328810Y-14253952D01*
X4309762Y-14263476D01*
X4290714Y-14263476D01*
X4271667Y-14253952D01*
X4262143Y-14244428D01*
X4252619Y-14225381D01*
X4243095Y-14187286D01*
X4243095Y-14139667D01*
X4252619Y-14101571D01*
X4262143Y-14082524D01*
X4271667Y-14073000D01*
X4290714Y-14063476D01*
X4443095Y-14244428D02*
X4452619Y-14253952D01*
X4443095Y-14263476D01*
X4433571Y-14253952D01*
X4443095Y-14244428D01*
X4443095Y-14263476D01*
X4519286Y-14063476D02*
X4652619Y-14063476D01*
X4566905Y-14263476D01*
X4814524Y-14063476D02*
X4776429Y-14063476D01*
X4757381Y-14073000D01*
X4747857Y-14082524D01*
X4728810Y-14111095D01*
X4719286Y-14149190D01*
X4719286Y-14225381D01*
X4728810Y-14244428D01*
X4738333Y-14253952D01*
X4757381Y-14263476D01*
X4795476Y-14263476D01*
X4814524Y-14253952D01*
X4824048Y-14244428D01*
X4833571Y-14225381D01*
X4833571Y-14177762D01*
X4824048Y-14158714D01*
X4814524Y-14149190D01*
X4795476Y-14139667D01*
X4757381Y-14139667D01*
X4738333Y-14149190D01*
X4728810Y-14158714D01*
X4719286Y-14177762D01*
X4909762Y-14082524D02*
X4919286Y-14073000D01*
X4938333Y-14063476D01*
X4985952Y-14063476D01*
X5005000Y-14073000D01*
X5014524Y-14082524D01*
X5024048Y-14101571D01*
X5024048Y-14120619D01*
X5014524Y-14149190D01*
X4900238Y-14263476D01*
X5024048Y-14263476D01*
X5109762Y-14263476D02*
X5109762Y-14130143D01*
X5109762Y-14149190D02*
X5119286Y-14139667D01*
X5138333Y-14130143D01*
X5166905Y-14130143D01*
X5185952Y-14139667D01*
X5195476Y-14158714D01*
X5195476Y-14263476D01*
X5195476Y-14158714D02*
X5205000Y-14139667D01*
X5224048Y-14130143D01*
X5252619Y-14130143D01*
X5271667Y-14139667D01*
X5281190Y-14158714D01*
X5281190Y-14263476D01*
X5376429Y-14263476D02*
X5376429Y-14130143D01*
X5376429Y-14149190D02*
X5385952Y-14139667D01*
X5405000Y-14130143D01*
X5433571Y-14130143D01*
X5452619Y-14139667D01*
X5462143Y-14158714D01*
X5462143Y-14263476D01*
X5462143Y-14158714D02*
X5471667Y-14139667D01*
X5490714Y-14130143D01*
X5519286Y-14130143D01*
X5538333Y-14139667D01*
X5547857Y-14158714D01*
X5547857Y-14263476D01*
X5938333Y-14053952D02*
X5766905Y-14311095D01*
X6195476Y-14063476D02*
X6214524Y-14063476D01*
X6233571Y-14073000D01*
X6243095Y-14082524D01*
X6252619Y-14101571D01*
X6262143Y-14139667D01*
X6262143Y-14187286D01*
X6252619Y-14225381D01*
X6243095Y-14244428D01*
X6233571Y-14253952D01*
X6214524Y-14263476D01*
X6195476Y-14263476D01*
X6176428Y-14253952D01*
X6166905Y-14244428D01*
X6157381Y-14225381D01*
X6147857Y-14187286D01*
X6147857Y-14139667D01*
X6157381Y-14101571D01*
X6166905Y-14082524D01*
X6176428Y-14073000D01*
X6195476Y-14063476D01*
X6347857Y-14244428D02*
X6357381Y-14253952D01*
X6347857Y-14263476D01*
X6338333Y-14253952D01*
X6347857Y-14244428D01*
X6347857Y-14263476D01*
X6481190Y-14063476D02*
X6500238Y-14063476D01*
X6519286Y-14073000D01*
X6528809Y-14082524D01*
X6538333Y-14101571D01*
X6547857Y-14139667D01*
X6547857Y-14187286D01*
X6538333Y-14225381D01*
X6528809Y-14244428D01*
X6519286Y-14253952D01*
X6500238Y-14263476D01*
X6481190Y-14263476D01*
X6462143Y-14253952D01*
X6452619Y-14244428D01*
X6443095Y-14225381D01*
X6433571Y-14187286D01*
X6433571Y-14139667D01*
X6443095Y-14101571D01*
X6452619Y-14082524D01*
X6462143Y-14073000D01*
X6481190Y-14063476D01*
X6614524Y-14063476D02*
X6738333Y-14063476D01*
X6671667Y-14139667D01*
X6700238Y-14139667D01*
X6719286Y-14149190D01*
X6728809Y-14158714D01*
X6738333Y-14177762D01*
X6738333Y-14225381D01*
X6728809Y-14244428D01*
X6719286Y-14253952D01*
X6700238Y-14263476D01*
X6643095Y-14263476D01*
X6624048Y-14253952D01*
X6614524Y-14244428D01*
X6862143Y-14063476D02*
X6881190Y-14063476D01*
X6900238Y-14073000D01*
X6909762Y-14082524D01*
X6919286Y-14101571D01*
X6928809Y-14139667D01*
X6928809Y-14187286D01*
X6919286Y-14225381D01*
X6909762Y-14244428D01*
X6900238Y-14253952D01*
X6881190Y-14263476D01*
X6862143Y-14263476D01*
X6843095Y-14253952D01*
X6833571Y-14244428D01*
X6824048Y-14225381D01*
X6814524Y-14187286D01*
X6814524Y-14139667D01*
X6824048Y-14101571D01*
X6833571Y-14082524D01*
X6843095Y-14073000D01*
X6862143Y-14063476D01*
X7052619Y-14063476D02*
X7071667Y-14063476D01*
X7090714Y-14073000D01*
X7100238Y-14082524D01*
X7109762Y-14101571D01*
X7119286Y-14139667D01*
X7119286Y-14187286D01*
X7109762Y-14225381D01*
X7100238Y-14244428D01*
X7090714Y-14253952D01*
X7071667Y-14263476D01*
X7052619Y-14263476D01*
X7033571Y-14253952D01*
X7024048Y-14244428D01*
X7014524Y-14225381D01*
X7005000Y-14187286D01*
X7005000Y-14139667D01*
X7014524Y-14101571D01*
X7024048Y-14082524D01*
X7033571Y-14073000D01*
X7052619Y-14063476D01*
X7195476Y-14063476D02*
X7195476Y-14101571D01*
X7271667Y-14063476D02*
X7271667Y-14101571D01*
X7566905Y-14339667D02*
X7557381Y-14330143D01*
X7538333Y-14301571D01*
X7528809Y-14282524D01*
X7519286Y-14253952D01*
X7509762Y-14206333D01*
X7509762Y-14168238D01*
X7519286Y-14120619D01*
X7528809Y-14092048D01*
X7538333Y-14073000D01*
X7557381Y-14044428D01*
X7566905Y-14034905D01*
X7728809Y-14130143D02*
X7728809Y-14263476D01*
X7681190Y-14053952D02*
X7633571Y-14196809D01*
X7757381Y-14196809D01*
X7985952Y-14263476D02*
X7985952Y-14063476D01*
X8071667Y-14263476D02*
X8071667Y-14158714D01*
X8062143Y-14139667D01*
X8043095Y-14130143D01*
X8014524Y-14130143D01*
X7995476Y-14139667D01*
X7985952Y-14149190D01*
X8195476Y-14263476D02*
X8176428Y-14253952D01*
X8166905Y-14244428D01*
X8157381Y-14225381D01*
X8157381Y-14168238D01*
X8166905Y-14149190D01*
X8176428Y-14139667D01*
X8195476Y-14130143D01*
X8224048Y-14130143D01*
X8243095Y-14139667D01*
X8252619Y-14149190D01*
X8262143Y-14168238D01*
X8262143Y-14225381D01*
X8252619Y-14244428D01*
X8243095Y-14253952D01*
X8224048Y-14263476D01*
X8195476Y-14263476D01*
X8376428Y-14263476D02*
X8357381Y-14253952D01*
X8347857Y-14234905D01*
X8347857Y-14063476D01*
X8528810Y-14253952D02*
X8509762Y-14263476D01*
X8471667Y-14263476D01*
X8452619Y-14253952D01*
X8443095Y-14234905D01*
X8443095Y-14158714D01*
X8452619Y-14139667D01*
X8471667Y-14130143D01*
X8509762Y-14130143D01*
X8528810Y-14139667D01*
X8538333Y-14158714D01*
X8538333Y-14177762D01*
X8443095Y-14196809D01*
X8614524Y-14253952D02*
X8633571Y-14263476D01*
X8671667Y-14263476D01*
X8690714Y-14253952D01*
X8700238Y-14234905D01*
X8700238Y-14225381D01*
X8690714Y-14206333D01*
X8671667Y-14196809D01*
X8643095Y-14196809D01*
X8624048Y-14187286D01*
X8614524Y-14168238D01*
X8614524Y-14158714D01*
X8624048Y-14139667D01*
X8643095Y-14130143D01*
X8671667Y-14130143D01*
X8690714Y-14139667D01*
X8766905Y-14339667D02*
X8776429Y-14330143D01*
X8795476Y-14301571D01*
X8805000Y-14282524D01*
X8814524Y-14253952D01*
X8824048Y-14206333D01*
X8824048Y-14168238D01*
X8814524Y-14120619D01*
X8805000Y-14092048D01*
X8795476Y-14073000D01*
X8776429Y-14044428D01*
X8766905Y-14034905D01*
D15*
X3983284Y-14465284D02*
X3983284Y-14408715D01*
X3926715Y-14408715D01*
X3926715Y-14465284D01*
X3983284Y-14465284D01*
D11*
X4290714Y-14327476D02*
X4309762Y-14327476D01*
X4328810Y-14337000D01*
X4338333Y-14346524D01*
X4347857Y-14365571D01*
X4357381Y-14403667D01*
X4357381Y-14451286D01*
X4347857Y-14489381D01*
X4338333Y-14508428D01*
X4328810Y-14517952D01*
X4309762Y-14527476D01*
X4290714Y-14527476D01*
X4271667Y-14517952D01*
X4262143Y-14508428D01*
X4252619Y-14489381D01*
X4243095Y-14451286D01*
X4243095Y-14403667D01*
X4252619Y-14365571D01*
X4262143Y-14346524D01*
X4271667Y-14337000D01*
X4290714Y-14327476D01*
X4443095Y-14508428D02*
X4452619Y-14517952D01*
X4443095Y-14527476D01*
X4433571Y-14517952D01*
X4443095Y-14508428D01*
X4443095Y-14527476D01*
X4566905Y-14413190D02*
X4547857Y-14403667D01*
X4538333Y-14394143D01*
X4528810Y-14375095D01*
X4528810Y-14365571D01*
X4538333Y-14346524D01*
X4547857Y-14337000D01*
X4566905Y-14327476D01*
X4605000Y-14327476D01*
X4624048Y-14337000D01*
X4633571Y-14346524D01*
X4643095Y-14365571D01*
X4643095Y-14375095D01*
X4633571Y-14394143D01*
X4624048Y-14403667D01*
X4605000Y-14413190D01*
X4566905Y-14413190D01*
X4547857Y-14422714D01*
X4538333Y-14432238D01*
X4528810Y-14451286D01*
X4528810Y-14489381D01*
X4538333Y-14508428D01*
X4547857Y-14517952D01*
X4566905Y-14527476D01*
X4605000Y-14527476D01*
X4624048Y-14517952D01*
X4633571Y-14508428D01*
X4643095Y-14489381D01*
X4643095Y-14451286D01*
X4633571Y-14432238D01*
X4624048Y-14422714D01*
X4605000Y-14413190D01*
X4766905Y-14327476D02*
X4785952Y-14327476D01*
X4805000Y-14337000D01*
X4814524Y-14346524D01*
X4824048Y-14365571D01*
X4833571Y-14403667D01*
X4833571Y-14451286D01*
X4824048Y-14489381D01*
X4814524Y-14508428D01*
X4805000Y-14517952D01*
X4785952Y-14527476D01*
X4766905Y-14527476D01*
X4747857Y-14517952D01*
X4738333Y-14508428D01*
X4728810Y-14489381D01*
X4719286Y-14451286D01*
X4719286Y-14403667D01*
X4728810Y-14365571D01*
X4738333Y-14346524D01*
X4747857Y-14337000D01*
X4766905Y-14327476D01*
X4957381Y-14327476D02*
X4976429Y-14327476D01*
X4995476Y-14337000D01*
X5005000Y-14346524D01*
X5014524Y-14365571D01*
X5024048Y-14403667D01*
X5024048Y-14451286D01*
X5014524Y-14489381D01*
X5005000Y-14508428D01*
X4995476Y-14517952D01*
X4976429Y-14527476D01*
X4957381Y-14527476D01*
X4938333Y-14517952D01*
X4928810Y-14508428D01*
X4919286Y-14489381D01*
X4909762Y-14451286D01*
X4909762Y-14403667D01*
X4919286Y-14365571D01*
X4928810Y-14346524D01*
X4938333Y-14337000D01*
X4957381Y-14327476D01*
X5109762Y-14527476D02*
X5109762Y-14394143D01*
X5109762Y-14413190D02*
X5119286Y-14403667D01*
X5138333Y-14394143D01*
X5166905Y-14394143D01*
X5185952Y-14403667D01*
X5195476Y-14422714D01*
X5195476Y-14527476D01*
X5195476Y-14422714D02*
X5205000Y-14403667D01*
X5224048Y-14394143D01*
X5252619Y-14394143D01*
X5271667Y-14403667D01*
X5281190Y-14422714D01*
X5281190Y-14527476D01*
X5376429Y-14527476D02*
X5376429Y-14394143D01*
X5376429Y-14413190D02*
X5385952Y-14403667D01*
X5405000Y-14394143D01*
X5433571Y-14394143D01*
X5452619Y-14403667D01*
X5462143Y-14422714D01*
X5462143Y-14527476D01*
X5462143Y-14422714D02*
X5471667Y-14403667D01*
X5490714Y-14394143D01*
X5519286Y-14394143D01*
X5538333Y-14403667D01*
X5547857Y-14422714D01*
X5547857Y-14527476D01*
X5938333Y-14317952D02*
X5766905Y-14575095D01*
X6195476Y-14327476D02*
X6214524Y-14327476D01*
X6233571Y-14337000D01*
X6243095Y-14346524D01*
X6252619Y-14365571D01*
X6262143Y-14403667D01*
X6262143Y-14451286D01*
X6252619Y-14489381D01*
X6243095Y-14508428D01*
X6233571Y-14517952D01*
X6214524Y-14527476D01*
X6195476Y-14527476D01*
X6176428Y-14517952D01*
X6166905Y-14508428D01*
X6157381Y-14489381D01*
X6147857Y-14451286D01*
X6147857Y-14403667D01*
X6157381Y-14365571D01*
X6166905Y-14346524D01*
X6176428Y-14337000D01*
X6195476Y-14327476D01*
X6347857Y-14508428D02*
X6357381Y-14517952D01*
X6347857Y-14527476D01*
X6338333Y-14517952D01*
X6347857Y-14508428D01*
X6347857Y-14527476D01*
X6481190Y-14327476D02*
X6500238Y-14327476D01*
X6519286Y-14337000D01*
X6528809Y-14346524D01*
X6538333Y-14365571D01*
X6547857Y-14403667D01*
X6547857Y-14451286D01*
X6538333Y-14489381D01*
X6528809Y-14508428D01*
X6519286Y-14517952D01*
X6500238Y-14527476D01*
X6481190Y-14527476D01*
X6462143Y-14517952D01*
X6452619Y-14508428D01*
X6443095Y-14489381D01*
X6433571Y-14451286D01*
X6433571Y-14403667D01*
X6443095Y-14365571D01*
X6452619Y-14346524D01*
X6462143Y-14337000D01*
X6481190Y-14327476D01*
X6614524Y-14327476D02*
X6738333Y-14327476D01*
X6671667Y-14403667D01*
X6700238Y-14403667D01*
X6719286Y-14413190D01*
X6728809Y-14422714D01*
X6738333Y-14441762D01*
X6738333Y-14489381D01*
X6728809Y-14508428D01*
X6719286Y-14517952D01*
X6700238Y-14527476D01*
X6643095Y-14527476D01*
X6624048Y-14517952D01*
X6614524Y-14508428D01*
X6928809Y-14527476D02*
X6814524Y-14527476D01*
X6871667Y-14527476D02*
X6871667Y-14327476D01*
X6852619Y-14356048D01*
X6833571Y-14375095D01*
X6814524Y-14384619D01*
X7109762Y-14327476D02*
X7014524Y-14327476D01*
X7005000Y-14422714D01*
X7014524Y-14413190D01*
X7033571Y-14403667D01*
X7081190Y-14403667D01*
X7100238Y-14413190D01*
X7109762Y-14422714D01*
X7119286Y-14441762D01*
X7119286Y-14489381D01*
X7109762Y-14508428D01*
X7100238Y-14517952D01*
X7081190Y-14527476D01*
X7033571Y-14527476D01*
X7014524Y-14517952D01*
X7005000Y-14508428D01*
X7195476Y-14327476D02*
X7195476Y-14365571D01*
X7271667Y-14327476D02*
X7271667Y-14365571D01*
X7566905Y-14603667D02*
X7557381Y-14594143D01*
X7538333Y-14565571D01*
X7528809Y-14546524D01*
X7519286Y-14517952D01*
X7509762Y-14470333D01*
X7509762Y-14432238D01*
X7519286Y-14384619D01*
X7528809Y-14356048D01*
X7538333Y-14337000D01*
X7557381Y-14308428D01*
X7566905Y-14298905D01*
X7671667Y-14413190D02*
X7652619Y-14403667D01*
X7643095Y-14394143D01*
X7633571Y-14375095D01*
X7633571Y-14365571D01*
X7643095Y-14346524D01*
X7652619Y-14337000D01*
X7671667Y-14327476D01*
X7709762Y-14327476D01*
X7728809Y-14337000D01*
X7738333Y-14346524D01*
X7747857Y-14365571D01*
X7747857Y-14375095D01*
X7738333Y-14394143D01*
X7728809Y-14403667D01*
X7709762Y-14413190D01*
X7671667Y-14413190D01*
X7652619Y-14422714D01*
X7643095Y-14432238D01*
X7633571Y-14451286D01*
X7633571Y-14489381D01*
X7643095Y-14508428D01*
X7652619Y-14517952D01*
X7671667Y-14527476D01*
X7709762Y-14527476D01*
X7728809Y-14517952D01*
X7738333Y-14508428D01*
X7747857Y-14489381D01*
X7747857Y-14451286D01*
X7738333Y-14432238D01*
X7728809Y-14422714D01*
X7709762Y-14413190D01*
X7871667Y-14327476D02*
X7890714Y-14327476D01*
X7909762Y-14337000D01*
X7919286Y-14346524D01*
X7928809Y-14365571D01*
X7938333Y-14403667D01*
X7938333Y-14451286D01*
X7928809Y-14489381D01*
X7919286Y-14508428D01*
X7909762Y-14517952D01*
X7890714Y-14527476D01*
X7871667Y-14527476D01*
X7852619Y-14517952D01*
X7843095Y-14508428D01*
X7833571Y-14489381D01*
X7824048Y-14451286D01*
X7824048Y-14403667D01*
X7833571Y-14365571D01*
X7843095Y-14346524D01*
X7852619Y-14337000D01*
X7871667Y-14327476D01*
X8176428Y-14527476D02*
X8176428Y-14327476D01*
X8262143Y-14527476D02*
X8262143Y-14422714D01*
X8252619Y-14403667D01*
X8233571Y-14394143D01*
X8205000Y-14394143D01*
X8185952Y-14403667D01*
X8176428Y-14413190D01*
X8385952Y-14527476D02*
X8366905Y-14517952D01*
X8357381Y-14508428D01*
X8347857Y-14489381D01*
X8347857Y-14432238D01*
X8357381Y-14413190D01*
X8366905Y-14403667D01*
X8385952Y-14394143D01*
X8414524Y-14394143D01*
X8433571Y-14403667D01*
X8443095Y-14413190D01*
X8452619Y-14432238D01*
X8452619Y-14489381D01*
X8443095Y-14508428D01*
X8433571Y-14517952D01*
X8414524Y-14527476D01*
X8385952Y-14527476D01*
X8566905Y-14527476D02*
X8547857Y-14517952D01*
X8538333Y-14498905D01*
X8538333Y-14327476D01*
X8719286Y-14517952D02*
X8700238Y-14527476D01*
X8662143Y-14527476D01*
X8643095Y-14517952D01*
X8633571Y-14498905D01*
X8633571Y-14422714D01*
X8643095Y-14403667D01*
X8662143Y-14394143D01*
X8700238Y-14394143D01*
X8719286Y-14403667D01*
X8728810Y-14422714D01*
X8728810Y-14441762D01*
X8633571Y-14460809D01*
X8805000Y-14517952D02*
X8824048Y-14527476D01*
X8862143Y-14527476D01*
X8881190Y-14517952D01*
X8890714Y-14498905D01*
X8890714Y-14489381D01*
X8881190Y-14470333D01*
X8862143Y-14460809D01*
X8833571Y-14460809D01*
X8814524Y-14451286D01*
X8805000Y-14432238D01*
X8805000Y-14422714D01*
X8814524Y-14403667D01*
X8833571Y-14394143D01*
X8862143Y-14394143D01*
X8881190Y-14403667D01*
X8957381Y-14603667D02*
X8966905Y-14594143D01*
X8985952Y-14565571D01*
X8995476Y-14546524D01*
X9005000Y-14517952D01*
X9014524Y-14470333D01*
X9014524Y-14432238D01*
X9005000Y-14384619D01*
X8995476Y-14356048D01*
X8985952Y-14337000D01*
X8966905Y-14308428D01*
X8957381Y-14298905D01*
D16*
X3952500Y-14743500D02*
X3995000Y-14701000D01*
X3952500Y-14658500D01*
X3910000Y-14701000D01*
X3952500Y-14743500D01*
D11*
X4290714Y-14591476D02*
X4309762Y-14591476D01*
X4328810Y-14601000D01*
X4338333Y-14610524D01*
X4347857Y-14629571D01*
X4357381Y-14667667D01*
X4357381Y-14715286D01*
X4347857Y-14753381D01*
X4338333Y-14772428D01*
X4328810Y-14781952D01*
X4309762Y-14791476D01*
X4290714Y-14791476D01*
X4271667Y-14781952D01*
X4262143Y-14772428D01*
X4252619Y-14753381D01*
X4243095Y-14715286D01*
X4243095Y-14667667D01*
X4252619Y-14629571D01*
X4262143Y-14610524D01*
X4271667Y-14601000D01*
X4290714Y-14591476D01*
X4443095Y-14772428D02*
X4452619Y-14781952D01*
X4443095Y-14791476D01*
X4433571Y-14781952D01*
X4443095Y-14772428D01*
X4443095Y-14791476D01*
X4566905Y-14677190D02*
X4547857Y-14667667D01*
X4538333Y-14658143D01*
X4528810Y-14639095D01*
X4528810Y-14629571D01*
X4538333Y-14610524D01*
X4547857Y-14601000D01*
X4566905Y-14591476D01*
X4605000Y-14591476D01*
X4624048Y-14601000D01*
X4633571Y-14610524D01*
X4643095Y-14629571D01*
X4643095Y-14639095D01*
X4633571Y-14658143D01*
X4624048Y-14667667D01*
X4605000Y-14677190D01*
X4566905Y-14677190D01*
X4547857Y-14686714D01*
X4538333Y-14696238D01*
X4528810Y-14715286D01*
X4528810Y-14753381D01*
X4538333Y-14772428D01*
X4547857Y-14781952D01*
X4566905Y-14791476D01*
X4605000Y-14791476D01*
X4624048Y-14781952D01*
X4633571Y-14772428D01*
X4643095Y-14753381D01*
X4643095Y-14715286D01*
X4633571Y-14696238D01*
X4624048Y-14686714D01*
X4605000Y-14677190D01*
X4824048Y-14591476D02*
X4728810Y-14591476D01*
X4719286Y-14686714D01*
X4728810Y-14677190D01*
X4747857Y-14667667D01*
X4795476Y-14667667D01*
X4814524Y-14677190D01*
X4824048Y-14686714D01*
X4833571Y-14705762D01*
X4833571Y-14753381D01*
X4824048Y-14772428D01*
X4814524Y-14781952D01*
X4795476Y-14791476D01*
X4747857Y-14791476D01*
X4728810Y-14781952D01*
X4719286Y-14772428D01*
X4957381Y-14591476D02*
X4976429Y-14591476D01*
X4995476Y-14601000D01*
X5005000Y-14610524D01*
X5014524Y-14629571D01*
X5024048Y-14667667D01*
X5024048Y-14715286D01*
X5014524Y-14753381D01*
X5005000Y-14772428D01*
X4995476Y-14781952D01*
X4976429Y-14791476D01*
X4957381Y-14791476D01*
X4938333Y-14781952D01*
X4928810Y-14772428D01*
X4919286Y-14753381D01*
X4909762Y-14715286D01*
X4909762Y-14667667D01*
X4919286Y-14629571D01*
X4928810Y-14610524D01*
X4938333Y-14601000D01*
X4957381Y-14591476D01*
X5109762Y-14791476D02*
X5109762Y-14658143D01*
X5109762Y-14677190D02*
X5119286Y-14667667D01*
X5138333Y-14658143D01*
X5166905Y-14658143D01*
X5185952Y-14667667D01*
X5195476Y-14686714D01*
X5195476Y-14791476D01*
X5195476Y-14686714D02*
X5205000Y-14667667D01*
X5224048Y-14658143D01*
X5252619Y-14658143D01*
X5271667Y-14667667D01*
X5281190Y-14686714D01*
X5281190Y-14791476D01*
X5376429Y-14791476D02*
X5376429Y-14658143D01*
X5376429Y-14677190D02*
X5385952Y-14667667D01*
X5405000Y-14658143D01*
X5433571Y-14658143D01*
X5452619Y-14667667D01*
X5462143Y-14686714D01*
X5462143Y-14791476D01*
X5462143Y-14686714D02*
X5471667Y-14667667D01*
X5490714Y-14658143D01*
X5519286Y-14658143D01*
X5538333Y-14667667D01*
X5547857Y-14686714D01*
X5547857Y-14791476D01*
X5938333Y-14581952D02*
X5766905Y-14839095D01*
X6195476Y-14591476D02*
X6214524Y-14591476D01*
X6233571Y-14601000D01*
X6243095Y-14610524D01*
X6252619Y-14629571D01*
X6262143Y-14667667D01*
X6262143Y-14715286D01*
X6252619Y-14753381D01*
X6243095Y-14772428D01*
X6233571Y-14781952D01*
X6214524Y-14791476D01*
X6195476Y-14791476D01*
X6176428Y-14781952D01*
X6166905Y-14772428D01*
X6157381Y-14753381D01*
X6147857Y-14715286D01*
X6147857Y-14667667D01*
X6157381Y-14629571D01*
X6166905Y-14610524D01*
X6176428Y-14601000D01*
X6195476Y-14591476D01*
X6347857Y-14772428D02*
X6357381Y-14781952D01*
X6347857Y-14791476D01*
X6338333Y-14781952D01*
X6347857Y-14772428D01*
X6347857Y-14791476D01*
X6481190Y-14591476D02*
X6500238Y-14591476D01*
X6519286Y-14601000D01*
X6528809Y-14610524D01*
X6538333Y-14629571D01*
X6547857Y-14667667D01*
X6547857Y-14715286D01*
X6538333Y-14753381D01*
X6528809Y-14772428D01*
X6519286Y-14781952D01*
X6500238Y-14791476D01*
X6481190Y-14791476D01*
X6462143Y-14781952D01*
X6452619Y-14772428D01*
X6443095Y-14753381D01*
X6433571Y-14715286D01*
X6433571Y-14667667D01*
X6443095Y-14629571D01*
X6452619Y-14610524D01*
X6462143Y-14601000D01*
X6481190Y-14591476D01*
X6614524Y-14591476D02*
X6738333Y-14591476D01*
X6671667Y-14667667D01*
X6700238Y-14667667D01*
X6719286Y-14677190D01*
X6728809Y-14686714D01*
X6738333Y-14705762D01*
X6738333Y-14753381D01*
X6728809Y-14772428D01*
X6719286Y-14781952D01*
X6700238Y-14791476D01*
X6643095Y-14791476D01*
X6624048Y-14781952D01*
X6614524Y-14772428D01*
X6805000Y-14591476D02*
X6928809Y-14591476D01*
X6862143Y-14667667D01*
X6890714Y-14667667D01*
X6909762Y-14677190D01*
X6919286Y-14686714D01*
X6928809Y-14705762D01*
X6928809Y-14753381D01*
X6919286Y-14772428D01*
X6909762Y-14781952D01*
X6890714Y-14791476D01*
X6833571Y-14791476D01*
X6814524Y-14781952D01*
X6805000Y-14772428D01*
X7109762Y-14591476D02*
X7014524Y-14591476D01*
X7005000Y-14686714D01*
X7014524Y-14677190D01*
X7033571Y-14667667D01*
X7081190Y-14667667D01*
X7100238Y-14677190D01*
X7109762Y-14686714D01*
X7119286Y-14705762D01*
X7119286Y-14753381D01*
X7109762Y-14772428D01*
X7100238Y-14781952D01*
X7081190Y-14791476D01*
X7033571Y-14791476D01*
X7014524Y-14781952D01*
X7005000Y-14772428D01*
X7195476Y-14591476D02*
X7195476Y-14629571D01*
X7271667Y-14591476D02*
X7271667Y-14629571D01*
X7566905Y-14867667D02*
X7557381Y-14858143D01*
X7538333Y-14829571D01*
X7528809Y-14810524D01*
X7519286Y-14781952D01*
X7509762Y-14734333D01*
X7509762Y-14696238D01*
X7519286Y-14648619D01*
X7528809Y-14620048D01*
X7538333Y-14601000D01*
X7557381Y-14572428D01*
X7566905Y-14562905D01*
X7633571Y-14610524D02*
X7643095Y-14601000D01*
X7662143Y-14591476D01*
X7709762Y-14591476D01*
X7728809Y-14601000D01*
X7738333Y-14610524D01*
X7747857Y-14629571D01*
X7747857Y-14648619D01*
X7738333Y-14677190D01*
X7624048Y-14791476D01*
X7747857Y-14791476D01*
X7985952Y-14791476D02*
X7985952Y-14591476D01*
X8071667Y-14791476D02*
X8071667Y-14686714D01*
X8062143Y-14667667D01*
X8043095Y-14658143D01*
X8014524Y-14658143D01*
X7995476Y-14667667D01*
X7985952Y-14677190D01*
X8195476Y-14791476D02*
X8176428Y-14781952D01*
X8166905Y-14772428D01*
X8157381Y-14753381D01*
X8157381Y-14696238D01*
X8166905Y-14677190D01*
X8176428Y-14667667D01*
X8195476Y-14658143D01*
X8224048Y-14658143D01*
X8243095Y-14667667D01*
X8252619Y-14677190D01*
X8262143Y-14696238D01*
X8262143Y-14753381D01*
X8252619Y-14772428D01*
X8243095Y-14781952D01*
X8224048Y-14791476D01*
X8195476Y-14791476D01*
X8376428Y-14791476D02*
X8357381Y-14781952D01*
X8347857Y-14762905D01*
X8347857Y-14591476D01*
X8528810Y-14781952D02*
X8509762Y-14791476D01*
X8471667Y-14791476D01*
X8452619Y-14781952D01*
X8443095Y-14762905D01*
X8443095Y-14686714D01*
X8452619Y-14667667D01*
X8471667Y-14658143D01*
X8509762Y-14658143D01*
X8528810Y-14667667D01*
X8538333Y-14686714D01*
X8538333Y-14705762D01*
X8443095Y-14724809D01*
X8614524Y-14781952D02*
X8633571Y-14791476D01*
X8671667Y-14791476D01*
X8690714Y-14781952D01*
X8700238Y-14762905D01*
X8700238Y-14753381D01*
X8690714Y-14734333D01*
X8671667Y-14724809D01*
X8643095Y-14724809D01*
X8624048Y-14715286D01*
X8614524Y-14696238D01*
X8614524Y-14686714D01*
X8624048Y-14667667D01*
X8643095Y-14658143D01*
X8671667Y-14658143D01*
X8690714Y-14667667D01*
X8766905Y-14867667D02*
X8776429Y-14858143D01*
X8795476Y-14829571D01*
X8805000Y-14810524D01*
X8814524Y-14781952D01*
X8824048Y-14734333D01*
X8824048Y-14696238D01*
X8814524Y-14648619D01*
X8805000Y-14620048D01*
X8795476Y-14601000D01*
X8776429Y-14572428D01*
X8766905Y-14562905D01*
D17*
X3895000Y-14915000D02*
X3995000Y-15015000D01*
X3995000Y-14915000D02*
X3895000Y-15015000D01*
X3995000Y-14965000D02*
G75*
G03*
X3995000Y-14965000I-50000J0D01*
G01*
D11*
X4357381Y-15055476D02*
X4243095Y-15055476D01*
X4300238Y-15055476D02*
X4300238Y-14855476D01*
X4281190Y-14884048D01*
X4262143Y-14903095D01*
X4243095Y-14912619D01*
X4443095Y-15036428D02*
X4452619Y-15045952D01*
X4443095Y-15055476D01*
X4433571Y-15045952D01*
X4443095Y-15036428D01*
X4443095Y-15055476D01*
X4576429Y-14855476D02*
X4595476Y-14855476D01*
X4614524Y-14865000D01*
X4624048Y-14874524D01*
X4633571Y-14893571D01*
X4643095Y-14931667D01*
X4643095Y-14979286D01*
X4633571Y-15017381D01*
X4624048Y-15036428D01*
X4614524Y-15045952D01*
X4595476Y-15055476D01*
X4576429Y-15055476D01*
X4557381Y-15045952D01*
X4547857Y-15036428D01*
X4538333Y-15017381D01*
X4528810Y-14979286D01*
X4528810Y-14931667D01*
X4538333Y-14893571D01*
X4547857Y-14874524D01*
X4557381Y-14865000D01*
X4576429Y-14855476D01*
X4766905Y-14855476D02*
X4785952Y-14855476D01*
X4805000Y-14865000D01*
X4814524Y-14874524D01*
X4824048Y-14893571D01*
X4833571Y-14931667D01*
X4833571Y-14979286D01*
X4824048Y-15017381D01*
X4814524Y-15036428D01*
X4805000Y-15045952D01*
X4785952Y-15055476D01*
X4766905Y-15055476D01*
X4747857Y-15045952D01*
X4738333Y-15036428D01*
X4728810Y-15017381D01*
X4719286Y-14979286D01*
X4719286Y-14931667D01*
X4728810Y-14893571D01*
X4738333Y-14874524D01*
X4747857Y-14865000D01*
X4766905Y-14855476D01*
X4957381Y-14855476D02*
X4976429Y-14855476D01*
X4995476Y-14865000D01*
X5005000Y-14874524D01*
X5014524Y-14893571D01*
X5024048Y-14931667D01*
X5024048Y-14979286D01*
X5014524Y-15017381D01*
X5005000Y-15036428D01*
X4995476Y-15045952D01*
X4976429Y-15055476D01*
X4957381Y-15055476D01*
X4938333Y-15045952D01*
X4928810Y-15036428D01*
X4919286Y-15017381D01*
X4909762Y-14979286D01*
X4909762Y-14931667D01*
X4919286Y-14893571D01*
X4928810Y-14874524D01*
X4938333Y-14865000D01*
X4957381Y-14855476D01*
X5109762Y-15055476D02*
X5109762Y-14922143D01*
X5109762Y-14941190D02*
X5119286Y-14931667D01*
X5138333Y-14922143D01*
X5166905Y-14922143D01*
X5185952Y-14931667D01*
X5195476Y-14950714D01*
X5195476Y-15055476D01*
X5195476Y-14950714D02*
X5205000Y-14931667D01*
X5224048Y-14922143D01*
X5252619Y-14922143D01*
X5271667Y-14931667D01*
X5281190Y-14950714D01*
X5281190Y-15055476D01*
X5376429Y-15055476D02*
X5376429Y-14922143D01*
X5376429Y-14941190D02*
X5385952Y-14931667D01*
X5405000Y-14922143D01*
X5433571Y-14922143D01*
X5452619Y-14931667D01*
X5462143Y-14950714D01*
X5462143Y-15055476D01*
X5462143Y-14950714D02*
X5471667Y-14931667D01*
X5490714Y-14922143D01*
X5519286Y-14922143D01*
X5538333Y-14931667D01*
X5547857Y-14950714D01*
X5547857Y-15055476D01*
X5938333Y-14845952D02*
X5766905Y-15103095D01*
X6195476Y-14855476D02*
X6214524Y-14855476D01*
X6233571Y-14865000D01*
X6243095Y-14874524D01*
X6252619Y-14893571D01*
X6262143Y-14931667D01*
X6262143Y-14979286D01*
X6252619Y-15017381D01*
X6243095Y-15036428D01*
X6233571Y-15045952D01*
X6214524Y-15055476D01*
X6195476Y-15055476D01*
X6176428Y-15045952D01*
X6166905Y-15036428D01*
X6157381Y-15017381D01*
X6147857Y-14979286D01*
X6147857Y-14931667D01*
X6157381Y-14893571D01*
X6166905Y-14874524D01*
X6176428Y-14865000D01*
X6195476Y-14855476D01*
X6347857Y-15036428D02*
X6357381Y-15045952D01*
X6347857Y-15055476D01*
X6338333Y-15045952D01*
X6347857Y-15036428D01*
X6347857Y-15055476D01*
X6481190Y-14855476D02*
X6500238Y-14855476D01*
X6519286Y-14865000D01*
X6528809Y-14874524D01*
X6538333Y-14893571D01*
X6547857Y-14931667D01*
X6547857Y-14979286D01*
X6538333Y-15017381D01*
X6528809Y-15036428D01*
X6519286Y-15045952D01*
X6500238Y-15055476D01*
X6481190Y-15055476D01*
X6462143Y-15045952D01*
X6452619Y-15036428D01*
X6443095Y-15017381D01*
X6433571Y-14979286D01*
X6433571Y-14931667D01*
X6443095Y-14893571D01*
X6452619Y-14874524D01*
X6462143Y-14865000D01*
X6481190Y-14855476D01*
X6614524Y-14855476D02*
X6738333Y-14855476D01*
X6671667Y-14931667D01*
X6700238Y-14931667D01*
X6719286Y-14941190D01*
X6728809Y-14950714D01*
X6738333Y-14969762D01*
X6738333Y-15017381D01*
X6728809Y-15036428D01*
X6719286Y-15045952D01*
X6700238Y-15055476D01*
X6643095Y-15055476D01*
X6624048Y-15045952D01*
X6614524Y-15036428D01*
X6833571Y-15055476D02*
X6871667Y-15055476D01*
X6890714Y-15045952D01*
X6900238Y-15036428D01*
X6919286Y-15007857D01*
X6928809Y-14969762D01*
X6928809Y-14893571D01*
X6919286Y-14874524D01*
X6909762Y-14865000D01*
X6890714Y-14855476D01*
X6852619Y-14855476D01*
X6833571Y-14865000D01*
X6824048Y-14874524D01*
X6814524Y-14893571D01*
X6814524Y-14941190D01*
X6824048Y-14960238D01*
X6833571Y-14969762D01*
X6852619Y-14979286D01*
X6890714Y-14979286D01*
X6909762Y-14969762D01*
X6919286Y-14960238D01*
X6928809Y-14941190D01*
X7100238Y-14922143D02*
X7100238Y-15055476D01*
X7052619Y-14845952D02*
X7005000Y-14988809D01*
X7128809Y-14988809D01*
X7195476Y-14855476D02*
X7195476Y-14893571D01*
X7271667Y-14855476D02*
X7271667Y-14893571D01*
X7566905Y-15131667D02*
X7557381Y-15122143D01*
X7538333Y-15093571D01*
X7528809Y-15074524D01*
X7519286Y-15045952D01*
X7509762Y-14998333D01*
X7509762Y-14960238D01*
X7519286Y-14912619D01*
X7528809Y-14884048D01*
X7538333Y-14865000D01*
X7557381Y-14836428D01*
X7566905Y-14826905D01*
X7633571Y-14874524D02*
X7643095Y-14865000D01*
X7662143Y-14855476D01*
X7709762Y-14855476D01*
X7728809Y-14865000D01*
X7738333Y-14874524D01*
X7747857Y-14893571D01*
X7747857Y-14912619D01*
X7738333Y-14941190D01*
X7624048Y-15055476D01*
X7747857Y-15055476D01*
X7985952Y-15055476D02*
X7985952Y-14855476D01*
X8071667Y-15055476D02*
X8071667Y-14950714D01*
X8062143Y-14931667D01*
X8043095Y-14922143D01*
X8014524Y-14922143D01*
X7995476Y-14931667D01*
X7985952Y-14941190D01*
X8195476Y-15055476D02*
X8176428Y-15045952D01*
X8166905Y-15036428D01*
X8157381Y-15017381D01*
X8157381Y-14960238D01*
X8166905Y-14941190D01*
X8176428Y-14931667D01*
X8195476Y-14922143D01*
X8224048Y-14922143D01*
X8243095Y-14931667D01*
X8252619Y-14941190D01*
X8262143Y-14960238D01*
X8262143Y-15017381D01*
X8252619Y-15036428D01*
X8243095Y-15045952D01*
X8224048Y-15055476D01*
X8195476Y-15055476D01*
X8376428Y-15055476D02*
X8357381Y-15045952D01*
X8347857Y-15026905D01*
X8347857Y-14855476D01*
X8528810Y-15045952D02*
X8509762Y-15055476D01*
X8471667Y-15055476D01*
X8452619Y-15045952D01*
X8443095Y-15026905D01*
X8443095Y-14950714D01*
X8452619Y-14931667D01*
X8471667Y-14922143D01*
X8509762Y-14922143D01*
X8528810Y-14931667D01*
X8538333Y-14950714D01*
X8538333Y-14969762D01*
X8443095Y-14988809D01*
X8614524Y-15045952D02*
X8633571Y-15055476D01*
X8671667Y-15055476D01*
X8690714Y-15045952D01*
X8700238Y-15026905D01*
X8700238Y-15017381D01*
X8690714Y-14998333D01*
X8671667Y-14988809D01*
X8643095Y-14988809D01*
X8624048Y-14979286D01*
X8614524Y-14960238D01*
X8614524Y-14950714D01*
X8624048Y-14931667D01*
X8643095Y-14922143D01*
X8671667Y-14922143D01*
X8690714Y-14931667D01*
X8766905Y-15131667D02*
X8776429Y-15122143D01*
X8795476Y-15093571D01*
X8805000Y-15074524D01*
X8814524Y-15045952D01*
X8824048Y-14998333D01*
X8824048Y-14960238D01*
X8814524Y-14912619D01*
X8805000Y-14884048D01*
X8795476Y-14865000D01*
X8776429Y-14836428D01*
X8766905Y-14826905D01*
D18*
X3893000Y-15178000D02*
X3995000Y-15280000D01*
X3995000Y-15178000D02*
X3893000Y-15280000D01*
X3944000Y-15178000D02*
X3944000Y-15280000D01*
X3893000Y-15229000D02*
X3995000Y-15229000D01*
D11*
X4357381Y-15319476D02*
X4243095Y-15319476D01*
X4300238Y-15319476D02*
X4300238Y-15119476D01*
X4281190Y-15148048D01*
X4262143Y-15167095D01*
X4243095Y-15176619D01*
X4443095Y-15300428D02*
X4452619Y-15309952D01*
X4443095Y-15319476D01*
X4433571Y-15309952D01*
X4443095Y-15300428D01*
X4443095Y-15319476D01*
X4576429Y-15119476D02*
X4595476Y-15119476D01*
X4614524Y-15129000D01*
X4624048Y-15138524D01*
X4633571Y-15157571D01*
X4643095Y-15195667D01*
X4643095Y-15243286D01*
X4633571Y-15281381D01*
X4624048Y-15300428D01*
X4614524Y-15309952D01*
X4595476Y-15319476D01*
X4576429Y-15319476D01*
X4557381Y-15309952D01*
X4547857Y-15300428D01*
X4538333Y-15281381D01*
X4528810Y-15243286D01*
X4528810Y-15195667D01*
X4538333Y-15157571D01*
X4547857Y-15138524D01*
X4557381Y-15129000D01*
X4576429Y-15119476D01*
X4719286Y-15138524D02*
X4728810Y-15129000D01*
X4747857Y-15119476D01*
X4795476Y-15119476D01*
X4814524Y-15129000D01*
X4824048Y-15138524D01*
X4833571Y-15157571D01*
X4833571Y-15176619D01*
X4824048Y-15205190D01*
X4709762Y-15319476D01*
X4833571Y-15319476D01*
X4957381Y-15119476D02*
X4976429Y-15119476D01*
X4995476Y-15129000D01*
X5005000Y-15138524D01*
X5014524Y-15157571D01*
X5024048Y-15195667D01*
X5024048Y-15243286D01*
X5014524Y-15281381D01*
X5005000Y-15300428D01*
X4995476Y-15309952D01*
X4976429Y-15319476D01*
X4957381Y-15319476D01*
X4938333Y-15309952D01*
X4928810Y-15300428D01*
X4919286Y-15281381D01*
X4909762Y-15243286D01*
X4909762Y-15195667D01*
X4919286Y-15157571D01*
X4928810Y-15138524D01*
X4938333Y-15129000D01*
X4957381Y-15119476D01*
X5109762Y-15319476D02*
X5109762Y-15186143D01*
X5109762Y-15205190D02*
X5119286Y-15195667D01*
X5138333Y-15186143D01*
X5166905Y-15186143D01*
X5185952Y-15195667D01*
X5195476Y-15214714D01*
X5195476Y-15319476D01*
X5195476Y-15214714D02*
X5205000Y-15195667D01*
X5224048Y-15186143D01*
X5252619Y-15186143D01*
X5271667Y-15195667D01*
X5281190Y-15214714D01*
X5281190Y-15319476D01*
X5376429Y-15319476D02*
X5376429Y-15186143D01*
X5376429Y-15205190D02*
X5385952Y-15195667D01*
X5405000Y-15186143D01*
X5433571Y-15186143D01*
X5452619Y-15195667D01*
X5462143Y-15214714D01*
X5462143Y-15319476D01*
X5462143Y-15214714D02*
X5471667Y-15195667D01*
X5490714Y-15186143D01*
X5519286Y-15186143D01*
X5538333Y-15195667D01*
X5547857Y-15214714D01*
X5547857Y-15319476D01*
X5938333Y-15109952D02*
X5766905Y-15367095D01*
X6195476Y-15119476D02*
X6214524Y-15119476D01*
X6233571Y-15129000D01*
X6243095Y-15138524D01*
X6252619Y-15157571D01*
X6262143Y-15195667D01*
X6262143Y-15243286D01*
X6252619Y-15281381D01*
X6243095Y-15300428D01*
X6233571Y-15309952D01*
X6214524Y-15319476D01*
X6195476Y-15319476D01*
X6176428Y-15309952D01*
X6166905Y-15300428D01*
X6157381Y-15281381D01*
X6147857Y-15243286D01*
X6147857Y-15195667D01*
X6157381Y-15157571D01*
X6166905Y-15138524D01*
X6176428Y-15129000D01*
X6195476Y-15119476D01*
X6347857Y-15300428D02*
X6357381Y-15309952D01*
X6347857Y-15319476D01*
X6338333Y-15309952D01*
X6347857Y-15300428D01*
X6347857Y-15319476D01*
X6481190Y-15119476D02*
X6500238Y-15119476D01*
X6519286Y-15129000D01*
X6528809Y-15138524D01*
X6538333Y-15157571D01*
X6547857Y-15195667D01*
X6547857Y-15243286D01*
X6538333Y-15281381D01*
X6528809Y-15300428D01*
X6519286Y-15309952D01*
X6500238Y-15319476D01*
X6481190Y-15319476D01*
X6462143Y-15309952D01*
X6452619Y-15300428D01*
X6443095Y-15281381D01*
X6433571Y-15243286D01*
X6433571Y-15195667D01*
X6443095Y-15157571D01*
X6452619Y-15138524D01*
X6462143Y-15129000D01*
X6481190Y-15119476D01*
X6719286Y-15186143D02*
X6719286Y-15319476D01*
X6671667Y-15109952D02*
X6624048Y-15252809D01*
X6747857Y-15252809D01*
X6862143Y-15119476D02*
X6881190Y-15119476D01*
X6900238Y-15129000D01*
X6909762Y-15138524D01*
X6919286Y-15157571D01*
X6928809Y-15195667D01*
X6928809Y-15243286D01*
X6919286Y-15281381D01*
X6909762Y-15300428D01*
X6900238Y-15309952D01*
X6881190Y-15319476D01*
X6862143Y-15319476D01*
X6843095Y-15309952D01*
X6833571Y-15300428D01*
X6824048Y-15281381D01*
X6814524Y-15243286D01*
X6814524Y-15195667D01*
X6824048Y-15157571D01*
X6833571Y-15138524D01*
X6843095Y-15129000D01*
X6862143Y-15119476D01*
X7005000Y-15138524D02*
X7014524Y-15129000D01*
X7033571Y-15119476D01*
X7081190Y-15119476D01*
X7100238Y-15129000D01*
X7109762Y-15138524D01*
X7119286Y-15157571D01*
X7119286Y-15176619D01*
X7109762Y-15205190D01*
X6995476Y-15319476D01*
X7119286Y-15319476D01*
X7195476Y-15119476D02*
X7195476Y-15157571D01*
X7271667Y-15119476D02*
X7271667Y-15157571D01*
X7566905Y-15395667D02*
X7557381Y-15386143D01*
X7538333Y-15357571D01*
X7528809Y-15338524D01*
X7519286Y-15309952D01*
X7509762Y-15262333D01*
X7509762Y-15224238D01*
X7519286Y-15176619D01*
X7528809Y-15148048D01*
X7538333Y-15129000D01*
X7557381Y-15100428D01*
X7566905Y-15090905D01*
X7728809Y-15186143D02*
X7728809Y-15319476D01*
X7681190Y-15109952D02*
X7633571Y-15252809D01*
X7757381Y-15252809D01*
X7814524Y-15119476D02*
X7938333Y-15119476D01*
X7871667Y-15195667D01*
X7900238Y-15195667D01*
X7919286Y-15205190D01*
X7928809Y-15214714D01*
X7938333Y-15233762D01*
X7938333Y-15281381D01*
X7928809Y-15300428D01*
X7919286Y-15309952D01*
X7900238Y-15319476D01*
X7843095Y-15319476D01*
X7824048Y-15309952D01*
X7814524Y-15300428D01*
X8176428Y-15319476D02*
X8176428Y-15119476D01*
X8262143Y-15319476D02*
X8262143Y-15214714D01*
X8252619Y-15195667D01*
X8233571Y-15186143D01*
X8205000Y-15186143D01*
X8185952Y-15195667D01*
X8176428Y-15205190D01*
X8385952Y-15319476D02*
X8366905Y-15309952D01*
X8357381Y-15300428D01*
X8347857Y-15281381D01*
X8347857Y-15224238D01*
X8357381Y-15205190D01*
X8366905Y-15195667D01*
X8385952Y-15186143D01*
X8414524Y-15186143D01*
X8433571Y-15195667D01*
X8443095Y-15205190D01*
X8452619Y-15224238D01*
X8452619Y-15281381D01*
X8443095Y-15300428D01*
X8433571Y-15309952D01*
X8414524Y-15319476D01*
X8385952Y-15319476D01*
X8566905Y-15319476D02*
X8547857Y-15309952D01*
X8538333Y-15290905D01*
X8538333Y-15119476D01*
X8719286Y-15309952D02*
X8700238Y-15319476D01*
X8662143Y-15319476D01*
X8643095Y-15309952D01*
X8633571Y-15290905D01*
X8633571Y-15214714D01*
X8643095Y-15195667D01*
X8662143Y-15186143D01*
X8700238Y-15186143D01*
X8719286Y-15195667D01*
X8728810Y-15214714D01*
X8728810Y-15233762D01*
X8633571Y-15252809D01*
X8805000Y-15309952D02*
X8824048Y-15319476D01*
X8862143Y-15319476D01*
X8881190Y-15309952D01*
X8890714Y-15290905D01*
X8890714Y-15281381D01*
X8881190Y-15262333D01*
X8862143Y-15252809D01*
X8833571Y-15252809D01*
X8814524Y-15243286D01*
X8805000Y-15224238D01*
X8805000Y-15214714D01*
X8814524Y-15195667D01*
X8833571Y-15186143D01*
X8862143Y-15186143D01*
X8881190Y-15195667D01*
X8957381Y-15395667D02*
X8966905Y-15386143D01*
X8985952Y-15357571D01*
X8995476Y-15338524D01*
X9005000Y-15309952D01*
X9014524Y-15262333D01*
X9014524Y-15224238D01*
X9005000Y-15176619D01*
X8995476Y-15148048D01*
X8985952Y-15129000D01*
X8966905Y-15100428D01*
X8957381Y-15090905D01*
D19*
X3875000Y-15433000D02*
X3995000Y-15553000D01*
X3995000Y-15433000D02*
X3875000Y-15553000D01*
X3977427Y-15535427D02*
X3977427Y-15450573D01*
X3892573Y-15450573D01*
X3892573Y-15535427D01*
X3977427Y-15535427D01*
D11*
X4357381Y-15583476D02*
X4243095Y-15583476D01*
X4300238Y-15583476D02*
X4300238Y-15383476D01*
X4281190Y-15412048D01*
X4262143Y-15431095D01*
X4243095Y-15440619D01*
X4443095Y-15564428D02*
X4452619Y-15573952D01*
X4443095Y-15583476D01*
X4433571Y-15573952D01*
X4443095Y-15564428D01*
X4443095Y-15583476D01*
X4528810Y-15402524D02*
X4538333Y-15393000D01*
X4557381Y-15383476D01*
X4605000Y-15383476D01*
X4624048Y-15393000D01*
X4633571Y-15402524D01*
X4643095Y-15421571D01*
X4643095Y-15440619D01*
X4633571Y-15469190D01*
X4519286Y-15583476D01*
X4643095Y-15583476D01*
X4766905Y-15383476D02*
X4785952Y-15383476D01*
X4805000Y-15393000D01*
X4814524Y-15402524D01*
X4824048Y-15421571D01*
X4833571Y-15459667D01*
X4833571Y-15507286D01*
X4824048Y-15545381D01*
X4814524Y-15564428D01*
X4805000Y-15573952D01*
X4785952Y-15583476D01*
X4766905Y-15583476D01*
X4747857Y-15573952D01*
X4738333Y-15564428D01*
X4728810Y-15545381D01*
X4719286Y-15507286D01*
X4719286Y-15459667D01*
X4728810Y-15421571D01*
X4738333Y-15402524D01*
X4747857Y-15393000D01*
X4766905Y-15383476D01*
X4957381Y-15383476D02*
X4976429Y-15383476D01*
X4995476Y-15393000D01*
X5005000Y-15402524D01*
X5014524Y-15421571D01*
X5024048Y-15459667D01*
X5024048Y-15507286D01*
X5014524Y-15545381D01*
X5005000Y-15564428D01*
X4995476Y-15573952D01*
X4976429Y-15583476D01*
X4957381Y-15583476D01*
X4938333Y-15573952D01*
X4928810Y-15564428D01*
X4919286Y-15545381D01*
X4909762Y-15507286D01*
X4909762Y-15459667D01*
X4919286Y-15421571D01*
X4928810Y-15402524D01*
X4938333Y-15393000D01*
X4957381Y-15383476D01*
X5109762Y-15583476D02*
X5109762Y-15450143D01*
X5109762Y-15469190D02*
X5119286Y-15459667D01*
X5138333Y-15450143D01*
X5166905Y-15450143D01*
X5185952Y-15459667D01*
X5195476Y-15478714D01*
X5195476Y-15583476D01*
X5195476Y-15478714D02*
X5205000Y-15459667D01*
X5224048Y-15450143D01*
X5252619Y-15450143D01*
X5271667Y-15459667D01*
X5281190Y-15478714D01*
X5281190Y-15583476D01*
X5376429Y-15583476D02*
X5376429Y-15450143D01*
X5376429Y-15469190D02*
X5385952Y-15459667D01*
X5405000Y-15450143D01*
X5433571Y-15450143D01*
X5452619Y-15459667D01*
X5462143Y-15478714D01*
X5462143Y-15583476D01*
X5462143Y-15478714D02*
X5471667Y-15459667D01*
X5490714Y-15450143D01*
X5519286Y-15450143D01*
X5538333Y-15459667D01*
X5547857Y-15478714D01*
X5547857Y-15583476D01*
X5938333Y-15373952D02*
X5766905Y-15631095D01*
X6195476Y-15383476D02*
X6214524Y-15383476D01*
X6233571Y-15393000D01*
X6243095Y-15402524D01*
X6252619Y-15421571D01*
X6262143Y-15459667D01*
X6262143Y-15507286D01*
X6252619Y-15545381D01*
X6243095Y-15564428D01*
X6233571Y-15573952D01*
X6214524Y-15583476D01*
X6195476Y-15583476D01*
X6176428Y-15573952D01*
X6166905Y-15564428D01*
X6157381Y-15545381D01*
X6147857Y-15507286D01*
X6147857Y-15459667D01*
X6157381Y-15421571D01*
X6166905Y-15402524D01*
X6176428Y-15393000D01*
X6195476Y-15383476D01*
X6347857Y-15564428D02*
X6357381Y-15573952D01*
X6347857Y-15583476D01*
X6338333Y-15573952D01*
X6347857Y-15564428D01*
X6347857Y-15583476D01*
X6481190Y-15383476D02*
X6500238Y-15383476D01*
X6519286Y-15393000D01*
X6528809Y-15402524D01*
X6538333Y-15421571D01*
X6547857Y-15459667D01*
X6547857Y-15507286D01*
X6538333Y-15545381D01*
X6528809Y-15564428D01*
X6519286Y-15573952D01*
X6500238Y-15583476D01*
X6481190Y-15583476D01*
X6462143Y-15573952D01*
X6452619Y-15564428D01*
X6443095Y-15545381D01*
X6433571Y-15507286D01*
X6433571Y-15459667D01*
X6443095Y-15421571D01*
X6452619Y-15402524D01*
X6462143Y-15393000D01*
X6481190Y-15383476D01*
X6719286Y-15450143D02*
X6719286Y-15583476D01*
X6671667Y-15373952D02*
X6624048Y-15516809D01*
X6747857Y-15516809D01*
X6805000Y-15383476D02*
X6938333Y-15383476D01*
X6852619Y-15583476D01*
X7005000Y-15402524D02*
X7014524Y-15393000D01*
X7033571Y-15383476D01*
X7081190Y-15383476D01*
X7100238Y-15393000D01*
X7109762Y-15402524D01*
X7119286Y-15421571D01*
X7119286Y-15440619D01*
X7109762Y-15469190D01*
X6995476Y-15583476D01*
X7119286Y-15583476D01*
X7195476Y-15383476D02*
X7195476Y-15421571D01*
X7271667Y-15383476D02*
X7271667Y-15421571D01*
X7566905Y-15659667D02*
X7557381Y-15650143D01*
X7538333Y-15621571D01*
X7528809Y-15602524D01*
X7519286Y-15573952D01*
X7509762Y-15526333D01*
X7509762Y-15488238D01*
X7519286Y-15440619D01*
X7528809Y-15412048D01*
X7538333Y-15393000D01*
X7557381Y-15364428D01*
X7566905Y-15354905D01*
X7728809Y-15450143D02*
X7728809Y-15583476D01*
X7681190Y-15373952D02*
X7633571Y-15516809D01*
X7757381Y-15516809D01*
X7871667Y-15383476D02*
X7890714Y-15383476D01*
X7909762Y-15393000D01*
X7919286Y-15402524D01*
X7928809Y-15421571D01*
X7938333Y-15459667D01*
X7938333Y-15507286D01*
X7928809Y-15545381D01*
X7919286Y-15564428D01*
X7909762Y-15573952D01*
X7890714Y-15583476D01*
X7871667Y-15583476D01*
X7852619Y-15573952D01*
X7843095Y-15564428D01*
X7833571Y-15545381D01*
X7824048Y-15507286D01*
X7824048Y-15459667D01*
X7833571Y-15421571D01*
X7843095Y-15402524D01*
X7852619Y-15393000D01*
X7871667Y-15383476D01*
X8176428Y-15583476D02*
X8176428Y-15383476D01*
X8262143Y-15583476D02*
X8262143Y-15478714D01*
X8252619Y-15459667D01*
X8233571Y-15450143D01*
X8205000Y-15450143D01*
X8185952Y-15459667D01*
X8176428Y-15469190D01*
X8385952Y-15583476D02*
X8366905Y-15573952D01*
X8357381Y-15564428D01*
X8347857Y-15545381D01*
X8347857Y-15488238D01*
X8357381Y-15469190D01*
X8366905Y-15459667D01*
X8385952Y-15450143D01*
X8414524Y-15450143D01*
X8433571Y-15459667D01*
X8443095Y-15469190D01*
X8452619Y-15488238D01*
X8452619Y-15545381D01*
X8443095Y-15564428D01*
X8433571Y-15573952D01*
X8414524Y-15583476D01*
X8385952Y-15583476D01*
X8566905Y-15583476D02*
X8547857Y-15573952D01*
X8538333Y-15554905D01*
X8538333Y-15383476D01*
X8719286Y-15573952D02*
X8700238Y-15583476D01*
X8662143Y-15583476D01*
X8643095Y-15573952D01*
X8633571Y-15554905D01*
X8633571Y-15478714D01*
X8643095Y-15459667D01*
X8662143Y-15450143D01*
X8700238Y-15450143D01*
X8719286Y-15459667D01*
X8728810Y-15478714D01*
X8728810Y-15497762D01*
X8633571Y-15516809D01*
X8805000Y-15573952D02*
X8824048Y-15583476D01*
X8862143Y-15583476D01*
X8881190Y-15573952D01*
X8890714Y-15554905D01*
X8890714Y-15545381D01*
X8881190Y-15526333D01*
X8862143Y-15516809D01*
X8833571Y-15516809D01*
X8814524Y-15507286D01*
X8805000Y-15488238D01*
X8805000Y-15478714D01*
X8814524Y-15459667D01*
X8833571Y-15450143D01*
X8862143Y-15450143D01*
X8881190Y-15459667D01*
X8957381Y-15659667D02*
X8966905Y-15650143D01*
X8985952Y-15621571D01*
X8995476Y-15602524D01*
X9005000Y-15573952D01*
X9014524Y-15526333D01*
X9014524Y-15488238D01*
X9005000Y-15440619D01*
X8995476Y-15412048D01*
X8985952Y-15393000D01*
X8966905Y-15364428D01*
X8957381Y-15354905D01*
X3795000Y-15657000D02*
X3995000Y-15857000D01*
X3995000Y-15657000D02*
X3795000Y-15857000D01*
X3895000Y-15857000D02*
X3995000Y-15757000D01*
X3895000Y-15657000D01*
X3795000Y-15757000D01*
X3895000Y-15857000D01*
X4233571Y-15647476D02*
X4357381Y-15647476D01*
X4290714Y-15723667D01*
X4319286Y-15723667D01*
X4338333Y-15733190D01*
X4347857Y-15742714D01*
X4357381Y-15761762D01*
X4357381Y-15809381D01*
X4347857Y-15828428D01*
X4338333Y-15837952D01*
X4319286Y-15847476D01*
X4262143Y-15847476D01*
X4243095Y-15837952D01*
X4233571Y-15828428D01*
X4443095Y-15828428D02*
X4452619Y-15837952D01*
X4443095Y-15847476D01*
X4433571Y-15837952D01*
X4443095Y-15828428D01*
X4443095Y-15847476D01*
X4528810Y-15666524D02*
X4538333Y-15657000D01*
X4557381Y-15647476D01*
X4605000Y-15647476D01*
X4624048Y-15657000D01*
X4633571Y-15666524D01*
X4643095Y-15685571D01*
X4643095Y-15704619D01*
X4633571Y-15733190D01*
X4519286Y-15847476D01*
X4643095Y-15847476D01*
X4766905Y-15647476D02*
X4785952Y-15647476D01*
X4805000Y-15657000D01*
X4814524Y-15666524D01*
X4824048Y-15685571D01*
X4833571Y-15723667D01*
X4833571Y-15771286D01*
X4824048Y-15809381D01*
X4814524Y-15828428D01*
X4805000Y-15837952D01*
X4785952Y-15847476D01*
X4766905Y-15847476D01*
X4747857Y-15837952D01*
X4738333Y-15828428D01*
X4728810Y-15809381D01*
X4719286Y-15771286D01*
X4719286Y-15723667D01*
X4728810Y-15685571D01*
X4738333Y-15666524D01*
X4747857Y-15657000D01*
X4766905Y-15647476D01*
X4957381Y-15647476D02*
X4976429Y-15647476D01*
X4995476Y-15657000D01*
X5005000Y-15666524D01*
X5014524Y-15685571D01*
X5024048Y-15723667D01*
X5024048Y-15771286D01*
X5014524Y-15809381D01*
X5005000Y-15828428D01*
X4995476Y-15837952D01*
X4976429Y-15847476D01*
X4957381Y-15847476D01*
X4938333Y-15837952D01*
X4928810Y-15828428D01*
X4919286Y-15809381D01*
X4909762Y-15771286D01*
X4909762Y-15723667D01*
X4919286Y-15685571D01*
X4928810Y-15666524D01*
X4938333Y-15657000D01*
X4957381Y-15647476D01*
X5109762Y-15847476D02*
X5109762Y-15714143D01*
X5109762Y-15733190D02*
X5119286Y-15723667D01*
X5138333Y-15714143D01*
X5166905Y-15714143D01*
X5185952Y-15723667D01*
X5195476Y-15742714D01*
X5195476Y-15847476D01*
X5195476Y-15742714D02*
X5205000Y-15723667D01*
X5224048Y-15714143D01*
X5252619Y-15714143D01*
X5271667Y-15723667D01*
X5281190Y-15742714D01*
X5281190Y-15847476D01*
X5376429Y-15847476D02*
X5376429Y-15714143D01*
X5376429Y-15733190D02*
X5385952Y-15723667D01*
X5405000Y-15714143D01*
X5433571Y-15714143D01*
X5452619Y-15723667D01*
X5462143Y-15742714D01*
X5462143Y-15847476D01*
X5462143Y-15742714D02*
X5471667Y-15723667D01*
X5490714Y-15714143D01*
X5519286Y-15714143D01*
X5538333Y-15723667D01*
X5547857Y-15742714D01*
X5547857Y-15847476D01*
X5938333Y-15637952D02*
X5766905Y-15895095D01*
X6195476Y-15647476D02*
X6214524Y-15647476D01*
X6233571Y-15657000D01*
X6243095Y-15666524D01*
X6252619Y-15685571D01*
X6262143Y-15723667D01*
X6262143Y-15771286D01*
X6252619Y-15809381D01*
X6243095Y-15828428D01*
X6233571Y-15837952D01*
X6214524Y-15847476D01*
X6195476Y-15847476D01*
X6176428Y-15837952D01*
X6166905Y-15828428D01*
X6157381Y-15809381D01*
X6147857Y-15771286D01*
X6147857Y-15723667D01*
X6157381Y-15685571D01*
X6166905Y-15666524D01*
X6176428Y-15657000D01*
X6195476Y-15647476D01*
X6347857Y-15828428D02*
X6357381Y-15837952D01*
X6347857Y-15847476D01*
X6338333Y-15837952D01*
X6347857Y-15828428D01*
X6347857Y-15847476D01*
X6547857Y-15847476D02*
X6433571Y-15847476D01*
X6490714Y-15847476D02*
X6490714Y-15647476D01*
X6471667Y-15676048D01*
X6452619Y-15695095D01*
X6433571Y-15704619D01*
X6624048Y-15666524D02*
X6633571Y-15657000D01*
X6652619Y-15647476D01*
X6700238Y-15647476D01*
X6719286Y-15657000D01*
X6728809Y-15666524D01*
X6738333Y-15685571D01*
X6738333Y-15704619D01*
X6728809Y-15733190D01*
X6614524Y-15847476D01*
X6738333Y-15847476D01*
X6909762Y-15647476D02*
X6871667Y-15647476D01*
X6852619Y-15657000D01*
X6843095Y-15666524D01*
X6824048Y-15695095D01*
X6814524Y-15733190D01*
X6814524Y-15809381D01*
X6824048Y-15828428D01*
X6833571Y-15837952D01*
X6852619Y-15847476D01*
X6890714Y-15847476D01*
X6909762Y-15837952D01*
X6919286Y-15828428D01*
X6928809Y-15809381D01*
X6928809Y-15761762D01*
X6919286Y-15742714D01*
X6909762Y-15733190D01*
X6890714Y-15723667D01*
X6852619Y-15723667D01*
X6833571Y-15733190D01*
X6824048Y-15742714D01*
X6814524Y-15761762D01*
X7052619Y-15647476D02*
X7071667Y-15647476D01*
X7090714Y-15657000D01*
X7100238Y-15666524D01*
X7109762Y-15685571D01*
X7119286Y-15723667D01*
X7119286Y-15771286D01*
X7109762Y-15809381D01*
X7100238Y-15828428D01*
X7090714Y-15837952D01*
X7071667Y-15847476D01*
X7052619Y-15847476D01*
X7033571Y-15837952D01*
X7024048Y-15828428D01*
X7014524Y-15809381D01*
X7005000Y-15771286D01*
X7005000Y-15723667D01*
X7014524Y-15685571D01*
X7024048Y-15666524D01*
X7033571Y-15657000D01*
X7052619Y-15647476D01*
X7195476Y-15647476D02*
X7195476Y-15685571D01*
X7271667Y-15647476D02*
X7271667Y-15685571D01*
X7566905Y-15923667D02*
X7557381Y-15914143D01*
X7538333Y-15885571D01*
X7528809Y-15866524D01*
X7519286Y-15837952D01*
X7509762Y-15790333D01*
X7509762Y-15752238D01*
X7519286Y-15704619D01*
X7528809Y-15676048D01*
X7538333Y-15657000D01*
X7557381Y-15628428D01*
X7566905Y-15618905D01*
X7728809Y-15714143D02*
X7728809Y-15847476D01*
X7681190Y-15637952D02*
X7633571Y-15780809D01*
X7757381Y-15780809D01*
X7985952Y-15847476D02*
X7985952Y-15647476D01*
X8071667Y-15847476D02*
X8071667Y-15742714D01*
X8062143Y-15723667D01*
X8043095Y-15714143D01*
X8014524Y-15714143D01*
X7995476Y-15723667D01*
X7985952Y-15733190D01*
X8195476Y-15847476D02*
X8176428Y-15837952D01*
X8166905Y-15828428D01*
X8157381Y-15809381D01*
X8157381Y-15752238D01*
X8166905Y-15733190D01*
X8176428Y-15723667D01*
X8195476Y-15714143D01*
X8224048Y-15714143D01*
X8243095Y-15723667D01*
X8252619Y-15733190D01*
X8262143Y-15752238D01*
X8262143Y-15809381D01*
X8252619Y-15828428D01*
X8243095Y-15837952D01*
X8224048Y-15847476D01*
X8195476Y-15847476D01*
X8376428Y-15847476D02*
X8357381Y-15837952D01*
X8347857Y-15818905D01*
X8347857Y-15647476D01*
X8528810Y-15837952D02*
X8509762Y-15847476D01*
X8471667Y-15847476D01*
X8452619Y-15837952D01*
X8443095Y-15818905D01*
X8443095Y-15742714D01*
X8452619Y-15723667D01*
X8471667Y-15714143D01*
X8509762Y-15714143D01*
X8528810Y-15723667D01*
X8538333Y-15742714D01*
X8538333Y-15761762D01*
X8443095Y-15780809D01*
X8614524Y-15837952D02*
X8633571Y-15847476D01*
X8671667Y-15847476D01*
X8690714Y-15837952D01*
X8700238Y-15818905D01*
X8700238Y-15809381D01*
X8690714Y-15790333D01*
X8671667Y-15780809D01*
X8643095Y-15780809D01*
X8624048Y-15771286D01*
X8614524Y-15752238D01*
X8614524Y-15742714D01*
X8624048Y-15723667D01*
X8643095Y-15714143D01*
X8671667Y-15714143D01*
X8690714Y-15723667D01*
X8766905Y-15923667D02*
X8776429Y-15914143D01*
X8795476Y-15885571D01*
X8805000Y-15866524D01*
X8814524Y-15837952D01*
X8824048Y-15790333D01*
X8824048Y-15752238D01*
X8814524Y-15704619D01*
X8805000Y-15676048D01*
X8795476Y-15657000D01*
X8776429Y-15628428D01*
X8766905Y-15618905D01*
D21*
X3920000Y-16002000D02*
X3920000Y-16152000D01*
X3845000Y-16077000D02*
X3995000Y-16077000D01*
X3995000Y-16077000D02*
G75*
G03*
X3995000Y-16077000I-75000J0D01*
G01*
D11*
X4357381Y-16167476D02*
X4243095Y-16167476D01*
X4300238Y-16167476D02*
X4300238Y-15967476D01*
X4281190Y-15996048D01*
X4262143Y-16015095D01*
X4243095Y-16024619D01*
X4443095Y-16148428D02*
X4452619Y-16157952D01*
X4443095Y-16167476D01*
X4433571Y-16157952D01*
X4443095Y-16148428D01*
X4443095Y-16167476D01*
X4633571Y-15967476D02*
X4538333Y-15967476D01*
X4528810Y-16062714D01*
X4538333Y-16053190D01*
X4557381Y-16043667D01*
X4605000Y-16043667D01*
X4624048Y-16053190D01*
X4633571Y-16062714D01*
X4643095Y-16081762D01*
X4643095Y-16129381D01*
X4633571Y-16148428D01*
X4624048Y-16157952D01*
X4605000Y-16167476D01*
X4557381Y-16167476D01*
X4538333Y-16157952D01*
X4528810Y-16148428D01*
X4766905Y-15967476D02*
X4785952Y-15967476D01*
X4805000Y-15977000D01*
X4814524Y-15986524D01*
X4824048Y-16005571D01*
X4833571Y-16043667D01*
X4833571Y-16091286D01*
X4824048Y-16129381D01*
X4814524Y-16148428D01*
X4805000Y-16157952D01*
X4785952Y-16167476D01*
X4766905Y-16167476D01*
X4747857Y-16157952D01*
X4738333Y-16148428D01*
X4728810Y-16129381D01*
X4719286Y-16091286D01*
X4719286Y-16043667D01*
X4728810Y-16005571D01*
X4738333Y-15986524D01*
X4747857Y-15977000D01*
X4766905Y-15967476D01*
X4957381Y-15967476D02*
X4976429Y-15967476D01*
X4995476Y-15977000D01*
X5005000Y-15986524D01*
X5014524Y-16005571D01*
X5024048Y-16043667D01*
X5024048Y-16091286D01*
X5014524Y-16129381D01*
X5005000Y-16148428D01*
X4995476Y-16157952D01*
X4976429Y-16167476D01*
X4957381Y-16167476D01*
X4938333Y-16157952D01*
X4928810Y-16148428D01*
X4919286Y-16129381D01*
X4909762Y-16091286D01*
X4909762Y-16043667D01*
X4919286Y-16005571D01*
X4928810Y-15986524D01*
X4938333Y-15977000D01*
X4957381Y-15967476D01*
X5109762Y-16167476D02*
X5109762Y-16034143D01*
X5109762Y-16053190D02*
X5119286Y-16043667D01*
X5138333Y-16034143D01*
X5166905Y-16034143D01*
X5185952Y-16043667D01*
X5195476Y-16062714D01*
X5195476Y-16167476D01*
X5195476Y-16062714D02*
X5205000Y-16043667D01*
X5224048Y-16034143D01*
X5252619Y-16034143D01*
X5271667Y-16043667D01*
X5281190Y-16062714D01*
X5281190Y-16167476D01*
X5376429Y-16167476D02*
X5376429Y-16034143D01*
X5376429Y-16053190D02*
X5385952Y-16043667D01*
X5405000Y-16034143D01*
X5433571Y-16034143D01*
X5452619Y-16043667D01*
X5462143Y-16062714D01*
X5462143Y-16167476D01*
X5462143Y-16062714D02*
X5471667Y-16043667D01*
X5490714Y-16034143D01*
X5519286Y-16034143D01*
X5538333Y-16043667D01*
X5547857Y-16062714D01*
X5547857Y-16167476D01*
X5938333Y-15957952D02*
X5766905Y-16215095D01*
X6195476Y-15967476D02*
X6214524Y-15967476D01*
X6233571Y-15977000D01*
X6243095Y-15986524D01*
X6252619Y-16005571D01*
X6262143Y-16043667D01*
X6262143Y-16091286D01*
X6252619Y-16129381D01*
X6243095Y-16148428D01*
X6233571Y-16157952D01*
X6214524Y-16167476D01*
X6195476Y-16167476D01*
X6176428Y-16157952D01*
X6166905Y-16148428D01*
X6157381Y-16129381D01*
X6147857Y-16091286D01*
X6147857Y-16043667D01*
X6157381Y-16005571D01*
X6166905Y-15986524D01*
X6176428Y-15977000D01*
X6195476Y-15967476D01*
X6347857Y-16148428D02*
X6357381Y-16157952D01*
X6347857Y-16167476D01*
X6338333Y-16157952D01*
X6347857Y-16148428D01*
X6347857Y-16167476D01*
X6481190Y-15967476D02*
X6500238Y-15967476D01*
X6519286Y-15977000D01*
X6528809Y-15986524D01*
X6538333Y-16005571D01*
X6547857Y-16043667D01*
X6547857Y-16091286D01*
X6538333Y-16129381D01*
X6528809Y-16148428D01*
X6519286Y-16157952D01*
X6500238Y-16167476D01*
X6481190Y-16167476D01*
X6462143Y-16157952D01*
X6452619Y-16148428D01*
X6443095Y-16129381D01*
X6433571Y-16091286D01*
X6433571Y-16043667D01*
X6443095Y-16005571D01*
X6452619Y-15986524D01*
X6462143Y-15977000D01*
X6481190Y-15967476D01*
X6728809Y-15967476D02*
X6633571Y-15967476D01*
X6624048Y-16062714D01*
X6633571Y-16053190D01*
X6652619Y-16043667D01*
X6700238Y-16043667D01*
X6719286Y-16053190D01*
X6728809Y-16062714D01*
X6738333Y-16081762D01*
X6738333Y-16129381D01*
X6728809Y-16148428D01*
X6719286Y-16157952D01*
X6700238Y-16167476D01*
X6652619Y-16167476D01*
X6633571Y-16157952D01*
X6624048Y-16148428D01*
X6833571Y-16167476D02*
X6871667Y-16167476D01*
X6890714Y-16157952D01*
X6900238Y-16148428D01*
X6919286Y-16119857D01*
X6928809Y-16081762D01*
X6928809Y-16005571D01*
X6919286Y-15986524D01*
X6909762Y-15977000D01*
X6890714Y-15967476D01*
X6852619Y-15967476D01*
X6833571Y-15977000D01*
X6824048Y-15986524D01*
X6814524Y-16005571D01*
X6814524Y-16053190D01*
X6824048Y-16072238D01*
X6833571Y-16081762D01*
X6852619Y-16091286D01*
X6890714Y-16091286D01*
X6909762Y-16081762D01*
X6919286Y-16072238D01*
X6928809Y-16053190D01*
X7119286Y-16167476D02*
X7005000Y-16167476D01*
X7062143Y-16167476D02*
X7062143Y-15967476D01*
X7043095Y-15996048D01*
X7024048Y-16015095D01*
X7005000Y-16024619D01*
X7195476Y-15967476D02*
X7195476Y-16005571D01*
X7271667Y-15967476D02*
X7271667Y-16005571D01*
X7566905Y-16243667D02*
X7557381Y-16234143D01*
X7538333Y-16205571D01*
X7528809Y-16186524D01*
X7519286Y-16157952D01*
X7509762Y-16110333D01*
X7509762Y-16072238D01*
X7519286Y-16024619D01*
X7528809Y-15996048D01*
X7538333Y-15977000D01*
X7557381Y-15948428D01*
X7566905Y-15938905D01*
X7633571Y-15986524D02*
X7643095Y-15977000D01*
X7662143Y-15967476D01*
X7709762Y-15967476D01*
X7728809Y-15977000D01*
X7738333Y-15986524D01*
X7747857Y-16005571D01*
X7747857Y-16024619D01*
X7738333Y-16053190D01*
X7624048Y-16167476D01*
X7747857Y-16167476D01*
X7985952Y-16167476D02*
X7985952Y-15967476D01*
X8071667Y-16167476D02*
X8071667Y-16062714D01*
X8062143Y-16043667D01*
X8043095Y-16034143D01*
X8014524Y-16034143D01*
X7995476Y-16043667D01*
X7985952Y-16053190D01*
X8195476Y-16167476D02*
X8176428Y-16157952D01*
X8166905Y-16148428D01*
X8157381Y-16129381D01*
X8157381Y-16072238D01*
X8166905Y-16053190D01*
X8176428Y-16043667D01*
X8195476Y-16034143D01*
X8224048Y-16034143D01*
X8243095Y-16043667D01*
X8252619Y-16053190D01*
X8262143Y-16072238D01*
X8262143Y-16129381D01*
X8252619Y-16148428D01*
X8243095Y-16157952D01*
X8224048Y-16167476D01*
X8195476Y-16167476D01*
X8376428Y-16167476D02*
X8357381Y-16157952D01*
X8347857Y-16138905D01*
X8347857Y-15967476D01*
X8528810Y-16157952D02*
X8509762Y-16167476D01*
X8471667Y-16167476D01*
X8452619Y-16157952D01*
X8443095Y-16138905D01*
X8443095Y-16062714D01*
X8452619Y-16043667D01*
X8471667Y-16034143D01*
X8509762Y-16034143D01*
X8528810Y-16043667D01*
X8538333Y-16062714D01*
X8538333Y-16081762D01*
X8443095Y-16100809D01*
X8614524Y-16157952D02*
X8633571Y-16167476D01*
X8671667Y-16167476D01*
X8690714Y-16157952D01*
X8700238Y-16138905D01*
X8700238Y-16129381D01*
X8690714Y-16110333D01*
X8671667Y-16100809D01*
X8643095Y-16100809D01*
X8624048Y-16091286D01*
X8614524Y-16072238D01*
X8614524Y-16062714D01*
X8624048Y-16043667D01*
X8643095Y-16034143D01*
X8671667Y-16034143D01*
X8690714Y-16043667D01*
X8766905Y-16243667D02*
X8776429Y-16234143D01*
X8795476Y-16205571D01*
X8805000Y-16186524D01*
X8814524Y-16157952D01*
X8824048Y-16110333D01*
X8824048Y-16072238D01*
X8814524Y-16024619D01*
X8805000Y-15996048D01*
X8795476Y-15977000D01*
X8776429Y-15948428D01*
X8766905Y-15938905D01*
X9128810Y-16243667D02*
X9119286Y-16234143D01*
X9100238Y-16205571D01*
X9090714Y-16186524D01*
X9081190Y-16157952D01*
X9071667Y-16110333D01*
X9071667Y-16072238D01*
X9081190Y-16024619D01*
X9090714Y-15996048D01*
X9100238Y-15977000D01*
X9119286Y-15948428D01*
X9128810Y-15938905D01*
X9205000Y-16034143D02*
X9205000Y-16167476D01*
X9205000Y-16053190D02*
X9214524Y-16043667D01*
X9233571Y-16034143D01*
X9262143Y-16034143D01*
X9281190Y-16043667D01*
X9290714Y-16062714D01*
X9290714Y-16167476D01*
X9414524Y-16167476D02*
X9395476Y-16157952D01*
X9385952Y-16148428D01*
X9376429Y-16129381D01*
X9376429Y-16072238D01*
X9385952Y-16053190D01*
X9395476Y-16043667D01*
X9414524Y-16034143D01*
X9443095Y-16034143D01*
X9462143Y-16043667D01*
X9471667Y-16053190D01*
X9481190Y-16072238D01*
X9481190Y-16129381D01*
X9471667Y-16148428D01*
X9462143Y-16157952D01*
X9443095Y-16167476D01*
X9414524Y-16167476D01*
X9538333Y-16034143D02*
X9614524Y-16034143D01*
X9566905Y-15967476D02*
X9566905Y-16138905D01*
X9576429Y-16157952D01*
X9595476Y-16167476D01*
X9614524Y-16167476D01*
X9833571Y-16034143D02*
X9833571Y-16234143D01*
X9833571Y-16043667D02*
X9852619Y-16034143D01*
X9890714Y-16034143D01*
X9909762Y-16043667D01*
X9919286Y-16053190D01*
X9928810Y-16072238D01*
X9928810Y-16129381D01*
X9919286Y-16148428D01*
X9909762Y-16157952D01*
X9890714Y-16167476D01*
X9852619Y-16167476D01*
X9833571Y-16157952D01*
X10043095Y-16167476D02*
X10024048Y-16157952D01*
X10014524Y-16138905D01*
X10014524Y-15967476D01*
X10205000Y-16167476D02*
X10205000Y-16062714D01*
X10195476Y-16043667D01*
X10176429Y-16034143D01*
X10138333Y-16034143D01*
X10119286Y-16043667D01*
X10205000Y-16157952D02*
X10185952Y-16167476D01*
X10138333Y-16167476D01*
X10119286Y-16157952D01*
X10109762Y-16138905D01*
X10109762Y-16119857D01*
X10119286Y-16100809D01*
X10138333Y-16091286D01*
X10185952Y-16091286D01*
X10205000Y-16081762D01*
X10271667Y-16034143D02*
X10347857Y-16034143D01*
X10300238Y-15967476D02*
X10300238Y-16138905D01*
X10309762Y-16157952D01*
X10328810Y-16167476D01*
X10347857Y-16167476D01*
X10490714Y-16157952D02*
X10471667Y-16167476D01*
X10433571Y-16167476D01*
X10414524Y-16157952D01*
X10405000Y-16138905D01*
X10405000Y-16062714D01*
X10414524Y-16043667D01*
X10433571Y-16034143D01*
X10471667Y-16034143D01*
X10490714Y-16043667D01*
X10500238Y-16062714D01*
X10500238Y-16081762D01*
X10405000Y-16100809D01*
X10671667Y-16167476D02*
X10671667Y-15967476D01*
X10671667Y-16157952D02*
X10652619Y-16167476D01*
X10614524Y-16167476D01*
X10595476Y-16157952D01*
X10585952Y-16148428D01*
X10576429Y-16129381D01*
X10576429Y-16072238D01*
X10585952Y-16053190D01*
X10595476Y-16043667D01*
X10614524Y-16034143D01*
X10652619Y-16034143D01*
X10671667Y-16043667D01*
X10747857Y-16243667D02*
X10757381Y-16234143D01*
X10776429Y-16205571D01*
X10785952Y-16186524D01*
X10795476Y-16157952D01*
X10805000Y-16110333D01*
X10805000Y-16072238D01*
X10795476Y-16024619D01*
X10785952Y-15996048D01*
X10776429Y-15977000D01*
X10757381Y-15948428D01*
X10747857Y-15938905D01*
D22*
X3968640Y-16410640D02*
X3968640Y-16283360D01*
X3841360Y-16283360D01*
X3841360Y-16410640D01*
X3968640Y-16410640D01*
X3995000Y-16347000D02*
G75*
G03*
X3995000Y-16347000I-90000J0D01*
G01*
D11*
X4357381Y-16437476D02*
X4243095Y-16437476D01*
X4300238Y-16437476D02*
X4300238Y-16237476D01*
X4281190Y-16266048D01*
X4262143Y-16285095D01*
X4243095Y-16294619D01*
X4443095Y-16418428D02*
X4452619Y-16427952D01*
X4443095Y-16437476D01*
X4433571Y-16427952D01*
X4443095Y-16418428D01*
X4443095Y-16437476D01*
X4566905Y-16323190D02*
X4547857Y-16313667D01*
X4538333Y-16304143D01*
X4528810Y-16285095D01*
X4528810Y-16275571D01*
X4538333Y-16256524D01*
X4547857Y-16247000D01*
X4566905Y-16237476D01*
X4605000Y-16237476D01*
X4624048Y-16247000D01*
X4633571Y-16256524D01*
X4643095Y-16275571D01*
X4643095Y-16285095D01*
X4633571Y-16304143D01*
X4624048Y-16313667D01*
X4605000Y-16323190D01*
X4566905Y-16323190D01*
X4547857Y-16332714D01*
X4538333Y-16342238D01*
X4528810Y-16361286D01*
X4528810Y-16399381D01*
X4538333Y-16418428D01*
X4547857Y-16427952D01*
X4566905Y-16437476D01*
X4605000Y-16437476D01*
X4624048Y-16427952D01*
X4633571Y-16418428D01*
X4643095Y-16399381D01*
X4643095Y-16361286D01*
X4633571Y-16342238D01*
X4624048Y-16332714D01*
X4605000Y-16323190D01*
X4766905Y-16237476D02*
X4785952Y-16237476D01*
X4805000Y-16247000D01*
X4814524Y-16256524D01*
X4824048Y-16275571D01*
X4833571Y-16313667D01*
X4833571Y-16361286D01*
X4824048Y-16399381D01*
X4814524Y-16418428D01*
X4805000Y-16427952D01*
X4785952Y-16437476D01*
X4766905Y-16437476D01*
X4747857Y-16427952D01*
X4738333Y-16418428D01*
X4728810Y-16399381D01*
X4719286Y-16361286D01*
X4719286Y-16313667D01*
X4728810Y-16275571D01*
X4738333Y-16256524D01*
X4747857Y-16247000D01*
X4766905Y-16237476D01*
X4957381Y-16237476D02*
X4976429Y-16237476D01*
X4995476Y-16247000D01*
X5005000Y-16256524D01*
X5014524Y-16275571D01*
X5024048Y-16313667D01*
X5024048Y-16361286D01*
X5014524Y-16399381D01*
X5005000Y-16418428D01*
X4995476Y-16427952D01*
X4976429Y-16437476D01*
X4957381Y-16437476D01*
X4938333Y-16427952D01*
X4928810Y-16418428D01*
X4919286Y-16399381D01*
X4909762Y-16361286D01*
X4909762Y-16313667D01*
X4919286Y-16275571D01*
X4928810Y-16256524D01*
X4938333Y-16247000D01*
X4957381Y-16237476D01*
X5109762Y-16437476D02*
X5109762Y-16304143D01*
X5109762Y-16323190D02*
X5119286Y-16313667D01*
X5138333Y-16304143D01*
X5166905Y-16304143D01*
X5185952Y-16313667D01*
X5195476Y-16332714D01*
X5195476Y-16437476D01*
X5195476Y-16332714D02*
X5205000Y-16313667D01*
X5224048Y-16304143D01*
X5252619Y-16304143D01*
X5271667Y-16313667D01*
X5281190Y-16332714D01*
X5281190Y-16437476D01*
X5376429Y-16437476D02*
X5376429Y-16304143D01*
X5376429Y-16323190D02*
X5385952Y-16313667D01*
X5405000Y-16304143D01*
X5433571Y-16304143D01*
X5452619Y-16313667D01*
X5462143Y-16332714D01*
X5462143Y-16437476D01*
X5462143Y-16332714D02*
X5471667Y-16313667D01*
X5490714Y-16304143D01*
X5519286Y-16304143D01*
X5538333Y-16313667D01*
X5547857Y-16332714D01*
X5547857Y-16437476D01*
X5938333Y-16227952D02*
X5766905Y-16485095D01*
X6195476Y-16237476D02*
X6214524Y-16237476D01*
X6233571Y-16247000D01*
X6243095Y-16256524D01*
X6252619Y-16275571D01*
X6262143Y-16313667D01*
X6262143Y-16361286D01*
X6252619Y-16399381D01*
X6243095Y-16418428D01*
X6233571Y-16427952D01*
X6214524Y-16437476D01*
X6195476Y-16437476D01*
X6176428Y-16427952D01*
X6166905Y-16418428D01*
X6157381Y-16399381D01*
X6147857Y-16361286D01*
X6147857Y-16313667D01*
X6157381Y-16275571D01*
X6166905Y-16256524D01*
X6176428Y-16247000D01*
X6195476Y-16237476D01*
X6347857Y-16418428D02*
X6357381Y-16427952D01*
X6347857Y-16437476D01*
X6338333Y-16427952D01*
X6347857Y-16418428D01*
X6347857Y-16437476D01*
X6481190Y-16237476D02*
X6500238Y-16237476D01*
X6519286Y-16247000D01*
X6528809Y-16256524D01*
X6538333Y-16275571D01*
X6547857Y-16313667D01*
X6547857Y-16361286D01*
X6538333Y-16399381D01*
X6528809Y-16418428D01*
X6519286Y-16427952D01*
X6500238Y-16437476D01*
X6481190Y-16437476D01*
X6462143Y-16427952D01*
X6452619Y-16418428D01*
X6443095Y-16399381D01*
X6433571Y-16361286D01*
X6433571Y-16313667D01*
X6443095Y-16275571D01*
X6452619Y-16256524D01*
X6462143Y-16247000D01*
X6481190Y-16237476D01*
X6614524Y-16237476D02*
X6747857Y-16237476D01*
X6662143Y-16437476D01*
X6862143Y-16237476D02*
X6881190Y-16237476D01*
X6900238Y-16247000D01*
X6909762Y-16256524D01*
X6919286Y-16275571D01*
X6928809Y-16313667D01*
X6928809Y-16361286D01*
X6919286Y-16399381D01*
X6909762Y-16418428D01*
X6900238Y-16427952D01*
X6881190Y-16437476D01*
X6862143Y-16437476D01*
X6843095Y-16427952D01*
X6833571Y-16418428D01*
X6824048Y-16399381D01*
X6814524Y-16361286D01*
X6814524Y-16313667D01*
X6824048Y-16275571D01*
X6833571Y-16256524D01*
X6843095Y-16247000D01*
X6862143Y-16237476D01*
X7024048Y-16437476D02*
X7062143Y-16437476D01*
X7081190Y-16427952D01*
X7090714Y-16418428D01*
X7109762Y-16389857D01*
X7119286Y-16351762D01*
X7119286Y-16275571D01*
X7109762Y-16256524D01*
X7100238Y-16247000D01*
X7081190Y-16237476D01*
X7043095Y-16237476D01*
X7024048Y-16247000D01*
X7014524Y-16256524D01*
X7005000Y-16275571D01*
X7005000Y-16323190D01*
X7014524Y-16342238D01*
X7024048Y-16351762D01*
X7043095Y-16361286D01*
X7081190Y-16361286D01*
X7100238Y-16351762D01*
X7109762Y-16342238D01*
X7119286Y-16323190D01*
X7195476Y-16237476D02*
X7195476Y-16275571D01*
X7271667Y-16237476D02*
X7271667Y-16275571D01*
X7566905Y-16513667D02*
X7557381Y-16504143D01*
X7538333Y-16475571D01*
X7528809Y-16456524D01*
X7519286Y-16427952D01*
X7509762Y-16380333D01*
X7509762Y-16342238D01*
X7519286Y-16294619D01*
X7528809Y-16266048D01*
X7538333Y-16247000D01*
X7557381Y-16218428D01*
X7566905Y-16208905D01*
X7747857Y-16437476D02*
X7633571Y-16437476D01*
X7690714Y-16437476D02*
X7690714Y-16237476D01*
X7671667Y-16266048D01*
X7652619Y-16285095D01*
X7633571Y-16294619D01*
X7824048Y-16256524D02*
X7833571Y-16247000D01*
X7852619Y-16237476D01*
X7900238Y-16237476D01*
X7919286Y-16247000D01*
X7928809Y-16256524D01*
X7938333Y-16275571D01*
X7938333Y-16294619D01*
X7928809Y-16323190D01*
X7814524Y-16437476D01*
X7938333Y-16437476D01*
X8176428Y-16437476D02*
X8176428Y-16237476D01*
X8262143Y-16437476D02*
X8262143Y-16332714D01*
X8252619Y-16313667D01*
X8233571Y-16304143D01*
X8205000Y-16304143D01*
X8185952Y-16313667D01*
X8176428Y-16323190D01*
X8385952Y-16437476D02*
X8366905Y-16427952D01*
X8357381Y-16418428D01*
X8347857Y-16399381D01*
X8347857Y-16342238D01*
X8357381Y-16323190D01*
X8366905Y-16313667D01*
X8385952Y-16304143D01*
X8414524Y-16304143D01*
X8433571Y-16313667D01*
X8443095Y-16323190D01*
X8452619Y-16342238D01*
X8452619Y-16399381D01*
X8443095Y-16418428D01*
X8433571Y-16427952D01*
X8414524Y-16437476D01*
X8385952Y-16437476D01*
X8566905Y-16437476D02*
X8547857Y-16427952D01*
X8538333Y-16408905D01*
X8538333Y-16237476D01*
X8719286Y-16427952D02*
X8700238Y-16437476D01*
X8662143Y-16437476D01*
X8643095Y-16427952D01*
X8633571Y-16408905D01*
X8633571Y-16332714D01*
X8643095Y-16313667D01*
X8662143Y-16304143D01*
X8700238Y-16304143D01*
X8719286Y-16313667D01*
X8728810Y-16332714D01*
X8728810Y-16351762D01*
X8633571Y-16370809D01*
X8805000Y-16427952D02*
X8824048Y-16437476D01*
X8862143Y-16437476D01*
X8881190Y-16427952D01*
X8890714Y-16408905D01*
X8890714Y-16399381D01*
X8881190Y-16380333D01*
X8862143Y-16370809D01*
X8833571Y-16370809D01*
X8814524Y-16361286D01*
X8805000Y-16342238D01*
X8805000Y-16332714D01*
X8814524Y-16313667D01*
X8833571Y-16304143D01*
X8862143Y-16304143D01*
X8881190Y-16313667D01*
X8957381Y-16513667D02*
X8966905Y-16504143D01*
X8985952Y-16475571D01*
X8995476Y-16456524D01*
X9005000Y-16427952D01*
X9014524Y-16380333D01*
X9014524Y-16342238D01*
X9005000Y-16294619D01*
X8995476Y-16266048D01*
X8985952Y-16247000D01*
X8966905Y-16218428D01*
X8957381Y-16208905D01*
X9319286Y-16513667D02*
X9309762Y-16504143D01*
X9290714Y-16475571D01*
X9281190Y-16456524D01*
X9271667Y-16427952D01*
X9262143Y-16380333D01*
X9262143Y-16342238D01*
X9271667Y-16294619D01*
X9281190Y-16266048D01*
X9290714Y-16247000D01*
X9309762Y-16218428D01*
X9319286Y-16208905D01*
X9395476Y-16304143D02*
X9395476Y-16437476D01*
X9395476Y-16323190D02*
X9405000Y-16313667D01*
X9424048Y-16304143D01*
X9452619Y-16304143D01*
X9471667Y-16313667D01*
X9481190Y-16332714D01*
X9481190Y-16437476D01*
X9605000Y-16437476D02*
X9585952Y-16427952D01*
X9576429Y-16418428D01*
X9566905Y-16399381D01*
X9566905Y-16342238D01*
X9576429Y-16323190D01*
X9585952Y-16313667D01*
X9605000Y-16304143D01*
X9633571Y-16304143D01*
X9652619Y-16313667D01*
X9662143Y-16323190D01*
X9671667Y-16342238D01*
X9671667Y-16399381D01*
X9662143Y-16418428D01*
X9652619Y-16427952D01*
X9633571Y-16437476D01*
X9605000Y-16437476D01*
X9728810Y-16304143D02*
X9805000Y-16304143D01*
X9757381Y-16237476D02*
X9757381Y-16408905D01*
X9766905Y-16427952D01*
X9785952Y-16437476D01*
X9805000Y-16437476D01*
X10024048Y-16304143D02*
X10024048Y-16504143D01*
X10024048Y-16313667D02*
X10043095Y-16304143D01*
X10081190Y-16304143D01*
X10100238Y-16313667D01*
X10109762Y-16323190D01*
X10119286Y-16342238D01*
X10119286Y-16399381D01*
X10109762Y-16418428D01*
X10100238Y-16427952D01*
X10081190Y-16437476D01*
X10043095Y-16437476D01*
X10024048Y-16427952D01*
X10233571Y-16437476D02*
X10214524Y-16427952D01*
X10205000Y-16408905D01*
X10205000Y-16237476D01*
X10395476Y-16437476D02*
X10395476Y-16332714D01*
X10385952Y-16313667D01*
X10366905Y-16304143D01*
X10328810Y-16304143D01*
X10309762Y-16313667D01*
X10395476Y-16427952D02*
X10376429Y-16437476D01*
X10328810Y-16437476D01*
X10309762Y-16427952D01*
X10300238Y-16408905D01*
X10300238Y-16389857D01*
X10309762Y-16370809D01*
X10328810Y-16361286D01*
X10376429Y-16361286D01*
X10395476Y-16351762D01*
X10462143Y-16304143D02*
X10538333Y-16304143D01*
X10490714Y-16237476D02*
X10490714Y-16408905D01*
X10500238Y-16427952D01*
X10519286Y-16437476D01*
X10538333Y-16437476D01*
X10681190Y-16427952D02*
X10662143Y-16437476D01*
X10624048Y-16437476D01*
X10605000Y-16427952D01*
X10595476Y-16408905D01*
X10595476Y-16332714D01*
X10605000Y-16313667D01*
X10624048Y-16304143D01*
X10662143Y-16304143D01*
X10681190Y-16313667D01*
X10690714Y-16332714D01*
X10690714Y-16351762D01*
X10595476Y-16370809D01*
X10862143Y-16437476D02*
X10862143Y-16237476D01*
X10862143Y-16427952D02*
X10843095Y-16437476D01*
X10805000Y-16437476D01*
X10785952Y-16427952D01*
X10776429Y-16418428D01*
X10766905Y-16399381D01*
X10766905Y-16342238D01*
X10776429Y-16323190D01*
X10785952Y-16313667D01*
X10805000Y-16304143D01*
X10843095Y-16304143D01*
X10862143Y-16313667D01*
X10938333Y-16513667D02*
X10947857Y-16504143D01*
X10966905Y-16475571D01*
X10976429Y-16456524D01*
X10985952Y-16427952D01*
X10995476Y-16380333D01*
X10995476Y-16342238D01*
X10985952Y-16294619D01*
X10976429Y-16266048D01*
X10966905Y-16247000D01*
X10947857Y-16218428D01*
X10938333Y-16208905D01*
M02*
