M48
; DRILL file {KiCad 6.0.2+dfsg-1} date 2024年01月09日 17時30分41秒
; FORMAT={-:-/ absolute / metric / decimal}
; #@! TF.CreationDate,2024-01-09T17:30:41+09:00
; #@! TF.GenerationSoftware,Kicad,Pcbnew,6.0.2+dfsg-1
; #@! TF.FileFunction,MixedPlating,1,2
FMAT,2
METRIC
; #@! TA.AperFunction,Plated,PTH,ComponentDrill
T1C0.700
; #@! TA.AperFunction,Plated,PTH,ComponentDrill
T2C0.750
; #@! TA.AperFunction,Plated,PTH,ComponentDrill
T3C0.762
; #@! TA.AperFunction,Plated,PTH,ComponentDrill
T4C0.800
; #@! TA.AperFunction,Plated,PTH,ComponentDrill
T5C0.850
; #@! TA.AperFunction,Plated,PTH,ComponentDrill
T6C1.000
; #@! TA.AperFunction,Plated,PTH,ComponentDrill
T7C1.020
; #@! TA.AperFunction,Plated,PTH,ComponentDrill
T8C1.200
; #@! TA.AperFunction,Plated,PTH,ComponentDrill
T9C3.200
; #@! TA.AperFunction,NonPlated,NPTH,ComponentDrill
T10C1.500
; #@! TA.AperFunction,NonPlated,NPTH,ComponentDrill
T11C1.800
%
G90
G05
T1
X49.53Y-114.3
X54.61Y-114.3
X59.69Y-105.41
X60.96Y-77.47
X60.96Y-82.55
X64.77Y-105.41
X104.14Y-50.8
X104.14Y-67.31
X104.14Y-83.82
X104.14Y-100.33
X104.14Y-121.92
X109.22Y-50.8
X109.22Y-67.31
X109.22Y-83.82
X109.22Y-100.33
X109.22Y-121.92
X119.38Y-50.8
X119.38Y-67.31
X119.38Y-83.82
X119.38Y-100.33
X119.38Y-121.92
X124.46Y-50.8
X124.46Y-67.31
X124.46Y-83.82
X124.46Y-100.33
X124.46Y-121.92
T2
X62.23Y-109.22
X62.23Y-110.49
X62.23Y-111.76
T3
X80.01Y-66.47
X82.55Y-66.47
X85.09Y-66.47
X87.63Y-66.47
T4
X49.52Y-77.47
X49.52Y-80.01
X49.52Y-82.55
X49.52Y-85.09
X49.52Y-87.63
X49.52Y-90.17
X49.52Y-92.71
X49.52Y-95.25
X49.52Y-97.79
X49.52Y-100.33
X49.52Y-102.87
X49.52Y-105.41
X49.52Y-107.95
X49.52Y-110.49
X54.63Y-64.135
X54.65Y-121.285
X57.13Y-64.135
X57.14Y-77.47
X57.14Y-80.01
X57.14Y-82.55
X57.14Y-85.09
X57.14Y-87.63
X57.14Y-90.17
X57.14Y-92.71
X57.14Y-95.25
X57.14Y-97.79
X57.14Y-100.33
X57.14Y-102.87
X57.14Y-105.41
X57.14Y-107.95
X57.14Y-110.49
X57.15Y-121.285
X59.65Y-121.285
X60.96Y-87.65
X60.96Y-90.15
X62.23Y-95.36
X62.23Y-97.8
X62.23Y-100.24
X62.295Y-117.475
X64.795Y-117.475
X105.4Y-48.26
X105.4Y-64.77
X105.4Y-81.28
X105.4Y-97.79
X105.4Y-119.38
X111.78Y-50.8
X111.8Y-67.31
X111.8Y-83.82
X111.8Y-100.33
X111.8Y-121.92
X113.02Y-38.09
X113.02Y-54.6
X113.02Y-71.11
X113.02Y-87.62
X113.02Y-109.21
X114.28Y-50.8
X114.3Y-67.31
X114.3Y-83.82
X114.3Y-100.33
X114.3Y-121.92
X120.64Y-48.26
X120.64Y-64.77
X120.64Y-81.28
X120.64Y-97.79
X120.64Y-119.38
X127.04Y-50.8
X127.04Y-67.31
X127.04Y-83.82
X127.04Y-100.33
X127.04Y-121.92
X128.26Y-38.09
X128.26Y-54.6
X128.26Y-71.11
X128.26Y-87.62
X128.26Y-109.21
X129.54Y-50.8
X129.54Y-67.31
X129.54Y-83.82
X129.54Y-100.33
X129.54Y-121.92
T5
X78.82Y-107.95
X88.82Y-107.95
T6
X76.52Y-121.685
X91.12Y-121.685
T7
X49.53Y-41.91
X49.53Y-59.69
X52.07Y-41.91
X52.07Y-59.69
X54.61Y-41.91
X54.61Y-59.69
X57.15Y-41.91
X57.15Y-59.69
X59.69Y-41.91
X59.69Y-59.69
X62.23Y-41.91
X62.23Y-59.69
X64.77Y-41.91
X64.77Y-59.69
X67.31Y-41.91
X67.31Y-59.69
X69.85Y-41.91
X69.85Y-59.69
X72.39Y-41.91
X72.39Y-59.69
X74.93Y-41.91
X74.93Y-59.69
X77.47Y-41.91
X77.47Y-59.69
X80.01Y-41.91
X80.01Y-59.69
X82.55Y-41.91
X82.55Y-59.69
X85.09Y-41.91
X85.09Y-59.69
X87.63Y-41.91
X87.63Y-59.69
X90.17Y-41.91
X90.17Y-59.69
X92.71Y-41.91
X92.71Y-59.69
X95.25Y-41.91
X95.25Y-59.69
X97.56Y-48.26
X97.56Y-50.8
X97.56Y-53.34
X97.79Y-41.91
X97.79Y-59.69
T8
X102.97Y-40.68
X102.97Y-45.68
X102.97Y-57.19
X102.97Y-62.19
X102.97Y-73.7
X102.97Y-78.7
X102.97Y-90.21
X102.97Y-95.21
X102.97Y-111.8
X102.97Y-116.8
X115.47Y-40.68
X115.47Y-45.68
X115.47Y-57.19
X115.47Y-62.19
X115.47Y-73.7
X115.47Y-78.7
X115.47Y-90.21
X115.47Y-95.21
X115.47Y-111.8
X115.47Y-116.8
X118.21Y-40.68
X118.21Y-45.68
X118.21Y-57.19
X118.21Y-62.19
X118.21Y-73.7
X118.21Y-78.7
X118.21Y-90.21
X118.21Y-95.21
X118.21Y-111.8
X118.21Y-116.8
X130.71Y-40.68
X130.71Y-45.68
X130.71Y-57.19
X130.71Y-62.19
X130.71Y-73.7
X130.71Y-78.7
X130.71Y-90.21
X130.71Y-95.21
X130.71Y-111.8
X130.71Y-116.8
T9
X45.0Y-35.0
X45.0Y-125.0
X135.0Y-35.0
X135.0Y-125.0
T10
X52.69Y-48.375
X52.69Y-53.225
T11
X49.66Y-48.075
X49.66Y-53.525
X109.22Y-47.68
X109.22Y-64.19
X109.22Y-80.7
X109.22Y-97.21
X109.22Y-118.8
X124.46Y-47.68
X124.46Y-64.19
X124.46Y-80.7
X124.46Y-97.21
X124.46Y-118.8
T0
M30
